<svg xmlns="http://www.w3.org/2000/svg" xmlns:xlink="http://www.w3.org/1999/xlink" data-name="Layer 2" viewBox="0 0 313.27 225.97"><defs><linearGradient id="a" x1="115.89" x2="151.36" y1="187.14" y2="187.14" data-name="Dégradé sans nom 30" gradientUnits="userSpaceOnUse"><stop offset=".01" stop-color="#b3dfd7"/><stop offset=".99" stop-color="#b2ded6"/></linearGradient><linearGradient xlink:href="#a" id="d" y1="176.63" y2="176.63" data-name="Dégradé sans nom 30"/><linearGradient xlink:href="#a" id="e" y1="166.13" y2="166.13" data-name="Dégradé sans nom 30"/><linearGradient xlink:href="#a" id="f" x1="109.08" x2="144.55" y1="191.15" y2="191.15" data-name="Dégradé sans nom 30"/><linearGradient xlink:href="#a" id="g" x1="109.08" x2="144.55" y1="180.65" y2="180.65" data-name="Dégradé sans nom 30"/><linearGradient xlink:href="#a" id="h" x1="109.08" x2="144.55" y1="170.15" y2="170.15" data-name="Dégradé sans nom 30"/><linearGradient id="b" x1="2640.44" x2="2640.44" y1="131.93" y2="147.62" data-name="Dégradé sans nom 44" gradientTransform="matrix(-1 0 0 1 2917.97 0)" gradientUnits="userSpaceOnUse"><stop offset="0" stop-color="#fff" stop-opacity="0"/><stop offset=".51" stop-color="#fff"/><stop offset=".97" stop-color="#fff" stop-opacity="0"/></linearGradient><linearGradient xlink:href="#a" id="i" x1="243.82" x2="268.06" y1="170.61" y2="170.61" data-name="Dégradé sans nom 30"/><linearGradient id="j" x1="243.82" x2="250.46" y1="177.92" y2="177.92" data-name="Dégradé sans nom 25" gradientUnits="userSpaceOnUse"><stop offset=".01" stop-color="#7dccc1"/><stop offset=".92" stop-color="#7dccc1"/></linearGradient><linearGradient id="c" x1="249.84" x2="268.06" y1="174.38" y2="174.38" data-name="Dégradé sans nom 16" gradientUnits="userSpaceOnUse"><stop offset="0" stop-color="#03b8aa"/><stop offset="1" stop-color="#00a2a7"/></linearGradient><linearGradient xlink:href="#b" id="k" x1="2740.4" x2="2740.4" y1="179.22" y2="194.91" data-name="Dégradé sans nom 44"/><linearGradient xlink:href="#c" id="l" x1="25.01" x2="55.94" y1="158.17" y2="158.17" data-name="Dégradé sans nom 16"/><linearGradient xlink:href="#a" id="m" x1="25.54" x2="37.35" y1="204.99" y2="204.99" data-name="Dégradé sans nom 30"/><linearGradient xlink:href="#c" id="n" x1="26.36" x2="38.17" y1="205.63" y2="205.63" data-name="Dégradé sans nom 16"/><linearGradient xlink:href="#c" id="o" x1="157.19" x2="165.61" y1="154.57" y2="154.57" data-name="Dégradé sans nom 16"/></defs><g data-name="Layer 1"><path d="M313.27 41.65 1.62 225.97h311.65V41.65z" style="fill:#eff0f0;stroke-width:0"/><path d="M256.43 84.67c1.27-.71 1.9-1.07 3.16-1.79-.3-8.93-.45-13.39-.74-22.32-1.26.73-1.89 1.09-3.16 1.81.29 8.92.44 13.38.74 22.3Zm-4.11 2.32c1.27-.71 1.9-1.07 3.16-1.79-.32-9.67-.64-19.33-.95-29-1.26.73-1.89 1.09-3.15 1.82.31 9.65.63 19.31.94 28.96Zm-4.17 2.36c1.27-.71 1.9-1.07 3.16-1.79-.41-12.55-.81-25.09-1.22-37.64-1.26.73-1.89 1.1-3.15 1.83.4 12.53.81 25.06 1.21 37.59Zm-4.11 2.32c1.27-.71 1.9-1.07 3.16-1.79-.28-8.89-.43-13.33-.71-22.22-1.26.73-1.89 1.09-3.16 1.81l.7 22.19Zm-4.06 2.3c1.27-.71 1.9-1.07 3.16-1.79-.34-10.9-.69-21.79-1.03-32.69-1.26.73-1.89 1.1-3.15 1.83l1.02 32.64Zm-4.11 2.32c1.27-.71 1.9-1.07 3.16-1.79-.46-14.65-.92-29.29-1.37-43.94-1.26.74-1.89 1.1-3.15 1.84.45 14.63.91 29.26 1.36 43.89Zm-4.18 2.35c1.27-.71 1.9-1.07 3.16-1.79-.52-16.94-1.04-33.87-1.57-50.81l-3.15 1.85c.52 16.92 1.03 33.83 1.55 50.75Z" style="fill:#fdd94a;stroke-width:0"/><path d="m189.56 91.79-80.52 46.3V62.93l80.52-46.3v75.16z" style="fill:#fff;opacity:.3;stroke:#231f20;stroke-miterlimit:10;stroke-width:.25px"/><path d="m189.56 21.99-80.52 46.3v-5.36l80.52-46.3v5.36z" style="fill:#fff;stroke:#231f20;stroke-miterlimit:10;stroke-width:.25px"/><ellipse cx="113.13" cy="63.25" rx="1.05" ry=".59" style="fill:#adaeaf;stroke-width:0" transform="rotate(-67.7 113.13 63.253)"/><ellipse cx="111.29" cy="64.31" rx="1.05" ry=".59" style="fill:#686969;stroke-width:0" transform="rotate(-67.7 111.282 64.316)"/><ellipse cx="114.97" cy="62.19" rx="1.05" ry=".59" style="fill:#969696;stroke-width:0" transform="rotate(-67.7 114.965 62.192)"/><path d="m127.21 84.7-10.84 6.23V89.7l10.84-6.23v1.23zm-.01 2.85-10.83 6.23v-1.23l10.83-6.23v1.23zm0 2.78-10.84 6.23v-1.23l10.84-6.23v1.23zm0 2.85-10.84 6.23v-1.23l10.84-6.23v1.23zm-5.2 5.77-5.64 3.24v-1.23l5.64-3.24v1.23z" style="fill:#fff;stroke-width:0"/><path d="M126.76 73.66c.89-3.84-.37-6.79-2.82-6.59l-1.62 6.95 4.44-.36Z" style="fill:#34bcaf;stroke-width:0"/><path d="M123.29 67.19c-1.12.09-2.29.82-3.31 1.94l1.69 5.01 1.62-6.95Z" style="fill:#fff;stroke-width:0"/><path d="m124.75 74.99-3.29.27-4.66 1.61c-.38 3.21.86 5.52 3.04 5.34 2.45-.2 5.17-3.47 6.06-7.31l-1.16.09Z" style="fill:#14af4b;stroke-width:0"/><path d="m121.61 74.1-1.69-5.01c-1.23 1.35-2.26 3.28-2.75 5.37-.1.43-.17.84-.22 1.25l4.66-1.61Zm19.46 2.49-10.84 6.23v-1.23l10.84-6.23v1.23zm0 2.86-10.84 6.22v-1.23l10.84-6.22v1.23zm-.01 2.77-10.83 6.23v-1.23l10.83-6.23v1.23zm0 2.86-10.83 6.22v-1.23l10.83-6.22v1.23zm-5.2 5.76-5.64 3.24v-1.23l5.64-3.24v1.23zm-.29-31.55c-2.8 1.61-5.07 5.99-5.07 9.78s2.27 5.56 5.07 3.95c2.8-1.61 5.07-5.99 5.07-9.78s-2.27-5.56-5.07-3.95Zm0 10.88c-1.64.94-2.97-.09-2.97-2.31s1.33-4.78 2.97-5.72 2.97.09 2.97 2.31-1.33 4.78-2.97 5.72Z" style="fill:#fff;stroke-width:0"/><path d="M138.54 64.45c0 1.18-.38 2.46-.98 3.54l1.41 1.3c1.02-1.85 1.67-4.03 1.67-6.05 0-3.79-2.27-5.56-5.07-3.95v2.85c1.64-.94 2.97.09 2.97 2.31Z" style="fill:#14af4b;stroke-width:0"/><path d="M133.59 68.19v-.17l.16-.3c.38-.71.55-1.07.55-1.37 0-.2-.07-.35-.3-.22-.13.08-.25.24-.32.35l-.06-.16c.1-.18.25-.35.42-.45.32-.18.46.04.46.32 0 .37-.2.79-.51 1.38l-.12.22.67-.38v.23l-.95.55Zm2.17-2.27c0 .69-.19 1.17-.52 1.36-.29.17-.49-.09-.49-.75 0-.68.22-1.17.52-1.35s.49.1.49.74Zm-.81.5c0 .52.12.75.3.65.21-.12.3-.5.3-1.02s-.09-.77-.3-.65c-.18.1-.3.47-.3 1.02Zm1.66-1.41c0 .42-.16.73-.36.84s-.35 0-.35-.41c0-.4.16-.72.36-.84.21-.12.35.02.35.4Zm-.54.33c0 .26.07.41.19.34.13-.08.19-.3.19-.57 0-.25-.05-.42-.19-.34-.13.07-.19.31-.19.57Zm.17 1.36.87-2.59.13-.07-.87 2.59-.13.07Zm1.34-1.42c0 .42-.16.73-.35.84s-.35 0-.35-.4c0-.41.16-.73.36-.84.21-.12.34.02.34.4Zm-.54.33c0 .26.07.41.19.34.13-.08.19-.3.19-.57 0-.24-.05-.42-.19-.34-.13.07-.19.31-.19.57Zm22.88 14.22-15.44 8.87V54.96l15.44-8.87v33.74z" style="fill:#fff;stroke-width:0"/><path d="m157.33 66.99-10.19 5.86v-1.14l10.19-5.86v1.14zm-.01 2.65-10.18 5.86v-1.14l10.18-5.86v1.14zm0 2.58-10.19 5.86v-1.15l10.19-5.85v1.14zm0 2.65-10.19 5.86v-1.15l10.19-5.85v1.14zm-4.89 5.39-5.3 3.04v-1.14l5.3-3.04v1.14z" style="fill:#34bcaf;stroke-width:0"/><path d="m154.73 57.17-1.92 2.86-1.03-.11-2.14 2.57-1.81-.39v-1.28l1.71-.07 1.38-1.67 1.87-3.97 1.13.75 2.72-4.38v6.68l-1.91-.99z" style="fill:#939499;stroke-width:0"/><path d="m149.6 63.61 2.16-2.6 1.11.11 1.82-2.72 1.95 1.01v1l-8.81 5.07v-2.26l1.77.39z" style="fill:#939499;stroke-width:0"/><path d="m177.05 58.86-13 7.46v-1.14l13-7.47v1.15zm-.01 2.66-13 7.46v-1.14l13-7.47v1.15zm0 2.59-13 7.46v-1.14l13-7.47v1.15zm5.12-8.28c0-.05-.01-.1-.04-.12l-.26-.22c-.05-.05-.14 0-.19.11l-1.36 2.79-.94-.82s-.06-.02-.1 0-.07.06-.1.12l-.27.55c-.05.11-.05.24 0 .28l1.3 1.12c.05.04.14 0 .19-.11l1.72-3.54c.03-.05.04-.11.04-.16Zm-5.12 10.94-13 7.47v-1.15l13-7.47v1.15zm-9.63-19.45v11.83l2.5-1.44V45.88l-2.5 1.44z" style="fill:#fff;stroke-width:0"/><path d="M178.34 35.79v17.07l2.5-1.44V34.35l-2.5 1.44z" style="fill:#f05e56;stroke-width:0"/><path d="M174.72 44.27v10.67l2.5-1.44V42.84l-2.5 1.43z" style="fill:#fdd94a;stroke-width:0"/><path d="M170.89 42.19v14.96l2.5-1.44V40.75l-2.5 1.44zm-6.91 14.13v4.8l2.5-1.44v-4.8l-2.5 1.44zm13.05 15.54-13 7.47v-1.15l13-7.46v1.14zm0 2.67-13 7.46v-1.14l13-7.47v1.15zm-.01 2.59-13 7.46v-1.14l13-7.47v1.15zm5.13-8.28c0-.05-.01-.1-.04-.12l-.26-.22c-.05-.05-.14 0-.19.11l-1.36 2.79-.94-.82s-.06-.02-.1 0-.07.06-.1.12l-.27.55c-.05.11-.05.24 0 .28l1.3 1.12c.05.04.14 0 .19-.11L182.1 69c.03-.05.04-.11.04-.16Zm-5.13 10.94-13 7.46V86.1l13-7.47v1.15z" style="fill:#fff;stroke-width:0"/><path d="m160.05 85.12-43.67 25.1v-1.41l43.68-25.1-.01 1.41z" style="fill:#fdd94a;stroke-width:0"/><path d="m136.56 103.29-20.65 11.87v-1.19l20.65-11.87v1.19zm0 2.69-20.66 11.87v-1.19l20.66-11.87v1.19zm0 2.76-20.66 11.87v-1.19l20.66-11.87v1.19z" style="fill:#fff;stroke-width:0"/><path d="m126.65 117.12-10.76 6.17v2.74l10.76-6.18v-2.73z" style="fill:#fdd94a;stroke-width:0"/><path d="m159.92 89.87-20.66 11.87v-1.19l20.66-11.87v1.19zm-.01 2.69-20.65 11.87v-1.19l20.65-11.87v1.19zm0 2.76-20.65 11.87V106l20.65-11.87v1.19z" style="fill:#fff;stroke-width:0"/><path d="m150 103.7-10.75 6.18v2.73l10.75-6.18v-2.73z" style="fill:#fdd94a;stroke-width:0"/><path d="m117.17 81.3-79.42 46.3V52.44l79.42-46.3V81.3z" style="fill:#fff;opacity:.3;stroke:#231f20;stroke-miterlimit:10;stroke-width:.25px"/><path d="M117.17 11.5 37.75 57.8v-5.36l79.42-46.3v5.36z" style="fill:#fff;stroke:#231f20;stroke-miterlimit:10;stroke-width:.25px"/><ellipse cx="41.78" cy="52.76" rx="1.05" ry=".59" style="fill:#adaeaf;stroke-width:0" transform="rotate(-68.22 41.79 52.76)"/><ellipse cx="39.97" cy="53.82" rx="1.05" ry=".59" style="fill:#686969;stroke-width:0" transform="rotate(-68.22 39.971 53.822)"/><ellipse cx="43.6" cy="51.7" rx="1.05" ry=".59" style="fill:#969696;stroke-width:0" transform="rotate(-68.22 43.602 51.705)"/><path d="m93.31 119.22-78.85 46.3V90.35l78.85-46.3v75.17z" style="fill:#fff;opacity:.3;stroke:#231f20;stroke-miterlimit:10;stroke-width:.25px"/><path d="M93.31 49.41 14.46 95.72v-5.37l78.85-46.3v5.36z" style="fill:#fff;stroke:#231f20;stroke-miterlimit:10;stroke-width:.25px"/><ellipse cx="18.46" cy="90.68" rx="1.05" ry=".58" style="fill:#adaeaf;stroke-width:0" transform="rotate(-68.49 18.458 90.675)"/><ellipse cx="16.66" cy="91.74" rx="1.05" ry=".58" style="fill:#686969;stroke-width:0" transform="rotate(-68.49 16.658 91.74)"/><ellipse cx="20.26" cy="89.62" rx="1.05" ry=".58" style="fill:#969696;stroke-width:0" transform="rotate(-68.49 20.264 89.616)"/><path d="M60.13 98.59 20.26 122v-19.33l39.87-23.41v19.33z" style="fill:#fff;stroke-width:0"/><path d="M20.26 122.01 60.13 98.6V84.98l-10.21 15.88-7.1-2.71-5.32 10-9.51-4.3-7.73 14.42v3.74z" style="fill:#34bcaf;stroke-width:0"/><path d="m60.13 104.27-39.39 23.11v-1.23l39.39-23.11v1.23zm-.01 2.86-39.39 23.11v-1.23l39.39-23.11v1.23zm-.01 2.78-39.39 23.11v-1.23l39.39-23.11v1.23zm0 2.85-39.39 23.11v-1.23l39.39-23.11v1.23zm-18.9 13.86L20.7 138.65v-1.23l20.51-12.03v1.23zm40.47-55.07v25.06l-2.05 1.21V72.75l2.05-1.2zm-2.94 6.65v20.14l-2.05 1.21V79.4l2.05-1.2z" style="fill:#fff;stroke-width:0"/><path d="M87.56 64.09v29.07l-2.05 1.21V65.29l2.05-1.2z" style="fill:#34bcaf;stroke-width:0"/><path d="M84.62 79.31v15.58l-2.05 1.2V80.52l2.05-1.21zm-8.89 11.12v9.68l-2.06 1.21v-9.69l2.06-1.2zM67.2 74.6c-1.75 1.03-3.18 3.83-3.18 6.26s1.42 3.56 3.18 2.53 3.18-3.83 3.18-6.26-1.42-3.56-3.18-2.53Zm0 6.97c-1.03.6-1.86-.06-1.86-1.48s.83-3.06 1.86-3.66 1.86.06 1.86 1.48-.83 3.06-1.86 3.66Z" style="fill:#fff;stroke-width:0"/><path d="M67.2 74.6v1.82c1.03-.6 1.86.06 1.86 1.48s-.83 3.06-1.86 3.66v1.82c1.75-1.03 3.18-3.83 3.18-6.26s-1.42-3.56-3.18-2.53Zm-.96 4.41-.16.22-.02-.12.2-.27.11-.06v1.29l-.12.07v-1.13Z" style="fill:#fff;stroke-width:0"/><path d="m67.26 78.4-.36.21-.04.35s.04-.03.08-.05c.07-.04.14-.06.2-.05.07.01.13.09.13.25 0 .25-.14.53-.35.64-.1.06-.19.07-.23.06l.03-.15s.11 0 .2-.05a.5.5 0 0 0 .22-.41c0-.17-.08-.24-.27-.13-.05.03-.09.06-.13.09l.06-.65.45-.26v.15Zm.6-.13c0 .27-.1.47-.22.54s-.22 0-.22-.26.1-.46.23-.54c.13-.08.22.01.22.26Zm-.34.21c0 .17.04.27.12.22.08-.05.12-.19.12-.36 0-.16-.03-.27-.12-.22-.08.05-.12.2-.12.36Zm.11.87.55-1.66.08-.05-.55 1.66-.08.05Zm.84-.91c0 .27-.1.47-.22.54s-.22 0-.22-.26.1-.46.23-.54c.13-.08.22.01.22.26Zm-.34.21c0 .17.04.26.12.22.08-.05.12-.19.12-.36 0-.16-.03-.27-.12-.22-.08.05-.12.2-.12.36Zm-.93 28.13c-1.75 1.03-3.18 3.83-3.18 6.26s1.42 3.56 3.18 2.53c1.75-1.03 3.18-3.83 3.18-6.26s-1.42-3.56-3.18-2.53Zm0 6.97c-1.03.6-1.86-.06-1.86-1.48s.83-3.06 1.86-3.66 1.86.06 1.86 1.48-.83 3.06-1.86 3.66Z" style="fill:#fff;stroke-width:0"/><path d="m68.68 108.75 1.03-1.74c-.58-.69-1.49-.83-2.51-.23v1.82c.6-.35 1.14-.27 1.48.15Zm-2.44 2.44-.16.22-.02-.12.2-.27.11-.06v1.29l-.12.07v-1.13Zm1.08-.17c0 .44-.12.75-.32.87-.18.11-.31-.06-.31-.48 0-.43.13-.75.32-.86s.31.06.31.47Zm-.51.32c0 .34.07.48.19.41.13-.08.19-.32.19-.65s-.06-.49-.19-.41c-.11.06-.19.3-.19.65Zm1.05-.9c0 .27-.1.47-.22.54s-.22 0-.22-.26.1-.46.23-.54c.13-.08.22.01.22.26Zm-.34.21c0 .17.04.27.12.22.08-.05.12-.19.12-.36 0-.16-.03-.27-.12-.22-.08.05-.12.2-.12.36Zm.11.87.55-1.66.08-.05-.55 1.66-.08.05Zm.84-.91c0 .27-.1.47-.22.54s-.22 0-.22-.26.1-.46.23-.54c.13-.08.22.01.22.26Zm-.34.21c0 .17.04.26.12.22.08-.05.12-.19.12-.36 0-.16-.03-.27-.12-.22-.08.05-.12.2-.12.36ZM67.2 85.5c-1.75 1.03-3.18 3.83-3.18 6.26s1.42 3.56 3.18 2.53c1.75-1.03 3.18-3.83 3.18-6.26s-1.42-3.56-3.18-2.53Zm0 6.97c-1.03.6-1.86-.06-1.86-1.48s.83-3.06 1.86-3.66 1.86.06 1.86 1.48-.83 3.06-1.86 3.66Z" style="fill:#fff;stroke-width:0"/><path d="M69.06 88.8c0 .76-.24 1.57-.61 2.26l.88.83c.64-1.18 1.05-2.58 1.05-3.87 0-2.43-1.42-3.56-3.18-2.53v1.82c1.03-.6 1.86.06 1.86 1.48Zm-3.1 2.4v-.11l.1-.19c.24-.45.35-.68.35-.88 0-.13-.05-.23-.19-.14a.74.74 0 0 0-.2.23l-.04-.1c.06-.11.16-.22.26-.29.2-.12.29.02.29.21 0 .24-.12.5-.32.88l-.07.14.42-.24v.14l-.6.35Zm1.36-1.45c0 .44-.12.75-.32.87-.18.11-.31-.06-.31-.48 0-.43.13-.75.32-.86s.31.06.31.47Zm-.51.32c0 .34.07.48.19.41.13-.08.19-.32.19-.65s-.06-.49-.19-.41c-.11.06-.19.3-.19.65Z" style="fill:#fff;stroke-width:0"/><path d="M67.86 89.17c0 .27-.1.47-.22.54s-.22 0-.22-.26.1-.46.23-.54c.13-.08.22.01.22.26Zm-.34.21c0 .17.04.27.12.22.08-.05.12-.19.12-.36 0-.16-.03-.27-.12-.22-.08.05-.12.2-.12.36Zm.11.87.55-1.66.08-.05-.55 1.66-.08.05Zm.84-.91c0 .27-.1.47-.22.54s-.22 0-.22-.26.1-.46.23-.54c.13-.08.22.01.22.26Zm-.34.21c0 .17.04.26.12.22.08-.05.12-.19.12-.36 0-.16-.03-.27-.12-.22-.08.05-.12.2-.12.36Zm-.93 6.58c-1.75 1.03-3.18 3.83-3.18 6.26s1.42 3.56 3.18 2.53 3.18-3.83 3.18-6.26-1.42-3.56-3.18-2.53Zm0 6.97c-1.03.6-1.86-.06-1.86-1.48s.83-3.06 1.86-3.66 1.86.06 1.86 1.48-.83 3.06-1.86 3.66Z" style="fill:#fff;stroke-width:0"/><path d="M67.2 96.13v1.82c1.03-.6 1.86.06 1.86 1.48l1.32-.77c0-2.43-1.42-3.56-3.18-2.53Zm-1.21 5.49s.12.01.21-.04c.16-.1.21-.27.21-.37 0-.18-.12-.19-.24-.12l-.07.04V101l.07-.04c.09-.05.21-.19.21-.34 0-.1-.05-.17-.16-.1-.07.04-.15.13-.19.19l-.03-.11c.05-.08.14-.18.24-.24.18-.11.27 0 .27.15 0 .13-.06.28-.17.4.11-.03.21.03.21.21 0 .21-.12.46-.34.59-.1.06-.2.07-.24.06l.03-.16Zm1.1-.44v-.35l-.43.25v-.12l.42-1.07.14-.08v.8l.13-.08v.14l-.13.08v.35l-.12.07Zm0-.49v-.64c-.03.09-.05.16-.08.24l-.23.57.31-.18Zm.77-.89c0 .27-.1.47-.22.54s-.22 0-.22-.26.1-.46.23-.54c.13-.08.22.01.22.26Zm-.34.21c0 .17.04.27.12.22.08-.05.12-.19.12-.36 0-.16-.03-.27-.12-.22-.08.05-.12.2-.12.36Zm.11.87.55-1.66.08-.05-.55 1.66-.08.05Zm.84-.91c0 .27-.1.47-.22.54s-.22 0-.22-.26.1-.46.23-.54c.13-.08.22.01.22.26Zm-.34.21c0 .17.04.26.12.22.08-.05.12-.19.12-.36 0-.16-.03-.27-.12-.22-.08.05-.12.2-.12.36Zm15.34 8.91c0 1-.2 2.06-.55 3.07l2.23.56c.59-1.69.93-3.47.93-5.16l-2.61 1.53Z" style="fill:#fff;stroke-width:0"/><path d="M77 120.98c.79.02 1.67-.23 2.59-.77 2.34-1.37 4.42-4.25 5.55-7.5l-2.23-.56c-.67 1.93-1.93 3.63-3.32 4.44-.55.32-1.07.47-1.54.46L77 120.97Z" style="fill:#14af4b;stroke-width:0"/><path d="m77.01 120.97 1.06-3.92c-.87-.03-1.57-.58-1.95-1.56l-2.39 2.86c.65 1.64 1.82 2.58 3.28 2.62Zm-3.28-2.63 2.39-2.86c-.21-.53-.33-1.19-.33-1.95s.18-1.95.5-2.91l-2.27-.45c-.53 1.61-.84 3.29-.84 4.89 0 1.28.2 2.39.55 3.28Z" style="fill:#fff;stroke-width:0"/><path d="m78.43 107.01-.83-2.94c-1.53 1.59-2.81 3.8-3.6 6.17l2.27.45c.47-1.41 1.24-2.73 2.15-3.67Z" style="fill:#fff;stroke-width:0"/><path d="M79.63 102.42c-.71.42-1.39.98-2.03 1.65l.82 2.94c.38-.4.79-.73 1.21-.98 2.12-1.24 3.84.12 3.84 3.06l2.61-1.53c0-4.93-2.89-7.22-6.45-5.13Z" style="fill:#f05e56;stroke-width:0"/><path d="m61.21 122.88-10.53 6.17v2.74l10.53-6.18v-2.73z" style="fill:#14af4b;stroke-width:0"/><path d="m136.27 204.4-20.38-11.66v-7l20.38 11.66v7z" style="fill:#58516f;stroke-width:0"/><path d="m151.36 188.62-20.46-11.75-15.01 8.87 20.38 11.66 15.09-8.78z" style="fill:url(#a);stroke-width:0"/><path d="m126 196.55-2.1-1.25v-2.41l2.1 1.25v2.41zm4.24 2.41-2.1-1.25v-2.41l2.1 1.25v2.41zm3.97 2.18-2.1-1.25v-2.41l2.1 1.25v2.41z" style="fill:#e8ebec;stroke-width:0"/><path d="m136.27 193.9-20.38-11.67v-7l20.38 11.67v7z" style="fill:#58516f;stroke-width:0"/><path d="m151.36 178.12-20.46-11.75-15.01 8.86 20.38 11.67 15.09-8.78z" style="fill:url(#d);stroke-width:0"/><path d="m126 186.05-2.1-1.25v-2.41l2.1 1.24v2.42zm4.24 2.41-2.1-1.25v-2.41l2.1 1.25v2.41zm3.97 2.18-2.1-1.25v-2.41l2.1 1.24v2.42z" style="fill:#e8ebec;stroke-width:0"/><path d="m136.27 183.4-20.38-11.67v-7l20.38 11.67v7z" style="fill:#58516f;stroke-width:0"/><path d="m151.36 167.62-20.46-11.76-15.01 8.87 20.38 11.67 15.09-8.78z" style="fill:url(#e);stroke-width:0"/><path d="m126 175.54-2.1-1.24v-2.41l2.1 1.24v2.41zm4.24 2.42-2.1-1.25v-2.41l2.1 1.24v2.42zm3.97 2.17-2.1-1.24v-2.41l2.1 1.24v2.41z" style="fill:#e8ebec;stroke-width:0"/><path d="m129.46 208.42-20.38-11.67v-7l20.38 11.67v7zm21.9-19.8-15.09 8.78v.06l-6.81 3.96v7l15.09-8.78v-.06l6.81-3.96v-7z" style="fill:#14af4b;stroke-width:0"/><path d="m144.55 192.63-20.45-11.75-15.02 8.87 20.38 11.67 15.09-8.79z" style="fill:url(#f);stroke-width:0"/><path d="m119.2 200.56-2.1-1.24v-2.41l2.1 1.24v2.41zm4.23 2.41-2.1-1.24v-2.41l2.1 1.24v2.41zm3.98 2.18-2.1-1.24v-2.41l2.1 1.24v2.41z" style="fill:#3b2c81;stroke-width:0"/><path d="m129.46 197.92-20.38-11.67v-7l20.38 11.67v7z" style="fill:#14af4b;stroke-width:0"/><path d="M280.25 125.92s.05-.07.07-.11v.02l-.06.09Z" style="fill:#241f1b;stroke-width:0"/><path d="M273.88 111.93c.03.22.07.45.11.67s-.07-.2-.07-.2c-.01-.15-.03-.31-.04-.47Z" style="fill:#1c171b;stroke-width:0"/><path d="M273.85 115.09zm-.13-1.63s-.03.06-.05.09v-.1c.02 0 .04 0 .06.01Z" style="fill:#1c1621;stroke-width:0"/><path d="M277.1 96.77c-.1 0-.19-.15-.28-.17.13-.01.25-.04.37-.07h.1c-.02.04-.09.09-.19.16v.08Zm0 .09v.17c0-.02-.02-.04-.03-.07v-.1h.03Zm0 .17c.04.14.04.27 0 .4v-.4Zm-.12.61c.05-.07.09-.14.11-.21v.14c-.04.02-.07.05-.11.07Z" style="fill:#35234e;stroke-width:0"/><path d="M276.82 96.6h-.04.04Zm-.04 0z" style="fill:#ebf7fd;stroke-width:0"/><path d="M276.65 96.58c-.12.02-.25.04-.38.07a.36.36 0 0 0-.11.02l-.39.09c.34-.11.63-.31.81-.46 0 .08.04.17.07.28Z" style="fill:#f9ad78;stroke-width:0"/><path d="M275.94 96.96c-.09.05-.18.09-.27.13.09-.04.18-.09.27-.13Zm.37-.17c.17-.07.32-.13.47-.19s.02 0 .04 0c.09.02.18.17.28.17v.09h-.02c-.32.07-.79.29-1.28.52-.08.04-.17.08-.26.12.27-.26.53-.51.77-.71Z" style="fill:#ebf7fd;stroke-width:0"/><path d="M277.38 125.47c.77.88 2.11 1.09 2.73.58a.8.8 0 0 0 .13-.13c-.04.06-.09.11-.15.15-.59.47-1.86.32-2.69-.5 0-.03-.02-.06-.02-.1Z" style="fill:#241f1b;stroke-width:0"/><path d="M277.36 125.45c-.06-.25-.04-.61-.12-1.1.02 0 .04-.01.06-.02.12.45.04.87.07 1.13l-.02-.02Z" style="fill:#191717;stroke-width:0"/><path d="M274.15 97.1c-.05-.26-.18-.64-.23-.94v-.07c.15.03.23-.07.27-.22h.03c.15.23.33.59.48.85.24.14.5.16.76.12-.45.12-.88.27-1.28.47-.01-.07-.02-.13-.04-.19Z" style="fill:#f9ad78;stroke-width:0"/><path d="m274.52 95.23.03.03c-.02.09-.04.17-.06.24.01-.11.02-.2.03-.27Z" style="fill:#3c1a12;stroke-width:0"/><path d="M275.52 97.52c-.29.14-.57.28-.83.39.12-.05.25-.1.37-.17.15-.07.31-.15.48-.23 0 0 0 .01-.02.02Zm-.84.37-.15.06c-.02-.04-.04-.09-.06-.14.04-.03.09-.06.13-.09.02.06.05.12.08.17Z" style="fill:#ebf7fd;stroke-width:0"/><path d="M274.43 95.71s.02.02.03.02c0 .09-.01.17-.01.25-.01-.11-.02-.2-.02-.27Z" style="fill:#3c1a12;stroke-width:0"/><path d="m274.69 97.9-.15.06v-.02l.15-.06Z" style="fill:#ebf7fd;stroke-width:0"/><path d="M274.47 97.81c.36-.27.78-.51 1.2-.72.09-.03.18-.08.27-.13.13-.06.25-.11.37-.16-.23.2-.5.45-.77.71-.17.08-.34.15-.48.23-.13.06-.25.12-.37.17a.886.886 0 0 1-.08-.17s-.09.06-.13.09Z" style="fill:#ebf7fd;stroke-width:0"/><path d="M274.25 97.69c-.03-.12-.04-.26-.07-.39.41-.2.83-.35 1.28-.47.1-.03.19-.05.29-.07.13-.03.27-.06.39-.09.04 0 .08-.01.11-.02-.24.05-.49.11-.69.19-.45.16-1.22.76-1.32.84Z" style="fill:#f9ad78;stroke-width:0"/><path d="M274.14 98.08c.06-.06.13-.11.2-.17.04-.03.09-.06.13-.09.02.05.04.1.06.14-.13.05-.26.09-.39.13Z" style="fill:#ebf7fd;stroke-width:0"/><path d="M274.07 98.1c.09-.06.18-.13.27-.19l-.2.17c-.02 0-.05.01-.07.02Z" style="fill:#ebf7fd;stroke-width:0"/><path d="M274.01 96.66z" style="fill:#f9ad78;stroke-width:0"/><path d="M274.01 96.66v.11c-.02-.04-.03-.08-.05-.12h.04Z" style="fill:#f58c52;stroke-width:0"/><path d="M274.2 95.86c-.04.15-.12.26-.27.22h-.02v-.07l-.05-.1c0-.07-.01-.16-.02-.25-.02-.29-.02-.63 0-.81.12-.14.54-.12.47.24-.04.19-.03.54-.09.77Z" style="fill:#f79d5f;stroke-width:0"/><path d="M274.14 98.08c.14-.04.26-.08.39-.13v.02c-.19.08-.36.13-.5.16l.02-.02s.01 0 .02-.01c.02 0 .05-.01.07-.02Zm2.13-1.42c.19-.04.38-.06.53-.08v.03h-.02c-.15.06-.3.12-.47.19-.12.05-.24.11-.37.16-.09.04-.18.08-.27.13-.42.21-.84.45-1.2.72-.04.03-.09.06-.13.09-.09.06-.18.13-.27.19 0 0-.01 0-.02.01.02-.03.04-.05.05-.08.06-.11.08-.21.13-.33h.01c.1-.08.87-.68 1.32-.84.2-.08.45-.14.69-.18Z" style="fill:#ebf7fd;stroke-width:0"/><path d="M274.07 96.94c-.02-.09-.04-.18-.06-.28-.03-.16-.07-.31-.1-.46v-.05c.05.3.18.69.23.94.01.06.03.13.04.19-.02-.11-.08-.22-.11-.35Z" style="fill:#f9ad78;stroke-width:0"/><path d="M273.93 96.09v.07c0-.02 0-.05-.01-.07h.02Zm-.02.11-.03-.12h.02c0 .02 0 .05.01.07v.05Z" style="fill:#f79d5f;stroke-width:0"/><path d="M274.04 98.13h-.02c.01 0 .02-.02.03-.02l-.02.02Z" style="fill:#ebf7fd;stroke-width:0"/><path d="m275.83 124.07-.02.01.02-.01z" style="fill:#8a4c20;stroke-width:0"/><path d="M273.85 95.91c-.02-.11-.04-.2-.05-.27.01 0 .02.01.04.02 0 .09.01.17.02.25Z" style="fill:#f79d5f;stroke-width:0"/><path d="M273.87 96.39s.02.08.03.11a.793.793 0 0 0-.04-.09v-.02Z" style="fill:#f58c52;stroke-width:0"/><path d="M275.81 124.08z" style="fill:#8a4c20;stroke-width:0"/><path d="m274.01 96.66.06.28c-.32-.03-.57-.1-.66-.25.1.05.39-.11.46-.28.01.03.03.06.04.09 0-.04-.02-.07-.03-.11v-.01c0-.04.02-.1.04-.18.03.15.06.3.1.46h-.04c.02.04.03.08.05.12v-.11Z" style="fill:#f58c52;stroke-width:0"/><path d="M273.87 96.41c-.03-.06-.05-.11-.07-.16.01 0 .03 0 .04.01l.03.13v.02Z" style="fill:#f79d5f;stroke-width:0"/><path d="M280.25 125.92c-.04.06-.09.11-.15.15-.59.47-1.86.32-2.69-.5 0-.03-.02-.06-.02-.1l-.02-.02c-.06-.25-.04-.61-.12-1.1-.25.07-.59.2-.87.08-.17-.07-.37.05-.53.11-.16.06-.2.11-.25.28-.02.17-.06.59.03.81.54.43 1.35.85 2.01 1.15.04-.44.59.11.69.29.18.07.32.11.37.12 0 0 .66.29 1.13.17.35-.09.42-.24.44-.32s0-.03 0-.04c.02-.19.03-.37.04-.54.01-.23.01-.45.01-.65l-.06.09Z" style="fill:#d9dfeb;stroke-width:0"/><path d="M273.16 94.22c.1.28.42.68.43 1.3l.21.12c.01.07.03.16.05.27l.05.1v.07h-.02c0 .04.02.08.03.12-.01.07-.03.14-.04.18v.01c-.01-.04-.02-.08-.03-.13-.01 0-.03 0-.04-.01.02.04.04.1.07.16-.07.17-.36.33-.46.28-.13-.15-.28-1.02-.39-1.45-.06-.26-.15-.44-.13-.68.03-.39.1-.41-.06-.7 0 0 0-.15.03-.37.03.02.06.05.09.07h.02c.04.23.13.41.22.66Z" style="fill:#f79d5f;stroke-width:0"/><path d="M274.45 95.98c0-.07 0-.16.01-.25-.01 0-.02-.02-.03-.02 0 .07.01.16.02.27Zm2.29.12s-.06.11-.17.2c-.18.15-.48.35-.81.46-.1.02-.19.05-.29.07-.26.04-.52.02-.76-.12-.16-.26-.33-.62-.48-.84h-.03c.07-.24.05-.59.09-.78.07-.36-.35-.38-.47-.24-.02.18 0 .52 0 .81-.01 0-.02-.01-.04-.02l-.21-.12c0-.62-.33-1.02-.43-1.3-.09-.25-.17-.43-.22-.66h-.02s-.06-.04-.09-.07c-.1-.09-.18-.18-.24-.27-.04-1.73 2.5-2.67 3.99-1.83.75.42 1.4 1.24 1.2 1.98-.21.77-.52 1.64-.81 2.31-.1.14-.23.29-.24.42Zm-2.19-.83-.03-.03c0 .07-.02.16-.03.27.02-.07.04-.15.06-.24Z" style="fill:#c4775a;stroke-width:0"/><path d="M271.69 113.67c-.02.05-.04.11-.05.16a.67.67 0 0 0-.2 0v-.35c.07.07.16.14.25.2Z" style="fill:#1c1621;stroke-width:0"/><path d="M271.39 113.42c-.02-.31-.05-.62-.08-.94.04.03.09.07.14.1 0 .29-.01.59-.02.89-.02-.01-.03-.03-.05-.05Z" style="fill:#22192f;stroke-width:0"/><path d="M278.81 111.41s.16-.55.25-.83c0-.13.03-.26.05-.39l.02-.02c.06.06.14.11.22.15a1.393 1.393 0 0 0 1.21-.05c.01.05.02.1.03.14.03.23 0 .46-.06.67 0 .02 0 .03-.01.05-.04.15-.1.3-.15.42-.19.89-1.14 1.03-1.55 1.08-.07-.11-.09-1.17 0-1.21Z" style="fill:#f9ad78;stroke-width:0"/><path d="M280.47 110.67c-.48.14-1.08-.25-1.49-.5-.09-.06-.18-.12-.25-.2 0-.3.03-.29.04-.58.64.42 1.52.67 2.14.85.02 0 .04.01.06.02v.1c-.04.06-.1.11-.17.16-.09.06-.19.11-.3.14-.01 0-.03 0-.04.01Z" style="fill:#fff;stroke-width:0"/><path d="M280.07 120.89c-.08-1.12-.5-6.22-.54-7.52-.03-.95-.06-1.91-.11-2.81s-.04.04-.06.06c-.04.04-.08.07-.13.11-.02.01-.03.03-.05.04l-.01.01-.21.18c-.04.03-.08.06-.12.1-.03.03-.07.05-.1.08-.07.06-.15.12-.22.18-.26.2-.51.39-.76.58-.04.03-.07.05-.1.08-.06.05-.13.1-.19.15-.15.12-.31.24-.48.36-.15.11-.3.21-.45.31-.03.2-.06.22-.05.03v-.03c-.44.26-.9.49-1.37.61-.02 0-.03 0-.05.01v-.2l-3.67-.43c-.02 1.65-.11 12.58-.15 14.45 0 .17 0 .34-.01.48v.01c-.03.81-.13 1.18-.13 1.18s0 .01.01.02c.41.88 2.05 1.75 2.86 1.43.17-.07.31-.19.39-.38.06-.14.08-.32.07-.54 0-.08-.02-.18-.04-.27.01-.75.26-9.17.49-11.1.05-.42.13-1.14.17-1.54.2.08.4.16.58.23l.25.52 1.18 5.95c.06.35.11.68.17.98 0 .05.02.09.02.14.02 0 .04-.01.06-.02.12.45.04.87.07 1.13.77.88 2.11 1.09 2.73.58a.8.8 0 0 0 .13-.13c.02-.03.05-.07.07-.11v.02l.03-.06c.09-.16.13-.35.13-.58-.13-.66-.26-2.41-.4-4.3Zm-5.21-4.38v-.05s.03.01.04.02c.01 0 .03.01.04.02l-.08.02Z" style="fill:#005b70;stroke-width:0"/><path d="M273.97 130.36c-.81.32-2.45-.55-2.86-1.43-.3.06-.31-.01-.61-.08-.18-.04-.14-.11-.39-.08-.14.02-.35.08-.48.18-.08.05-.12.12-.12.19v.06c0 .07 0 .15.01.23.01.18.03.39.04.53.39.36 1.44.83 2.25 1.15.02-.43.6.08.74.27.13.04.23.07.28.07 0 0 .69.27 1.14.15.34-.08.41-.23.42-.3s0-.03 0-.04v-.51c0-.28-.02-.54-.04-.78-.08.19-.21.31-.39.38Z" style="fill:#d9dfeb;stroke-width:0"/><path d="M280.71 99.59c0-.23 0-.45-.02-.67s-.04-.43-.07-.64v-.08c-.06-.37-.13-.72-.24-1.05-.02-.02-.03-.04-.05-.07-.31-.36-1.03-.7-1.65-.67-.04 0-.74.12-1.13.18-.06-.04-.17-.07-.25-.1v.02c-.02.04-.09.09-.19.16v.34c0-.02-.02-.04-.03-.07v-.1c-.31.07-.78.29-1.27.52-.09.04-.18.09-.27.13-.29.14-.57.28-.83.39l-.15.06c-.19.08-.36.13-.5.16h-.02c-.07.05-.15.11-.23.16a.55.55 0 0 0-.09.07c-.18.13-.36.26-.54.4-.09.07-.19.14-.28.21-.11.09-.22.17-.33.26-.4.31-.78.63-1.13.96-.03.03-.07.06-.1.09l.02.02s-.06.08-.09.13c-.1.17-.18.35-.25.54-.01.03-.02.07-.03.11-.03.06-.05.12-.07.18 0 .01-.01.03-.01.04a5.398 5.398 0 0 0-.2 1.16c0 .11-.01.21-.02.32v.33c.02 1.08.23 2.18.4 3.23.02.16.06.31.09.46-.17 1.29-.12 2.63-.01 3.94-.09.45-.2.86-.33 1.21.12.2.28.37.49.52.04.03.09.07.14.1.64.42 1.52.67 2.14.85.02 0 .04.01.06.02.02 0 .04 0 .06.01.15.04.31.06.47.06.31.01.62-.03.93-.11.47-.13.94-.35 1.37-.61v.03c.02 0 .03-.02.05-.03v-.03c.19-.12.38-.25.56-.38.16-.11.31-.23.46-.34l.18-.15.1-.07c.24-.18.48-.36.72-.55.07-.06.14-.11.21-.17.02-.02.04-.03.06-.05.04-.03.08-.06.12-.1l.21-.18.01-.01c.02-.01.03-.03.05-.04.04-.04.08-.08.13-.11l.06-.06c.1-.1.21-.19.3-.29l-.03-.06c.32.08.68.09.99 0 .01 0 .03 0 .04-.01.11-.04.21-.08.3-.14.07-.04.13-.1.17-.16v-.1c-.09-1.13.05-2.66-.08-3.76-.02-.15-.04-.45-.06-.86-.08-1.35-.21-3.85-.32-5.57Zm-7.96 1.63c.01.02.03.05.04.07-.01-.02-.03-.04-.04-.07Zm.86 8.1c.04.5.1.99.13 1.42-.03-.43-.09-.92-.13-1.42Zm.37 3.28-.07-.2c-.01-.15-.03-.31-.04-.47.03.22.07.45.11.67Zm3.1-15.18v.14c-.04.02-.07.05-.11.07.05-.07.09-.14.11-.21v-.4c.04.14.04.27 0 .4Z" style="fill:#535ca8;stroke-width:0"/><path d="M271.15 114.16s.16-.55.25-.83c0-.13.03-.26.05-.39l.02-.02c.06.06.14.11.22.15a1.393 1.393 0 0 0 1.21-.05c.01.05.02.1.03.14.03.23 0 .46-.06.67 0 .02 0 .03-.01.05-.04.15-.1.3-.15.42-.19.89-1.14 1.03-1.55 1.08-.07-.11-.09-1.17 0-1.21Z" style="fill:#f9ad78;stroke-width:0"/><path d="M272.99 113.72c-.48.14-1.08-.25-1.49-.5-.09-.06-.18-.12-.25-.2 0-.3.03-.29.04-.58.64.42 1.52.67 2.14.85.02 0 .04.01.06.02v.1c-.04.06-.1.11-.17.16-.09.06-.19.11-.3.14-.01 0-.03 0-.04.01Z" style="fill:#fff;stroke-width:0"/><path d="m151.36 178.12-15.09 8.78v.06l-6.81 3.96v7l15.09-8.79v-.05l6.81-3.96v-7z" style="fill:#14af4b;stroke-width:0"/><path d="m144.55 182.13-20.45-11.75-15.02 8.87 20.38 11.67 15.09-8.79z" style="fill:url(#g);stroke-width:0"/><path d="m119.2 190.06-2.1-1.24v-2.41l2.1 1.24v2.41zm4.23 2.41-2.1-1.24v-2.41l2.1 1.24v2.41zm3.98 2.18-2.1-1.24V191l2.1 1.24v2.41z" style="fill:#3b2c81;stroke-width:0"/><path d="m129.46 187.42-20.38-11.67v-7l20.38 11.67v7zm21.9-19.8-15.09 8.78v.05l-6.81 3.97v7l15.09-8.79v-.05l6.81-3.96v-7z" style="fill:#14af4b;stroke-width:0"/><path d="m144.55 171.63-20.45-11.75-15.02 8.87 20.38 11.67 15.09-8.79z" style="fill:url(#h);stroke-width:0"/><path d="m119.2 179.56-2.1-1.24v-2.42l2.1 1.25v2.41zm4.23 2.41-2.1-1.24v-2.41l2.1 1.24v2.41zm3.98 2.18-2.1-1.24v-2.42l2.1 1.25v2.41z" style="fill:#3b2c81;stroke-width:0"/><path d="m143.9 167.97-13.66-7.85-13.94 8.19 13.61 7.79 13.99-8.13z" style="fill:#14af4b;stroke-width:0"/><path d="m226.9 118.35 8.63 4.95V83.74l-8.63-5.05v39.66z" style="fill:#535ca8;stroke-width:0"/><path d="m242.47 119.24-6.94 4.06V83.74l6.94-4.16v39.66z" style="fill:#3b2c81;stroke-width:0"/><path d="m226.9 78.69 6.94-4.02 8.63 4.91-6.94 4.16-8.63-5.05z" style="fill:#34bcaf;stroke-width:0"/><path d="m240.83 126.44 8.64 4.97V104.1l-8.64-5.06v27.4z" style="fill:#535ca8;stroke-width:0"/><path d="m256.42 127.34-6.95 4.07V104.1l6.95-4.17v27.41z" style="fill:#3b2c81;stroke-width:0"/><path d="m240.83 99.04 6.95-4.02 8.64 4.91-6.95 4.17-8.64-5.06z" style="fill:#34bcaf;stroke-width:0"/><path d="m254.81 134.46 8.69 5v-21.25l-8.69-5.1v21.35z" style="fill:#535ca8;stroke-width:0"/><path d="m270.5 135.36-7 4.1v-21.25l7-4.2v21.35z" style="fill:#3b2c81;stroke-width:0"/><path d="m254.81 113.11 6.99-4.05 8.7 4.95-7 4.2-8.69-5.1z" style="fill:#34bcaf;stroke-width:0"/><path d="m268.81 142.59 8.75 5.03v-15.69l-8.75-5.13v15.79z" style="fill:#535ca8;stroke-width:0"/><path d="m284.6 143.49-7.04 4.13v-15.69l7.04-4.23v15.79z" style="fill:#3b2c81;stroke-width:0"/><path d="m268.81 126.8 7.04-4.08 8.75 4.98-7.04 4.23-8.75-5.13z" style="fill:#34bcaf;stroke-width:0"/><path d="M277.5 131.93h.06v15.69h-.06z" style="fill:url(#b);stroke-width:0"/><path d="m268.06 169.94-22.86 15.32c-.66.29-1.38-.12-1.38-.75v-17.82c0-.63.58-1.24 1.17-1.56l16.06-9.03c.63-.29.93-.39 1.82.22l4.45 2.79c.42.25.68.36.68 1.24-.02 4.27.07 9.59.07 9.59Z" style="fill:url(#i);stroke-width:0"/><path d="m243.82 185.09 6.64 4.28-.62-19.35-6.02-3.54v18.61z" style="fill:url(#j);stroke-width:0"/><path d="m267 180.13-15.92 9.22c-.6.27-1.25-.28-1.25-.86v-18.18c0-.57.53-1.13 1.06-1.43l16.77-9.54c.46.48.31.98.31 1.56l.09 17.8c0 .57-.4 1.12-1.06 1.43Z" style="fill:url(#c);stroke-width:0"/><path d="M261.06 173.57c.82-1.4.75-2.95-.14-3.46-.9-.51-2.29.21-3.11 1.61-.82 1.4-.75 2.95.14 3.46.15.08.3.13.47.15l-.28 4.23 3.25-1.64-.72-3.79c.14-.17.27-.36.39-.56Z" style="fill:#58536f;stroke-width:0"/><path d="M257.38 147.57c-.66 0-1.37.14-2.1.46-3.5 1.52-6.34 6.35-6.34 10.77v7.77l.86.41 1.35-1.52v-7.51c0-3.06 1.92-6.41 4.28-7.46.48-.21.94-.31 1.36-.32 1.67.05 2.87 1.57 2.87 3.96v6.32l.05-.03v.03l.81.26 1.09-1.37v-6.05c0-3.54-1.78-5.75-4.23-5.71Z" style="fill:#30313e;stroke-width:0"/><path d="M258.24 147.83c-.66 0-1.37.14-2.1.46-3.5 1.52-6.34 6.35-6.34 10.77v7.92l.31-.15 1.9-1.11v-7.51c0-3.06 1.92-6.41 4.28-7.46.48-.21.94-.31 1.36-.32 1.67.05 2.87 1.57 2.87 3.96v6.32l.05-.03v.03l1.9-1.11v-6.05c0-3.54-1.78-5.75-4.23-5.71Z" style="fill:#58536f;stroke-width:0"/><path d="m163.49 187.07 14.1 7.84v-15.69l-14.1-7.94v15.79zm26.07.77-11.97 7.07v-15.69l11.97-7.17v15.79z" style="fill:#14af4b;stroke-width:0"/><path d="m163.49 171.28 12.3-7.06 13.77 7.83-11.97 7.17-14.1-7.94z" style="fill:#34bcaf;stroke-width:0"/><path d="M177.54 179.22h.06v15.69h-.06z" style="fill:url(#k);stroke-width:0"/><path d="m255.42 76.86 14.09 7.84V69.01l-14.09-7.94v15.79zm26.06.77-11.97 7.07V69.01l11.97-7.17v15.79z" style="fill:#14af4b;stroke-width:0"/><path d="M255.42 61.07 267.71 54l13.77 7.84-11.97 7.17-14.09-7.94z" style="fill:#34bcaf;stroke-width:0"/><path d="M269.46 69.01h.06V84.7h-.06z" style="fill:#14af4b;stroke-width:0"/><path d="m99.38 130.26-23.74 14.26v20.36l23.74-14.27v-20.35z" style="fill:#fff;stroke:#231f20;stroke-miterlimit:10;stroke-width:.25px"/><path d="m99.48 150.45-11.88-6.51-11.87 20.79 23.75-14.28z" style="fill:#aab1ae;stroke:#231f20;stroke-miterlimit:10;stroke-width:.25px"/><path d="m99.42 150.48-11.82-5.95-11.81 20.17 23.63-14.22z" style="fill:#fff;stroke:#231f20;stroke-miterlimit:10;stroke-width:.25px"/><path d="M99.47 130.29 87.6 151.08l-11.88-6.51 23.75-14.28z" style="fill:#aab1ae;stroke:#231f20;stroke-miterlimit:10;stroke-width:.25px"/><path d="M99.41 130.33 87.6 149.24l-11.82-4.7 23.63-14.21z" style="fill:#fff;stroke:#231f20;stroke-miterlimit:10;stroke-width:.25px"/><path d="M209.18 60.07c.17-.73.28-1.46.32-2.17.24-4.76-2.75-7.01-6.69-5.03-3.2 1.61-6.04 5.51-7.13 9.47-.85-.24-1.9-.07-3.05.59-2.82 1.63-5.1 5.59-5.1 8.85 0 .51.06.97.16 1.38-2.31 1.75-4.09 5.16-4.09 8.04s2.15 4.51 4.8 2.98c.31-.18.61-.39.91-.63l18.7-10.8c.31-.11.64-.27.97-.46 2.89-1.67 5.23-5.73 5.23-9.08 0-3.27-2.23-4.64-5.02-3.15Z" style="fill:#ebebeb;stroke:#231f20;stroke-miterlimit:10;stroke-width:.25px"/><path d="M192.91 82.71h-7.12v2.1l3.56 1.6 3.56-3.7zm16.22-27.78h-2.65v-2.66l4.75 1.94-2.1.72z" style="fill:#ebebeb;stroke-width:0"/><path d="M213.06 61.66c.17-.73.28-1.46.32-2.17.24-4.76-2.75-7.01-6.69-5.03-3.2 1.61-6.04 5.51-7.13 9.47-.85-.24-1.9-.07-3.05.59-2.82 1.63-5.1 5.59-5.1 8.85 0 .51.06.97.16 1.38-2.31 1.75-4.09 5.16-4.09 8.04s2.15 4.51 4.8 2.98c.31-.18.61-.39.91-.63l18.7-10.8c.31-.11.64-.27.97-.46 2.89-1.67 5.23-5.73 5.23-9.08 0-3.27-2.23-4.64-5.02-3.15Z" style="fill:#fff;stroke:#231f20;stroke-miterlimit:10;stroke-width:.25px"/><path d="m55.94 161.02-30.49 17.86-.44-23.71 30.93-17.7v23.55z" style="fill:url(#l);stroke-width:0"/><path d="m55.94 164.92-30.49 17.86-.44-23.71 30.93-17.7v23.55z" style="fill:#f7fbf8;stroke-width:0"/><path d="m46.67 152-19.05 11.16-.27-1.11 19.32-11.06V152zm0 2.67-19.05 11.15-.27-1.11 19.32-11.05v1.01z" style="fill:#bccdd1;stroke-width:0"/><path d="m54.05 151.29-6.22 3.64-.09-4.84 6.31-3.61v4.81z" style="fill:#68c6c2;stroke-width:0"/><path d="m46.67 157.52-19.05 11.15-.27-1.11 19.32-11.05v1.01zm0 2.66-19.05 11.16-.27-1.11 19.32-11.06v1.01z" style="fill:#bccdd1;stroke-width:0"/><path d="m54.05 157.66-6.22 3.64-.09-4.84 6.31-3.61v4.81z" style="fill:#68c6c2;stroke-width:0"/><path d="m46.67 164.51-19.05 11.16-.27-1.11 19.32-11.06v1.01z" style="fill:#bccdd1;stroke-width:0"/><ellipse cx="28.89" cy="154.95" rx="1" ry=".68" style="fill:#f7fbf8;stroke-width:0" transform="rotate(-61.73 28.894 154.95)"/><ellipse cx="26.53" cy="156.15" rx="1" ry=".68" style="fill:#f7fbf8;stroke-width:0" transform="rotate(-61.73 26.54 156.155)"/><ellipse cx="31.09" cy="153.73" rx="1" ry=".68" style="fill:#f7fbf8;stroke-width:0" transform="rotate(-61.73 31.092 153.744)"/><path d="m257.38 40.62 17.18-10.85c1.31-.7 2.39-2.39 2.39-4.16V10.54c0-1.77-1.07-3.75-2.92-2.71l-17.61 10.88c-1 .75-1.9 2.17-1.9 3.94v15.07c0 2.26 1.41 3.77 2.87 2.9Z" style="fill:#1baab4;stroke-width:0"/><path d="m260.29 43.25-.14-6.28 1.66-1.4.03 8.11-1.55-.43zm16.86-34.73-1.59-.86-.47 1.24 1.6.84.46-1.22zm-18.97 31.89-2.02-1.05-.47 1.23 2.02 1.06.47-1.24z" style="fill:#14af4b;stroke-width:0"/><path d="m258.91 41.43 17.18-10.85c1.31-.7 2.39-2.39 2.39-4.16V11.35c0-1.77-1.07-3.75-2.92-2.71l-17.61 10.88c-1 .75-1.9 2.17-1.9 3.94v15.07c0 2.26 1.41 3.77 2.87 2.9Z" style="fill:#14af4b;stroke-width:0"/><path d="M261.84 43.68v-6.55l6.55-2.08-6.55 8.63zM65.94 202.5l10.5 5.84v-11.69l-10.5-5.91v11.76zm19.41.57-8.91 5.27v-11.69l8.91-5.34v11.76z" style="fill:#14af4b;stroke-width:0"/><path d="m65.94 190.74 9.15-5.26 10.26 5.83-8.91 5.34-10.5-5.91z" style="fill:#34bcaf;stroke-width:0"/><path d="M76.4 196.65h.04v11.68h-.04z" style="fill:#14af4b;stroke-width:0"/><path d="M37.3 193.31c0 .54.04 9.86.05 14.39 0 1.04-.34 1.86-.88 2.24s-9.49 7.03-9.76 7.22c-.39.28-1.07.24-1.09-.5-.03-.65-.02-9.98-.08-14.59-.01-1.09.28-1.88.88-2.3 4.47-3.14 9.29-6.66 9.84-6.99.44-.26 1.04-.13 1.04.53Z" style="fill:url(#m);stroke-width:0"/><path d="M38.12 193.95c0 .54.04 9.86.05 14.39 0 1.04-.34 1.86-.88 2.24s-9.49 7.03-9.76 7.22c-.39.28-1.07.24-1.09-.5-.03-.65-.02-9.98-.08-14.59-.01-1.09.28-1.88.88-2.3 4.47-3.14 9.29-6.66 9.84-6.99.44-.26 1.04-.13 1.04.53Z" style="fill:url(#n);stroke-width:0"/><path d="M29.26 205.12v4.28c0 .81.32 1.26.76 1.51l.17.09c.93.4 2.23.04 2.32.01.02 0 .03-.02.05-.03.02-.02.04-.04.05-.06.13-.2 3.24-4.92 3.24-7.43v-4.28c0-.1-.06-.13-.13-.06-2.59 2.33-3.04 1.36-3.05 1.34-.02-.05-.07-.05-.12 0-.05.05-.1.14-.12.22 0 .02-.44 1.78-3.05 4.12a.46.46 0 0 0-.13.3Zm3.25 4.54.04-.02.02-3.71 2.56-2.3v.15c0 1.97-2.44 5.66-2.54 5.82-.01.02-.03.04-.04.05-.01.01-.03.02-.04.02Zm-2.54-4.2c0-.08.04-.18.1-.23 2.04-1.83 2.38-3.21 2.38-3.22.01-.07.14-.23.14-.23v.22l-.03 3.93v-.21L30 208.01l-.04.04v-2.59Z" style="fill:#fff;stroke-width:0"/><ellipse cx="203.75" cy="152.89" rx="6.02" ry="3.48" style="fill:#1c1b1a;opacity:.14;stroke-width:0"/><path d="M209.61 151.24c.02-.6-.67-.65-1.06-1.26a.405.405 0 0 1-.05-.09c-.19-.32-.54-.82-.58-1.09s-.1.1-.1.1l-.82.32c-.77.28-1.54.33-2.32-.62-.03.3-.06.6-.1.79-.04.2-.05.36-.07.53.06.07.17.17.3.29.1.1.23.21.38.33.08-.11.27-.05.38.03.16.13.2.31.23.48.82.68 1.8 1.41 2.27 1.59.19 0 .38-.02.58-.08l.58-.26c.19-.13.32-.27.34-.4 0-.04.07-.42.06-.46.02-.06.03-.12 0-.18Z" style="fill:#00373f;stroke-width:0"/><path d="M205.57 119.37c0 .07.01.13.02.2-.15-.81-.49-1.51-.88-2.22 0-.02-.01-.05-.02-.07-.05-.22-.08-.51-.14-.74.04.03.08.05.12.08.08-.15.08-.3.06-.44.16.25.28.52.35.73.27.81.41 1.62.49 2.46Z" style="fill:#bae4f9;stroke-width:0"/><path d="M203.79 116.24v-.03h.01c.16-.03.31.03.45.12.1.06.2.14.3.21.06.24.09.52.14.74h-.02c-.07.02-.13.04-.19.07-.15-.3-.31-.58-.49-.83-.07-.1-.13-.19-.2-.28Z" style="fill:#3c1b12;stroke-width:0"/><path d="M204.27 117.52c-.28-.14-.56-.37-.77-.6 0-.03.01-.05.02-.07.07-.23.15-.45.22-.64h.02s.02.01.03.03c.07.09.13.18.2.28.18.25.34.53.49.83-.07.04-.14.09-.21.17Z" style="fill:#4e2413;stroke-width:0"/><path d="M203.6 115.46c-.17.02-.84-.09-1.48-.27.04-.37-.06-.65-.03-1.14 0-.31.07-.54-.01-.81-.13-.44-.21-.44-.1-.82 0 0-.06-.29-.19-.63.58 0 1.3-.86 1.8-1.04.35-.14.61.2.83-.08.1.33.15.59.15.59-.1.45-.02.46.12 1 0 .02 0 .03.01.05.06.31.01.58.01.93v.37c.02.41.09.71.04 1.09.01.12-.09.25-.24.37-.19.14-.47.28-.68.35-.04.02-.09.03-.13.03-.04.01-.07.02-.1.02Z" style="fill:#f9ad78;stroke-width:0"/><path d="M201.53 111.76c.08.01.16.02.25.02.13.35.19.63.19.63-.11.38-.03.38.1.82.08.27.02.5.01.81-.03.49.08.77.03 1.14-.24-.07-.49-.15-.69-.25a1.54 1.54 0 0 1-.5-.68h.02c-.06-.15-.11-.36-.17-.58.16.11.33.21.5.31-.19-.76 0-1.04.05-1.41.04-.32.1-.56.09-.84.04.02.08.02.13.03Z" style="fill:#f79d5f;stroke-width:0"/><path d="M201.42 114.94c.21.1.45.18.69.25.64.19 1.31.29 1.48.27.03 0 .06 0 .1-.02v.03c.02.15.04.3.05.45 0 .04 0 .07.01.12-.09.54-2.29.83-2.9-.11-.03-.25-.05-.51-.08-.76-.01-.13-.03-.26-.04-.39 0-.02 0-.05-.01-.07-.01-.12-.02-.25-.04-.37.07 0 .14-.01.22-.07.08.2.22.47.5.68Z" style="fill:#f58c52;stroke-width:0"/><path d="M200.78 113.67c.05.22.11.43.17.58h-.02c-.08.06-.15.08-.22.07-.32-.04-.46-.75-.6-1.05-.17-.39.31-.52.48-.38.06.17.12.48.19.77Z" style="fill:#f9ad78;stroke-width:0"/><path d="M203.74 153.73c.02-.64-.72-.7-1.13-1.34-.07-.11-.45-.58-.52-.72v-.02c-.11.11-.13.1-.4.16-.03 0-.05 0-.08.01-.97.18-2.57.11-3.18-.33v.03c-.02.09-.05.18-.06.25-.04.22-.05.39-.07.57.14.14.38.36.67.62.08-.14.28-.08.4 0 .18.14.21.34.24.53.89.73 1.96 1.53 2.46 1.72.31 0 .64-.07.93-.19.37-.16.66-.39.7-.6 0-.05.07-.45.06-.5.03-.07.03-.14 0-.2Z" style="fill:#00373f;stroke-width:0"/><path d="M203.66 108.62c-.43-.19-1.22-.32-1.45-.37-.53-.07-1.07-.02-1.57.13-.41.12-.79.32-1.1.59-.34.29-.35.67-.54 1.06-.24.5-.32 1.02-.09 1.47.5.97.68 1.77 1.23 2.6l.03-.02c.1.16.18.32.23.49.13.09.22.06.33.14h.03c-.01-.13-.02-.25-.04-.38-.32-.04-.46-.75-.6-1.05-.17-.39.31-.52.48-.38.06.17.12.48.19.77.16.11.33.21.5.31-.19-.76 0-1.04.05-1.41.04-.32.1-.56.09-.84.04.02.08.02.13.03.08.01.16.02.25.02.58 0 1.3-.86 1.8-1.04.35-.14.61.2.83-.08.1.33.15.59.15.59-.1.45-.02.46.12 1 0 .02 0 .03.01.05.11-.72-.03-1.59-.09-1.9.08-.12.16-.25.23-.38.25-.45-.59-1.12-1.18-1.39Z" style="fill:#6d4741;stroke-width:0"/><path d="M207.43 134.81c-.02-.38-.04-.77-.05-1.14l-.06-1.22c0-.26-.02-.5-.03-.75-.01-.33-.03-.65-.04-.96-.02-.39-.33-.09-.42.43-.08.07-.15.14-.24.21-.4.33-.88.6-1.34.84-.14.07-.27.13-.39.19-.35.17-.72.33-1.08.46-.43.16-.86.28-1.32.35-.03 0-.07.01-.1.02v-.1c-.16.07-.32.13-.49.18-.15.02-.31.03-.45 0h-.05c.01.04.03.06.05.1-.73.03-1.97-.52-2.78-.94-.08-.05-.16-.09-.24-.13-.03.27-.06.55-.08.82 0 .37.02.77.05 1.23.01.21.03.51.04.89.26 1.15.43 2.03.43 2.03l-.41 8.41c-.06 1.16.04 2.08.06 3.36-.04 1.15-.26 2.29-.26 2.29.05.04.11.08.17.12.01.01.03.02.04.03v-.03c.61.44 2.21.51 3.18.33.03 0 .06 0 .08-.01.28-.06.29-.05.4-.16v.02c.02-.01.04-.02.05-.04a.21.21 0 0 0 .05-.13v-.18c.02-2.1.63-8.37 1.1-13.28.03.16.07.34.11.53.1.53.52 5.09.65 6.12.25 2.06.39 3.07.53 3.78.03.04.06.07.08.11.78.95 1.56.9 2.32.62l.82-.32.1-.1c.06-1.87-.24-8.41-.49-13.97Z" style="fill:#00353e;stroke-width:0"/><path d="M209.05 120.67c-.13-.58-.32-1.12-.45-1.66-.19-.72-.35-1.48-.58-2.17-.11-.37-.24-.8-.43-1.17-.05-.22-.1-.43-.17-.64-.11-.35-.22-.69-.36-.99 0-.03-.02-.06-.03-.08-.3-.29-1.54-.64-2.33-.37.02.41.09.71.04 1.09.01.12-.09.25-.24.37-.19.14-.47.28-.68.35-.04.02-.09.03-.13.03v.03c.02.15.04.3.05.45.02.04.02.07.01.12-.09.54-2.29.83-2.9-.11-.03-.25-.05-.51-.08-.76-.01-.13-.56.29-.77.69-.04.03-.07.06-.1.09-.96.86-2.05 1.76-2.78 2.73l-.03.02s-.08.09-.12.14l-.13.19c-.02.03-.04.07-.06.1-.06.1-.11.19-.15.3-.02.04-.03.08-.05.12-.04.06-.07.13-.1.19 0 .02-.01.03-.02.04-.03.07-.06.14-.08.2-.13.36-.22.73-.28 1.11l-.06.36c-.02.12-.03.25-.04.38-.11 1.24-.29 7.27-.32 8.78-.01.67-.01 1.34-.02 1.99 0 .37 0 .73-.02 1.08.01.02.03.04.05.06.07.09.16.18.26.25.44.33 1.09.49 1.66.39.01 0 .03 0 .04-.01.13-.03.26-.06.36-.13.02 0 .04-.02.05-.03.07-.03.12-.08.16-.12v-.12c0-.26.02-.54.05-.82.02-.27.05-.54.08-.82.08.04.16.08.24.13.81.42 2.05.97 2.78.94-.02-.04.3-.08.45-.1.16-.05.56-.09.59-.1.46-.07.9-.19 1.32-.35.37-.13.73-.29 1.08-.46.13-.06.26-.12.39-.19.46-.24.94-.51 1.34-.84.09-.06.82-.8.88-.89.1-.14 1.44-1.72 1.97-1.82 1.25-.21-.3-7.64-.37-7.99Z" style="fill:#34bcaf;stroke-width:0"/><path d="M197.81 135.34s-.07-.06 0 0c-.02-.22-.03-.47-.05-.7-.03 0-.07.02-.11.03-.5.1-1.13.23-1.47-.31-.05.28-.11.78.06 1.75.19.64.47.96.75 1.15.23.16.48-.12.65-.04.07-.71.07-1.71.16-1.88Z" style="fill:#f79d5f;stroke-width:0"/><path d="M198.03 134.64c-.74.08-1.68.18-2.2-.29a.75.75 0 0 1 .05-.16c.02-.06.05-.12.08-.17.44.33 1.09.49 1.66.39.01 0 .03 0 .04-.01.13-.03.26-.06.36-.13l.02.03c0 .11 0 .23-.02.34Z" style="fill:#bae4f9;stroke-width:0"/><path d="M203.72 115.66c-.36.46-2.28.65-2.84-.23-.03-.25-.04.31-.02.57.61.94 2.81.65 2.9.11 0-.04 0-.08-.01-.12l-.03-.34Z" style="fill:#fff;stroke-width:0"/><path d="M207.93 130.03s.06-.07 0 0v-.7c.04 0 .07.01.11.02.5.06 1.14.14 1.44-.42.07.27.17.77.07 1.75-.14.65-.4.99-.66 1.21-.21.17-.49-.08-.65.01-.13-.7-.2-1.7-.31-1.86Z" style="fill:#f79d5f;stroke-width:0"/><path d="M207.65 129.35c.74.02 1.69.04 2.17-.46-.02-.05-.04-.1-.06-.16-.03-.06-.06-.11-.09-.17-.41.37-1.04.58-1.63.52H208c-.13-.02-.26-.04-.37-.1l-.02.03c.01.11.02.23.05.34Z" style="fill:#bae4f9;stroke-width:0"/><ellipse cx="176.65" cy="133.72" rx="6.14" ry="3.55" style="fill:#1c1b1a;opacity:.14;stroke-width:0"/><path d="M170.67 132.04c-.02-.61.69-.66 1.08-1.29.02-.03.04-.06.05-.09.19-.32.55-.84.59-1.11s.1.1.1.1l.84.32c.78.28 1.57.33 2.37-.63.04.31.06.61.1.8.04.2.05.36.07.54-.06.07-.17.17-.31.29-.11.11-.24.22-.38.34-.08-.11-.28-.05-.39.03-.16.13-.2.32-.24.49-.84.69-1.84 1.44-2.31 1.62-.19 0-.39-.02-.59-.08l-.6-.26c-.2-.13-.33-.27-.35-.41 0-.04-.07-.43-.06-.47-.02-.06-.03-.13 0-.18Z" style="fill:#00373f;stroke-width:0"/><path d="M174.8 99.52c0 .07-.01.14-.02.2.15-.83.5-1.54.9-2.26 0-.02.01-.05.02-.07.05-.23.08-.52.14-.76-.04.03-.09.06-.12.08a.819.819 0 0 1-.07-.45c-.16.25-.29.53-.36.75-.27.82-.42 1.65-.5 2.51Z" style="fill:#bae4f9;stroke-width:0"/><path d="M176.62 96.32v-.03h-.01c-.17-.03-.32.03-.46.12-.1.06-.21.14-.31.21-.06.24-.09.53-.14.76h.02c.07.02.13.04.19.07.15-.3.32-.59.5-.85.07-.1.13-.2.2-.29Z" style="fill:#3c1b12;stroke-width:0"/><path d="M176.13 97.63c.29-.14.57-.38.79-.61 0-.03-.01-.05-.02-.07-.07-.23-.15-.46-.23-.65h-.02s-.02.01-.03.03c-.07.09-.14.18-.2.29-.18.26-.35.55-.5.85.08.04.15.1.21.17Z" style="fill:#4e2413;stroke-width:0"/><path d="M176.81 95.53c.18.02.86-.09 1.51-.28-.05-.38.06-.66.03-1.16 0-.32-.07-.55.01-.83.13-.45.21-.45.1-.84 0 0 .06-.29.2-.65-.59 0-1.33-.87-1.84-1.07-.36-.14-.62.21-.85-.08-.1.34-.15.6-.15.6.11.46.02.47-.12 1.02 0 .02 0 .03-.01.05-.07.31-.01.59-.01.95v.37c-.02.42-.09.72-.05 1.12-.01.13.1.26.25.37.2.15.48.28.69.36.04.02.09.03.13.04.04.01.08.02.1.02Z" style="fill:#f9ad78;stroke-width:0"/><path d="M178.92 91.76c-.08.02-.17.02-.26.02-.13.36-.2.65-.2.65.11.39.03.39-.1.84-.08.28-.02.51-.01.83.03.5-.08.78-.03 1.16.25-.07.5-.15.71-.25.28-.21.42-.49.51-.7h-.02c.06-.15.11-.37.17-.59-.16.11-.33.21-.51.31.19-.78 0-1.06-.05-1.44-.04-.32-.1-.57-.09-.85-.04.02-.09.02-.13.04Z" style="fill:#f79d5f;stroke-width:0"/><path d="M179.03 95c-.21.1-.46.19-.71.25-.66.19-1.34.3-1.51.28-.03 0-.06 0-.1-.02v.03c-.02.15-.04.31-.05.46 0 .04 0 .07-.01.12.09.55 2.33.85 2.96-.11.03-.26.05-.52.08-.78.01-.14.03-.27.04-.4 0-.02 0-.05.01-.07.01-.13.02-.26.04-.38-.07 0-.15-.01-.23-.07-.08.21-.22.48-.51.7Z" style="fill:#f58c52;stroke-width:0"/><path d="M179.69 93.7c-.06.23-.11.44-.17.59h.02c.08.06.16.08.23.07.33-.04.47-.76.61-1.08.17-.4-.31-.53-.49-.39-.06.17-.12.49-.2.79Z" style="fill:#f9ad78;stroke-width:0"/><path d="M176.67 134.58c-.02-.65.73-.72 1.15-1.36.07-.11.46-.59.53-.74v-.02c.12.11.13.1.41.16.03 0 .05 0 .08.01.99.18 2.62.11 3.24-.34v.03c.02.1.05.18.06.25.04.23.05.39.07.58-.14.14-.38.37-.69.63-.08-.14-.29-.08-.4 0-.18.14-.21.34-.25.54-.91.75-2 1.57-2.51 1.76-.31 0-.66-.07-.95-.2-.38-.16-.67-.4-.71-.61-.01-.05-.08-.46-.06-.51a.233.233 0 0 1 0-.2Z" style="fill:#00373f;stroke-width:0"/><path d="M176.74 88.55c.44-.2 1.24-.33 1.48-.37.54-.07 1.09-.02 1.6.13.42.12.81.33 1.12.6.34.29.36.68.55 1.09.25.51.33 1.04.09 1.5-.51.99-.69 1.81-1.26 2.65l-.03-.02c-.1.17-.18.32-.23.5-.14.09-.22.06-.33.14h-.03c.01-.13.02-.26.04-.39.33-.04.47-.76.61-1.08.17-.4-.31-.53-.49-.39-.06.17-.12.49-.2.79-.16.11-.33.21-.51.31.19-.78 0-1.06-.05-1.44-.04-.32-.1-.57-.09-.85-.04.02-.09.02-.13.04-.08.02-.17.02-.26.02-.59 0-1.33-.87-1.84-1.07-.36-.14-.62.21-.85-.08-.1.34-.15.6-.15.6.11.46.02.47-.12 1.02 0 .02 0 .03-.01.05-.11-.73.03-1.62.09-1.93-.08-.12-.16-.26-.24-.39-.25-.46.61-1.14 1.2-1.42Z" style="fill:#c4775a;stroke-width:0"/><path d="M172.9 115.28c.02-.39.04-.78.05-1.16l.06-1.25c0-.26.02-.51.03-.77.01-.34.03-.66.05-.98.02-.4.34-.09.43.43.08.07.16.15.25.21.41.34.9.62 1.36.86.14.07.27.14.4.2.36.17.73.34 1.11.47.43.16.88.29 1.35.35.03 0 .07.01.11.02v-.1c.16.07.33.13.5.18.16.02.31.03.46 0h.05c-.01.04-.03.07-.05.1.74.03 2.01-.53 2.84-.96.09-.05.17-.09.25-.13.03.28.06.56.08.83 0 .38-.02.79-.05 1.26-.01.22-.03.52-.04.91-.26 1.17-.43 2.08-.43 2.08l.42 8.58c.07 1.19-.04 2.13-.06 3.43.04 1.18.26 2.34.26 2.34-.05.04-.11.09-.17.12-.01.01-.03.02-.04.03v-.03c-.62.45-2.25.52-3.24.34-.03 0-.06 0-.08-.01-.28-.06-.3-.05-.41-.16v.02c-.02-.01-.04-.02-.05-.04a.21.21 0 0 1-.05-.13v-.19c-.02-2.14-.64-8.55-1.12-13.55-.04.17-.07.35-.11.54-.11.54-.53 5.19-.66 6.24-.25 2.1-.4 3.13-.54 3.86-.03.04-.06.07-.08.11-.8.97-1.59.92-2.37.63l-.84-.32-.1-.1c-.06-1.91.24-8.58.5-14.26Z" style="fill:#00353e;stroke-width:0"/><path d="M170.86 109c.54.1 1.9 1.71 2.01 1.85.06.09.81.84.9.91.41.34.9.62 1.36.86.14.07.27.14.4.2.36.17.73.34 1.11.47.43.16.88.29 1.35.35.03 0 .44.05.6.1.16.02.49.07.46.11.74.03 2.01-.53 2.84-.96.09-.05.17-.09.25-.13.03.28.06.56.08.83.03.29.04.57.05.84v.12c.05.05.1.09.17.13.01.01.03.03.05.03.11.06.24.1.37.13.01 0 .03 0 .04.01.59.11 1.25-.06 1.7-.4.1-.08.19-.16.26-.26.02-.02.03-.05.05-.06-.01-.36-.01-.73-.02-1.11 0-.67 0-1.35-.02-2.03-.03-1.55-.22-7.7-.33-8.96 0-.13-.02-.26-.04-.39s-.03-.25-.06-.37c-.06-.38-.15-.76-.29-1.13-.02-.07-.05-.14-.08-.21 0-.01-.01-.03-.02-.04-.03-.07-.07-.13-.11-.2-.02-.04-.03-.08-.05-.12-.05-.11-.09-.21-.15-.31-.02-.03-.04-.07-.06-.1-.04-.07-.09-.14-.13-.2-.04-.05-.08-.1-.12-.14l-.03-.03c-.74-.99-1.86-1.91-2.84-2.78-.03-.03-.07-.06-.1-.09-.22-.4-.78-.84-.79-.7-.03.26-.05.52-.08.78-.63.96-2.87.66-2.96.11 0-.04 0-.08.01-.12.02-.15.03-.31.04-.46v-.03s-.08-.02-.12-.04c-.21-.07-.49-.21-.69-.36-.15-.12-.26-.25-.25-.37-.05-.39.02-.69.05-1.12-.81-.27-2.07.08-2.38.38-.01.02-.03.05-.03.08-.14.31-.26.65-.37 1.01-.06.21-.12.43-.17.65-.19.37-.32.81-.43 1.19-.23.7-.4 1.47-.59 2.21-.13.55-.33 1.11-.46 1.7-.08.36-1.65 7.94-.38 8.16Z" style="fill:#535ca8;stroke-width:0"/><path d="M182.72 115.81s.07-.06 0 0c.02-.23.03-.48.05-.72.04 0 .07.02.11.03.51.1 1.15.24 1.5-.31.05.28.12.8-.07 1.78-.19.65-.48.98-.77 1.18-.23.16-.49-.13-.66-.04-.08-.72-.07-1.74-.16-1.92Z" style="fill:#f79d5f;stroke-width:0"/><path d="M182.49 115.1c.75.08 1.71.18 2.24-.29-.02-.06-.03-.11-.05-.17-.02-.06-.05-.12-.08-.18-.45.34-1.11.5-1.7.4-.01 0-.03 0-.04-.01-.13-.03-.26-.07-.37-.13l-.02.03c0 .11 0 .23.02.35Z" style="fill:#bae4f9;stroke-width:0"/><path d="M176.68 95.73c.36.47 2.32.66 2.9-.23.03-.26.04.32.02.58-.63.96-2.87.66-2.96.11 0-.04 0-.08.01-.12l.03-.34Z" style="fill:#fff;stroke-width:0"/><path d="M172.39 110.4s-.06-.07 0 0v-.72c-.04 0-.07.01-.11.02-.51.06-1.16.15-1.47-.43-.07.28-.18.79-.08 1.78.14.66.4 1.01.67 1.23.22.18.5-.09.66.01.13-.71.21-1.73.31-1.9Z" style="fill:#f79d5f;stroke-width:0"/><path d="M172.67 109.7c-.76.02-1.72.05-2.21-.47.02-.05.04-.11.07-.16.03-.06.06-.11.09-.17.42.37 1.07.59 1.66.53h.04c.13-.02.27-.05.38-.1l.02.03c-.01.11-.03.23-.05.35Z" style="fill:#bae4f9;stroke-width:0"/><ellipse cx="106" cy="201.45" rx="6.68" ry="3.86" style="fill:#1c1b1a;opacity:.14;stroke-width:0"/><path d="M120.29 170.66s-.04-.04-.06-.05c-.23-.13-.55.2-.61.46-.17-.07-.45.13-.48.34-.09-.09-.19-.09-.27-.02l-.03-.04c-.12.09-.24.19-.36.27-.33-.35-.75-.7-1.16-.96.07-.08.14-.16.22-.23.13-.12.26-.23.39-.34.12-.18.13-.35-.07-.43h-.02c-.07-.03-.54.24-.64.26-.15.02-.51-.04-.61.04-.19.1-.38.5-.5.76-.04.57-.16 1.38-.02 1.95.87.37 2.09-.02 2.9-.27h.01s.07-.06.11-.12c.27-.01.43-.2.52-.43.3-.18.95-.88.67-1.17Z" style="fill:#f9ad76;stroke-width:0"/><path d="M116.07 172.66c.04.16.1.3.18.41-.16.11-.35.13-.54.11-.28-.67-.25-1.7-.22-2.39.16.03.41 0 .6-.06-.04.56-.16 1.36-.02 1.93Z" style="fill:#b8e1f7;stroke-width:0"/><path d="M112.3 200.57c.02-.62-.7-.66-1.1-1.29l-.06-.09c-.2-.33-.56-.84-.6-1.12s-.1.1-.1.1l-.84.33c-.78.29-1.58.35-2.39-.62-.03.31-.06.61-.09.81-.04.21-.05.37-.06.54.07.07.17.17.31.29.11.11.24.22.39.34.08-.11.28-.05.39.03.16.13.2.32.24.5.85.69 1.86 1.44 2.34 1.61.19 0 .39-.03.59-.08l.6-.27c.2-.13.33-.28.35-.41 0-.04.07-.43.05-.48.02-.07.02-.13 0-.19Z" style="fill:#062227;stroke-width:0"/><path d="M107.87 167.87c0 .07.01.14.02.2-.16-.83-.51-1.54-.93-2.27 0-.02-.01-.05-.02-.07-.05-.23-.08-.52-.15-.76.04.03.09.06.13.08.08-.16.08-.31.06-.45.17.25.29.53.36.75.28.83.43 1.66.52 2.52Z" style="fill:#b8e1f7;stroke-width:0"/><path d="M106.01 164.67v-.03h.01c.17-.03.32.03.46.12.11.06.21.14.31.21.07.24.1.54.15.76h-.02c-.07.02-.13.04-.19.07-.16-.3-.33-.59-.51-.85-.07-.1-.14-.2-.21-.29Z" style="fill:#3b1b12;stroke-width:0"/><path d="M106.52 165.98c-.29-.14-.58-.38-.8-.61 0-.03.01-.05.02-.07.07-.23.15-.46.22-.66h.02s.02.01.03.03c.07.09.14.18.21.29.18.26.36.55.51.85-.08.04-.15.1-.21.17Z" style="fill:#4e2513;stroke-width:0"/><path d="M105.81 163.87c-.18.02-.86-.08-1.53-.27.04-.38-.07-.66-.04-1.17 0-.32.07-.55-.02-.83-.14-.45-.22-.45-.11-.84 0 0-.06-.29-.2-.65.6 0 1.32-.31 1.83-.5.36-.15.64-.38.87-.67.1.34.16.6.16.6-.1.47-.02.47.13 1.02 0 .02 0 .04.01.05.07.31.02.59.02.96v.38c.03.43.1.73.06 1.12.02.13-.09.26-.25.38-.2.15-.48.29-.69.36-.04.02-.09.03-.13.04-.04.01-.08.02-.1.02Z" style="fill:#f9ad76;stroke-width:0"/><path d="M103.66 160.09c.08.01.17.02.26.02.14.36.2.65.2.65-.11.39-.03.39.11.84.09.28.02.51.02.83-.03.51.08.79.04 1.17-.25-.07-.5-.15-.72-.25-.29-.21-.43-.49-.51-.7h.02c-.06-.15-.12-.37-.18-.59.16.11.34.21.51.31-.2-.78 0-1.07.04-1.45.04-.33.1-.57.08-.86.04.02.09.02.13.03Z" style="fill:#f79d60;stroke-width:0"/><path d="M103.57 163.35c.21.1.46.18.72.25.66.19 1.35.29 1.53.27.03 0 .06 0 .1-.02v.03c.03.15.04.31.06.46 0 .04 0 .07.01.12-.09.56-2.34.88-2.98-.09-.03-.26-.05-.52-.08-.78-.01-.14-.03-.27-.04-.4 0-.02 0-.05-.01-.07-.02-.13-.03-.26-.04-.38.07 0 .15-.01.23-.08.08.21.23.48.51.7Z" style="fill:#f58c52;stroke-width:0"/><path d="M102.9 162.05c.06.23.11.45.18.59 0 0-.01.01-.02 0-.08.06-.16.08-.23.08-.33-.04-.48-.76-.62-1.08-.18-.4.31-.54.49-.4.06.17.13.49.2.79Z" style="fill:#f9ad76;stroke-width:0"/><path d="M106.28 203.18c.01-.66-.74-.71-1.17-1.36-.07-.11-.47-.59-.54-.74v-.02c-.12.11-.13.1-.41.16-.03 0-.05 0-.08.01-.99.19-2.64.13-3.27-.31v.03c-.02.1-.05.18-.06.25-.04.23-.05.4-.07.58.14.14.39.37.7.63.08-.14.29-.09.41 0 .19.14.22.34.25.54.93.74 2.03 1.56 2.54 1.75.31 0 .66-.07.95-.2.38-.17.68-.41.71-.62 0-.05.07-.47.06-.51.03-.07.03-.14 0-.2Z" style="fill:#062227;stroke-width:0"/><path d="M105.82 156.85c-.44-.2-1.25-.32-1.49-.36-.54-.07-1.1-.01-1.61.14-.42.13-.81.33-1.13.62-.34.3-.36.69-.55 1.1-.25.51-.32 1.05-.08 1.51.53 1 .71 1.81 1.29 2.66l.03-.02c.1.17.18.32.24.5.14.09.22.06.34.14h.03c-.02-.13-.03-.26-.04-.39-.33-.04-.48-.76-.62-1.08-.18-.4.31-.54.49-.4.06.17.13.49.2.79.16.11.34.21.51.31-.2-.78 0-1.07.04-1.45.04-.33.1-.57.08-.86.04.02.09.02.13.03.08.01.17.02.26.02.6 0 1.32-.31 1.83-.5.36-.15.64-.38.87-.67.1.34.16.6.16.6-.1.47-.02.47.13 1.02 0 .02 0 .04.01.05.1-.74-.04-1.64-.1-1.95.08-.13.16-.26.23-.4.25-.47-.62-1.14-1.22-1.42Z" style="fill:#ba7762;stroke-width:0"/><path d="m109.91 183.71-.06-1.17c-.02-.43-.05-.85-.07-1.26-.01-.26-.02-.52-.04-.77-.02-.34-.03-.67-.05-.99-.02-.4-.34-.09-.43.44-.08.07-.16.15-.25.21-.41.34-.9.63-1.37.87-.14.07-.27.14-.4.2-.36.18-.73.35-1.11.49-.44.17-.89.3-1.36.37-.04 0-.07.01-.11.02v-.1c-.16.07-.33.14-.5.19-.16.02-.31.03-.46.01h-.05c.01.04.03.07.05.1-.75.03-2.03-.52-2.86-.95-.09-.05-.17-.09-.25-.13-.03.28-.06.56-.07.84 0 .38.03.8.06 1.26.01.22.03.53.05.92.28 1.18.45 2.08.45 2.08l-.35 8.64c-.06 1.2.06 2.14.09 3.45-.03 1.18-.24 2.35-.24 2.35.05.04.11.09.17.12.01.01.03.02.04.03v-.03c.63.45 2.27.5 3.27.31.03 0 .06 0 .08-.01.28-.06.3-.05.41-.16v.02c.02-.01.04-.03.05-.04a.21.21 0 0 0 .05-.13v-.19c0-2.15.57-8.61 1.01-13.65.04.17.08.35.12.55.11.54.58 5.22.72 6.28.27 2.11.43 3.15.58 3.88.03.04.06.07.09.11.81.97 1.61.91 2.39.62l.84-.33.1-.1c.05-1.93-.31-8.63-.62-14.34Z" style="fill:#30313e;stroke-width:0"/><path d="M115.71 173.17c-.28-.67-.25-1.7-.22-2.39 0-.09 0-.18.01-.26-.28.02-.72.15-.98.18h-.04c-.86.15-1.73.13-2.61.11-.2-.5-.33-1.28-.41-1.64-.13-.59-.34-1.15-.48-1.7-.21-.74-.37-1.52-.62-2.22-.11-.38-.25-.82-.45-1.19-.05-.23-.11-.44-.18-.66-.11-.36-.24-.7-.38-1.02 0-.03-.02-.06-.03-.08-.31-.29-1.58-.64-2.4-.36.03.43.1.73.06 1.12.02.13-.09.26-.25.38-.2.15-.48.29-.69.36-.04.02-.09.03-.13.04v.03c.03.15.04.31.06.46.02.04.02.07.01.12-.09.56-2.34.88-2.98-.09-.03-.26-.05-.52-.08-.78-.01-.14-.57.31-.79.71-.04.03-.07.06-.1.1-.98.89-2.09 1.82-2.83 2.82l-.03.03s-.08.09-.12.14c-.05.06-.09.13-.13.2-.02.03-.04.07-.06.1-.06.1-.11.2-.15.31-.02.04-.03.08-.05.12-.04.06-.07.13-.11.2 0 .02-.01.03-.02.04-.03.07-.06.14-.08.21-.13.37-.22.76-.28 1.14-.02.13-.04.25-.06.37-.02.13-.03.26-.04.39-.1 1.27-.24 7.46-.25 9.02v3.16a2.226 2.226 0 0 0 .32.32c.46.34 1.12.5 1.71.39.01 0 .03 0 .04-.01.13-.03.26-.07.37-.13.02 0 .04-.02.05-.03.07-.03.12-.08.17-.13v-.12c0-.26.02-.55.04-.84.02-.27.05-.56.07-.84.08.04.16.08.25.13.84.42 2.12.98 2.86.95-.02-.04.31-.09.47-.11.17-.05.57-.1.61-.11.47-.07.92-.2 1.36-.37.38-.14.75-.31 1.11-.49.13-.06.26-.13.4-.2.47-.25.96-.53 1.37-.87.09-.07.83-.82.89-.92.1-.14-.43-2.67-.55-3.29.05-1.1.11-2.21.18-3.32.22.57.55 1.16.84 1.52.68.22 1.83 0 2.37-.11 1.28-.23 2.01-.21 3.17-.51-.09-.1-.16-.23-.21-.37Z" style="fill:#34bcaf;stroke-width:0"/><path d="M100.04 184.34s-.07-.06 0 0c-.02-.23-.03-.48-.06-.72-.04 0-.07.02-.11.03-.51.11-1.15.25-1.51-.3-.04.28-.11.8.08 1.79.2.65.49.98.78 1.18.23.16.49-.13.66-.05.07-.73.06-1.75.15-1.93Z" style="fill:#f79d60;stroke-width:0"/><path d="M100.26 183.61c-.76.09-1.72.2-2.26-.28.01-.06.03-.11.05-.17.02-.06.05-.12.08-.18.46.34 1.12.5 1.71.39.01 0 .03 0 .04-.01.13-.03.26-.07.37-.13l.02.03c0 .11 0 .23-.02.35Z" style="fill:#b8e1f7;stroke-width:0"/><path d="M105.94 164.08c-.36.48-2.33.68-2.92-.21-.03-.26-.04.32-.01.58.64.96 2.89.64 2.98.09 0-.05 0-.08-.01-.12l-.03-.34Z" style="fill:#fff;stroke-width:0"/><ellipse cx="218.94" cy="184.25" rx="7.09" ry="4.1" style="fill:#1c1b1a;opacity:.14;stroke-width:0"/><path d="M221.94 157.97v.05c.09.53.08 1.55.03 2.7.15-.41.38-.84.41-1.24.08-.56-.03-1.07 0-1.63-.12.04-.25.07-.35.11h-.09Z" style="fill:#f7a06b;stroke-width:0"/><path d="M219.11 159.23c.37-1.23.38-3.1.38-4.33-.1.05-.21.11-.32.16 0 1.35 0 2.8-.05 4.17Z" style="fill:#071818;stroke-width:0"/><path d="M222.18 182.22c-.36-.92-.86-1.84-1.16-2.76H221c0-.07-.02-.14-.02-.2l-.06-.59c0-.1-.01-.2-.01-.31-.53.21-1.12.33-1.67.27-.04.1-.09.2-.14.29-.05.11-.11.21-.19.3-.58.9 0 1.89 0 2.81.07.04.14.07.21.11h.06c.13-.01.26-.06.38-.1-.05-.25-.1-.6-.02-.85.33.73.7 1.58 1.26 2.02.51.03 2.01.02 2.06-.42 0-.12-.45-.41-.67-.57Z" style="fill:#151d1c;stroke-width:0"/><path d="M218.29 142.93c.04.33.14.6.35.93-.05-.39-.08-.76-.09-1.06-.1.04-.19.08-.26.13Z" style="fill:#f4854c;stroke-width:0"/><path d="M216.98 141.55c.03.05.07.11.11.16.12-.09.22-.2.27-.35-.13.1-.26.16-.38.18Z" style="fill:#5b323c;stroke-width:0"/><path d="M219.75 138.01c-.02-.44-.06-.86-.12-1.26-.84.65-1.92.82-3.26.92.5.14.41.6-.13.64-.25.01-.46 0-.64 0-.32.32-.34.99-.17 1.64.25.9.86 1.76 1.56 1.61.12-.03.25-.09.38-.18-.05.15-.15.26-.27.35-.03.03-.08.05-.12.08-.08.04-.17.08-.26.1-.23.07-.48.1-.7.11.1.11.29.19.46.25-.27.08-.54.12-.8.12 0 .03 0 .06.02.09.09.45.11.72.17 1.13.43.11 1 .35 1.53.63.67.36 1.29.76 1.47 1.01v-.06c-.07-.33-.14-.82-.2-1.3-.21-.33-.31-.61-.35-.93-.03-.29-.04-.63-.04-.93.15-.02.3-.07.44-.14.26-.13.49-.35.65-.67.04-.09.08-.19.12-.29.28-.86.35-1.89.3-2.88Z" style="fill:#facabf;stroke-width:0"/><path d="M221.55 166.3c.03-.28.32-3.21.43-5.58.05-1.15.06-2.16-.03-2.7v-.05c-.26-1.52-.63-2.97-1.07-4.45l-.06-.21c0-.04-.02-.09-.04-.13v-.02c-.04-.16-.1-.32-.15-.49 0-.02 0-.04-.01-.06 0 .03-.01.06-.02.08-.04.15-.07.27-.1.38-.27.44-.69.81-1.19 1.09-1.08.6-2.53.79-3.68.41h-.01l-.24-.09c-.19.07-.38.14-.56.21-.01.14-.03.28-.03.44-1.52 1.68-1.92 4.1-1.83 6.19.09 2.22.2 2.06.67 4.23.49 2.24.16 5.94 0 6.48-.31 1.23-.36 2.46-.4 3.73-.06 1.24.35 2.52.79 3.77.05.54-.05 1.07-.42 1.53.25.13.51.23.79.3.43.11.89.15 1.34.15h.4c.28 0 .56-.01.83-.03-.47-.62-.37-1.95-.42-2.67-.03-.3 0-.81 0-1.09.1-.58.21-1.15.32-1.73.5-2.42.63-4.88 1.03-7.35.13-.67.26-1.36.36-2.04.04.82.1 1.64.11 2.46-.64 2.45-.2 4.04.03 5.55.13.87.37 1.73.55 2.6 0 .52-.08 1-.32 1.26.2.1.41.17.63.19.55.07 1.14-.07 1.67-.33.04-.02.09-.05.14-.07.19-.1.37-.22.53-.34-.49-.64-.55-1.76-.56-2.69.09-1.06.21-2.1.28-3.13.18-1.96.27-3.88.27-5.84Z" style="fill:#344863;stroke-width:0"/><path d="M216.56 185c-.2-1.08-.26-2.25-.49-3.26v-.38c0-.12 0-.24.02-.36h-.4c-.45 0-.91-.04-1.34-.13v.15c-.04.41-.21.77-.31 1.14v-.26c-.57 1.14-.15 2.59.21 3.71.06 0 .15 0 .23.02.21.51.54.92 1.23.91.45-.07.83-.12 1.15-.36a7.55 7.55 0 0 1-.3-1.18Z" style="fill:#151d1c;stroke-width:0"/><path d="M221.65 150.23s-.92-.33-.95-.3c-.62-3.61-.95.66-.93.62l1.04 2.76c.02.07.04.14.06.2.44 1.48.81 2.94 1.07 4.46h.09c.11-.05.23-.09.35-.12v-.06c-.01-1.72-.23-3.36-.44-5.04 0 0-.03-2.74-.3-2.52Z" style="fill:#34bcaf;stroke-width:0"/><path d="M220.54 151.15h.01c.09-.22.27-.37.5-.5.27-.16.6-.27.89-.42.27-1.11.27-2.37.36-3.48h-.01c.2-.22.36-.46.44-.7 0-.07 0-.13-.02-.21-.12-.71-.75-1.32-1.18-1.95-.05-.31-.07-.61-.12-.92h-.03c-.14-.93-.71-1.73-1.61-1.81-.14-.01-.28 0-.44.02-.16.32-.39.54-.65.67-.14.07-.29.12-.44.14 0 .3 0 .64.04.93.08-.05.3.55.35.93.06.49.13.97.2 1.3v.06c-.18-.25-.8-.66-1.47-1.01-.53-.28-1.1-.53-1.53-.63-.06-.41-.08-.68-.17-1.13-.32.19-.82.67-.93.79-.02.03-.05.05-.08.08v.02c-.02 0-.05.02-.08.04-.51.24-1 .51-1.43.82-.06.04-.13.09-.2.15-.23.15-.41.37-.56.65-.1.29-.18.58-.26.88-.64 2.56-.45 5.37.06 7.8.02.08.04.17.05.27.11.55.23 1.21.72 1.32.6-.17 1.2-.36 1.79-.57.19-.07.38-.13.56-.21l.24.09h.01c1.14.38 2.6.19 3.68-.41.5-.28.92-.65 1.19-1.09.03-.11.06-.23.1-.38 0-.02 0-.05.02-.08 0-.04.02-.11.04-.18l.03-.14c.01-.06.03-.12.04-.16v-.02c-.03.02-.06.03-.09.05-.07-.12-.14-.3-.17-.49 0-.03 0-.06-.01-.09-.02-.2 0-.38.11-.44Zm-6.35 1.69c0-.52.02-1.11.04-1.73.19.5.34 1.01.44 1.53-.17.06-.33.13-.49.2Z" style="fill:#34bcaf;stroke-width:0"/><path d="M220.1 136.31s-.01-.03-.03-.04c.19-.13-.06-.85-.57-.81.18-.06.12-.25-.04-.24-.51-.55-1.3-.9-2.13-1.07-.74-.15-1.68-.13-2.33.17-.4.18-.85.43-1.24.76-.31.27-.59.59-.79 1 0 .03 0 .06.01.09h.54c-.63.46-.53 1.23-.49 2.02.02.47.12.95.26 1.38.47 1.46.81 2.8 2.39 2.79.26 0 .53-.04.8-.12-.17-.05-.36-.14-.46-.25.22-.01.47-.04.7-.11.09-.03.18-.06.26-.1.04-.02.09-.05.12-.08-.04-.05-.08-.11-.11-.16-.7.15-1.32-.71-1.56-1.61-.17-.64-.15-1.31.17-1.63-.03 0-.06 0-.09-.02.03 0 .06 0 .1.01.18.02.4.02.64 0 .54-.04.62-.49.13-.64 1.34-.09 2.42-.27 3.26-.92.06.4.1.82.12 1.25.05 1-.01 2.03-.3 2.89-.03.1-.07.2-.12.29.15-.03.29-.03.44-.02.2-.13.39-.3.51-.45-.22.07-.34-.07-.33-.25.72-1.31 1.19-2.91.16-4.16Z" style="fill:#0c1311;stroke-width:0"/><ellipse cx="214.13" cy="135.49" rx="1.35" ry="1.24" style="fill:#0c1311;stroke-width:0"/><path d="M220.53 150.82s-.01.08 0 0c-.16.13-.34.28-.51.42.03.02.05.03.08.05.34.24.78.55.55 1.06.23-.13.65-.37 1.3-1.01.38-.47.48-.82.48-1.1 0-.22-.35-.22-.37-.37-.58.35-1.34.91-1.52.95Z" style="fill:#facabf;stroke-width:0"/><ellipse cx="161.01" cy="165.84" rx="6.07" ry="3.52" style="fill:#1c1b1a;opacity:.14;stroke-width:0"/><path d="M156.46 164.05c-.02-.46.47-.5.74-.98.01-.02.03-.04.04-.07.13-.25.38-.64.4-.84s.07.08.07.08l.58.24c.54.21 1.08.24 1.63-.49.02.23.04.46.07.61.03.15.04.27.05.4-.04.05-.12.13-.21.22-.07.08-.16.17-.26.26-.06-.08-.19-.04-.27.03-.11.1-.14.24-.16.37-.58.53-1.26 1.1-1.59 1.24-.13 0-.27-.02-.41-.06l-.41-.2c-.14-.1-.23-.2-.24-.31 0-.03-.05-.32-.04-.36a.17.17 0 0 1 0-.14Z" style="fill:#00373f;stroke-width:0"/><path d="M158.98 132.51c0 .07-.01.13-.01.2.13-.82.42-1.52.77-2.24 0-.02 0-.05.01-.07.04-.22.07-.51.12-.75-.04.03-.07.06-.11.08a.857.857 0 0 1-.06-.44c-.14.25-.25.52-.3.74-.23.82-.35 1.64-.42 2.49Z" style="fill:#bae4f9;stroke-width:0"/><path d="M160.53 129.34v-.03h-.01c-.14-.03-.28.03-.39.12-.09.06-.18.14-.26.21-.05.24-.08.53-.12.75h.02c.06.02.12.04.17.07.13-.3.27-.59.43-.84.06-.1.12-.2.17-.28Z" style="fill:#3c1b12;stroke-width:0"/><path d="M160.12 130.63c.25-.14.49-.38.68-.6 0-.03-.01-.05-.02-.07-.06-.23-.13-.45-.2-.64h-.02s-.02.01-.03.03c-.06.09-.12.18-.17.28-.15.26-.3.54-.43.84.07.04.13.09.19.17Z" style="fill:#4e2413;stroke-width:0"/><path d="M162.5 124.81c-.07.02-.14.02-.22.02-.11.35-.17.64-.17.64.1.38.03.39-.08.83-.07.27-.01.5 0 .82.03.5-.06.77-.02 1.15.21-.07.43-.15.61-.25.24-.21.36-.48.43-.69h-.01c.05-.15.1-.36.14-.59-.14.11-.29.21-.44.31.16-.77 0-1.05-.05-1.42-.04-.32-.09-.56-.08-.84-.04.02-.07.02-.11.04Z" style="fill:#f79d5f;stroke-width:0"/><path d="M162.61 128.02c-.18.1-.4.19-.61.25-.57.19-1.15.3-1.3.28-.02 0-.05 0-.09-.02v.03c-.02.15-.03.3-.05.46v.12c.08.54 2.02.83 2.55-.12l.06-.77.03-.4v-.07l.03-.38c-.06 0-.13-.01-.2-.07-.07.21-.19.48-.43.69Z" style="fill:#f8b3a8;stroke-width:0"/><path d="M163.17 126.73c-.05.22-.09.44-.14.59h.01c.07.06.13.08.2.07.28-.04.4-.76.52-1.07.15-.4-.27-.52-.42-.38-.05.17-.1.48-.17.78Z" style="fill:#f9ad78;stroke-width:0"/><path d="M161.78 166.68c-.02-.51.49-.56.77-1.06.05-.09.31-.46.35-.57v-.01c.08.09.09.08.28.12h.06c.67.14 1.77.08 2.19-.27v.02c.02.07.03.14.04.19.03.18.04.31.05.45-.09.11-.26.29-.46.49-.05-.11-.19-.06-.27 0-.12.11-.14.27-.17.42-.61.58-1.35 1.22-1.69 1.38-.21 0-.44-.05-.64-.15-.26-.13-.46-.31-.48-.47 0-.04-.05-.36-.04-.39a.22.22 0 0 1 0-.16Z" style="fill:#00373f;stroke-width:0"/><path d="M157.41 148.1c.01-.39.03-.77.04-1.15.01-.43.03-.83.05-1.23 0-.26.02-.51.03-.76 0-.33.02-.66.03-.97.01-.39.29-.09.37.43l.21.21c.35.33.77.6 1.18.84.12.07.23.13.35.19.31.17.63.33.96.46.38.16.76.28 1.17.34.03 0 .06.01.09.02v-.1c.14.07.29.13.43.18.13.02.27.03.4 0h.05c-.01.04-.02.06-.04.1.64.02 1.73-.54 2.44-.97.07-.05.14-.09.21-.13.03.28.05.55.07.82 0 .38-.01.78-.04 1.24 0 .21-.02.52-.03.9-.22 1.16-.37 2.05-.37 2.05l-.17 7.33c.06 1.17.36 2.65.54 4.54.04 1.16.24 2.31.24 2.31-.04.04-.09.09-.15.12-.01.01-.03.02-.04.03v-.03c-.53.45-1.94.52-2.79.35-.03 0 .24 0 .22-.01-.24-.05.03-.33-.07-.44v.02a.078.078 0 0 1-.04-.04.295.295 0 0 1-.05-.13v-.18c-.02-1.17-.48-3.64-.71-6.45-.19-2.26-.69-6.47-.88-8.67-.03.17-.64.92-.67 1.11-.09.54-.43 5.14-.54 6.18-.21 2.08.24 4.54.12 5.26-.03.04-.05.07-.07.11-.68.96-1.37.91-2.04.64l-.15-.31.2-.1h-.29c-.04-1.22-.53-4.38-.42-7.98.06-1.99.14-4.12.21-6.12Z" style="fill:url(#o);stroke-width:0"/><path d="M158.21 139.32c.46.1-.94 4.27-.85 4.41.06.09.7.83.78.89.35.33.77.6 1.18.84.12.07.23.13.35.19.31.17.63.33.96.46.38.16.76.28 1.17.34.03 0 .38.05.52.1.13.02.42.07.4.1.64.02 1.73-.54 2.44-.97.07-.05.14-.09.21-.13.03.28.05.55.07.82.02.29.04.57.05.83v.12c.04.05.09.09.14.12.01.01.03.03.05.03.09.06.2.1.32.13.01 0 .03 0 .04.01.51.1 1.07-.06 1.46-.4a1.428 1.428 0 0 0 .27-.32c-.01-.36-.01-.72-.02-1.09 0-.66-.01-1.33-.03-2.01-.03-1.53-.77-7.61-.87-8.86 0-.13-.02-.26-.03-.38-.02-.13-.03-.24-.05-.37-.06-.37-.14-.75-.25-1.11-.02-.07-.04-.14-.07-.21 0-.01-.01-.03-.02-.04-.03-.06-.06-.13-.09-.19-.02-.04-.03-.08-.05-.12-.04-.11-.08-.2-.13-.3-.02-.03-.03-.07-.05-.1-.04-.07-.08-.14-.12-.2-.03-.05-.07-.1-.1-.14l-.02-.02c-.64-.97-1.06-1.88-1.91-2.74l-.09-.09c-.19-.4-.67-.82-.68-.69l-.06.77c-.53.96-2.47.67-2.55.12V129l.03-.46v-.03l-.1-.03c-.18-.07-.09-.46-.26-.61-.13-.12-.08-.03-.07-.15-.04-.39-.18-.07-.16-.49-.7-.27-1.21 1.24-1.48 1.54-.01.02-.02.05-.03.08-.12.31-.59 2.56-.75 3.3-.11.55-.28 1.1-.39 1.68-.01.08 1.24 5.55.86 5.48Z" style="fill:#535ca8;stroke-width:0"/><path d="M165.88 148.58s.06-.06 0 0c.01-.22.02-.47.04-.71.03 0 .06.02.09.03.44.1.99.23 1.29-.32.04.28.1.79-.05 1.76-.16.64-.41.97-.66 1.17-.2.16-.42-.12-.57-.04-.07-.71-.07-1.72-.15-1.9Z" style="fill:#f79d5f;stroke-width:0"/><path d="M165.68 147.87c.65.07 1.48.17 1.93-.3a.75.75 0 0 0-.05-.16c-.02-.06-.04-.12-.07-.18-.39.34-.95.5-1.46.4-.01 0-.03 0-.04-.01-.11-.03-.23-.06-.32-.13l-.02.03c0 .11 0 .23.02.35Z" style="fill:#bae4f9;stroke-width:0"/><path d="M160.59 128.76c.32.46 2.01.64 2.5-.24.02-.26.04.32.02.57-.53.96-2.47.67-2.55.12v-.12l.03-.34Z" style="fill:#fff;stroke-width:0"/><path d="M167.54 125.82c-.06-.02-.11-.05-.17-.08.06.04.12.08.19.11 0-.01-.01-.01-.02-.03Zm-1.5-.31v.3c0 .08-.01.15-.02.23-.04.35-.11.71-.16 1-.09.39-.23.71-.43.96-.22.29-.52.48-.86.59.38.88 1.5.92 2.13.13.13-.16.23-.36.31-.59.29-.91-.07-2.64-.96-2.84v.23Z" style="fill:#731a13;stroke-width:0"/><path d="M159.5 124.44c.09.06.17.12.26.17.09.06.19.11.29.15.37.18.75.31 1.15.38-.09-.15-.15-.32-.21-.49.67.28 1.4.41 2.09.56-.17.29-.24.66-.25 1.04 0 .39.06.8.16 1.11 0 .04.02.07.03.1.06.15.12.3.21.43.05.1.12.2.2.3.1.13.22.2.32.33.05.05.07.09.1.14.25 0 .49-.03.71-.09.35-.11.64-.31.86-.59.21-.25.35-.58.43-.96.05-.29.12-.65.16-1 0-.08.02-.15.02-.23v-.65c-.06-.87-.31-1.86-.8-2.56-.51-.7-1.26-1.09-2.04-1.3-.32-.09-.65-.16-.98-.19h-.12c-.64-.02-1.45.27-1.92.72-.19.19-.34.34-.46.5-.06.08-.12.17-.16.26-.14.18-.24.38-.31.6-.1.29-.15.6-.15.93.08.07.15.13.23.19.02.01.04.03.06.05.04.04.08.07.12.09Zm3.86 2.19s.03-.07.04-.1v.1h-.03Zm-.23-1.41c.09 0 .18 0 .25.01v.06c-.1-.03-.19-.05-.28-.07h.02Z" style="fill:#731a13;stroke-width:0"/><path d="M163.4 126.53s-.02.07-.04.1h.03v-.1Zm-.02-1.3c-.07 0-.16 0-.25-.01h-.02c.1.03.18.05.28.07v-.06Z" style="fill:#301815;stroke-width:0"/><path d="M162.57 125.25c0 .16-.02.37-.02.56.02.1.05.2.05.29v.08c0 .15 0 .29-.05.42-.12.39-.29.51-.31.96-.03.24 0 .51-.08.75v.02s-.02.09-.02.13h.02c.11-.05.22-.11.32-.18.07-.05.14-.09.21-.13 0 .01.01.01.02.03.15-.09.32-.16.47-.26-.09-.13-.15-.28-.21-.43 0-.03-.02-.07-.03-.1-.1-.31-.17-.72-.16-1.11 0-.38.08-.75.25-1.04-.69-.16-1.42-.29-2.09-.57.06.17.12.34.21.49.4.09.8.12 1.19.11h.18Z" style="fill:#f8b3a8;stroke-width:0"/><path d="M160.69 128.43h.02c.08.06.16.1.27.12a1.523 1.523 0 0 0 .96-.02c.07-.02.14-.05.21-.08 0-.05.01-.1.02-.14v-.02c.07-.24.05-.51.08-.75.02-.45.19-.57.31-.96.04-.13.06-.28.05-.42v-.08c0-.09-.03-.19-.05-.29 0-.19.02-.4.02-.56h-.18a4.8 4.8 0 0 1-1.19-.11c-.39-.08-.78-.2-1.15-.38-.1-.05-.2-.1-.29-.15-.01.16-.05.33-.09.51 0 .03 0 .05-.02.09-.05.3-.04.59 0 .87 0 .04.01.1.03.14.06.3.14.6.24.88.08.22.15.44.24.64.02.05.05.1.07.15.06.11.12.21.2.3.07.09.16.17.26.23Z" style="fill:#facabf;stroke-width:0"/><ellipse cx="52.8" cy="202.93" rx="5.73" ry="3.32" style="fill:#1c1b1a;opacity:.14;stroke-width:0"/><path d="M57.09 201.25c.02-.44-.44-.47-.7-.92a.488.488 0 0 1-.03-.07c-.12-.23-.36-.6-.38-.8s-.07.07-.07.07l-.55.23c-.51.2-1.02.23-1.54-.46-.02.22-.04.43-.07.57-.03.15-.03.26-.05.38.04.05.11.12.2.21.07.08.15.16.25.25.05-.08.18-.03.25.03.11.09.13.23.15.35.54.5 1.19 1.04 1.5 1.17.13 0 .25-.02.38-.05l.39-.19c.13-.09.21-.19.23-.29 0-.03.05-.3.04-.34.02-.05.02-.09 0-.13Z" style="fill:#00373f;stroke-width:0"/><path d="M54.72 171.47c0 .06.01.13.01.19-.12-.77-.4-1.44-.73-2.12 0-.02 0-.05-.01-.07-.04-.21-.06-.48-.11-.71.03.03.07.05.1.07.06-.14.07-.28.06-.42.13.24.23.49.29.7.22.77.33 1.55.4 2.35Z" style="fill:#bae4f9;stroke-width:0"/><path d="M53.25 168.48v-.03h.01c.14-.03.26.03.37.12.08.06.17.13.25.2.05.23.07.5.11.71h-.02c-.06.01-.11.03-.16.07-.12-.28-.26-.55-.4-.8-.05-.1-.11-.18-.16-.27Z" style="fill:#3c1b12;stroke-width:0"/><path d="M53.64 169.7c-.23-.13-.46-.36-.64-.57 0-.02.01-.05.02-.07.06-.22.12-.43.19-.61h.02s.02.01.03.03c.06.08.11.17.16.27.15.24.28.51.4.8-.06.04-.12.09-.18.16Z" style="fill:#4e2413;stroke-width:0"/><path d="M51.4 164.21c.07.01.13.02.21.02.11.33.16.61.16.61-.09.36-.03.36.08.78.07.26.01.48 0 .77-.03.47.06.73.02 1.09-.2-.06-.4-.15-.58-.24-.23-.2-.34-.46-.41-.65h.01c-.05-.14-.09-.34-.14-.55.13.1.27.2.41.3-.15-.73 0-.99.04-1.34.03-.3.08-.53.07-.8.03.01.07.02.11.03Z" style="fill:#f79d5f;stroke-width:0"/><path d="M51.29 167.23c.17.09.37.17.58.24.53.18 1.09.28 1.23.27.02 0 .05 0 .08-.02v.03c.02.14.03.29.04.43v.11c-.08.51-1.9.78-2.41-.12l-.06-.73-.03-.37V167l-.03-.36c.06 0 .12-.01.18-.07.07.19.18.45.41.65Z" style="fill:#f8b3a8;stroke-width:0"/><path d="M50.76 166.02c.04.21.09.41.14.55h-.01c-.07.06-.13.07-.18.07-.27-.04-.38-.71-.49-1.01-.14-.37.26-.49.4-.36.05.16.1.45.16.74Z" style="fill:#f9ad78;stroke-width:0"/><path d="M52.08 203.73c.01-.48-.46-.53-.73-1-.05-.08-.29-.43-.33-.54v-.01c-.07.08-.08.07-.26.11h-.05c-.63.13-1.67.07-2.07-.26v.02c-.02.07-.03.13-.04.18-.03.17-.03.29-.05.42.09.11.24.27.44.47.05-.1.18-.06.26 0 .12.1.13.25.16.4.58.55 1.27 1.16 1.6 1.3.2 0 .42-.05.6-.14.24-.12.43-.29.46-.45 0-.04.05-.34.04-.37.02-.05.02-.1 0-.15Z" style="fill:#00373f;stroke-width:0"/><path d="M56.2 186.19c-.01-.37-.03-.73-.04-1.08-.01-.4-.03-.79-.04-1.17 0-.25-.01-.48-.02-.72 0-.31-.02-.62-.03-.92-.01-.37-.28-.08-.35.4-.06.07-.13.14-.2.2-.33.31-.73.57-1.11.79-.11.07-.22.13-.33.18-.29.16-.6.31-.9.44-.35.15-.72.26-1.1.32-.03 0-.06.01-.09.02v-.09c-.13.07-.27.12-.41.17-.13.02-.25.03-.38 0h-.04c.01.03.02.06.04.1-.6.02-1.63-.51-2.31-.91-.07-.04-.14-.08-.2-.12-.03.26-.05.52-.07.78 0 .36.01.74.04 1.17 0 .2.02.49.03.85.21 1.09.34 1.94.34 1.94l.16 6.92c-.06 1.11-.34 2.5-.51 4.28-.04 1.1-.22 2.18-.22 2.18.04.04.09.08.14.12 0 .01.02.02.03.03v-.03c.5.42 1.83.5 2.64.33h-.2c.23-.05-.03-.31.06-.42v.02c.01-.01.03-.02.04-.04.03-.04.04-.08.04-.12v-.17c.02-1.11.46-3.44.67-6.09.17-2.13.65-6.1.83-8.19.03.16.6.86.63 1.05.08.51.41 4.85.51 5.83.2 1.96-.23 4.28-.12 4.96l.07.1c.64.91 1.29.86 1.93.6l.14-.3-.19-.09h.28c.04-1.15.5-4.13.39-7.53-.06-1.88-.13-3.89-.2-5.78Z" style="fill:#58536f;stroke-width:0"/><path d="M56.25 172.73c-.1-.55-.26-1.07-.37-1.58-.16-.69-.6-2.82-.71-3.11 0-.02-.02-.05-.03-.07-.25-.28-.73-1.7-1.39-1.45.02.39-.11.09-.15.46.01.12.06.04-.07.14-.16.14-.07.51-.24.58-.04.01-.07.03-.11.03v.03c.02.14.03.29.04.43.01.04.02.07 0 .11-.08.51-1.9.78-2.41-.12l-.06-.73c-.01-.13-.47.28-.64.65-.03.03-.06.06-.08.09-.8.81-1.19 1.67-1.8 2.58l-.02.02s-.07.08-.1.13c-.04.06-.08.12-.11.18-.02.03-.03.06-.05.09-.05.09-.09.19-.13.29-.02.04-.03.07-.04.11l-.09.18c0 .02-.01.03-.02.04-.03.06-.05.13-.07.19-.11.34-.19.7-.24 1.05-.02.12-.04.23-.05.35-.01.12-.03.24-.03.36-.1 1.18-.79 6.92-.82 8.36l-.03 1.9c0 .35 0 .69-.02 1.03.01.02.02.04.04.06.06.09.13.17.21.24.37.32.9.47 1.38.38.01 0 .02 0 .04-.01a.79.79 0 0 0 .3-.12c.02 0 .03-.02.04-.03.05-.03.1-.07.14-.12v-.12c0-.24.02-.51.05-.78.02-.25.04-.52.07-.78.06.04.13.08.2.12.67.4 1.7.93 2.31.91-.02-.03.25-.08.38-.1.14-.05.46-.09.49-.09.38-.06.75-.18 1.1-.32.31-.12.61-.28.9-.44.11-.06.21-.12.33-.18.38-.22.78-.48 1.11-.79.07-.06.68-.75.73-.84.09-.13-1.24-4.07-.8-4.16-.36.07.82-5.1.81-5.17Z" style="fill:#535ca8;stroke-width:0"/><path d="M48.21 186.64s-.06-.06 0 0c-.01-.21-.02-.45-.04-.67-.03 0-.06.02-.09.03-.41.09-.94.22-1.22-.3-.04.26-.1.74.05 1.66.16.61.39.92.62 1.1.19.15.4-.11.54-.03.07-.67.06-1.63.14-1.79Z" style="fill:#f79d5f;stroke-width:0"/><path d="M48.39 185.98c-.61.07-1.4.16-1.82-.29.01-.05.03-.1.04-.15.02-.06.04-.11.07-.17.37.32.9.47 1.38.38.01 0 .02 0 .04-.01a.79.79 0 0 0 .3-.12l.02.03c0 .11 0 .22-.02.33Z" style="fill:#bae4f9;stroke-width:0"/><path d="M53.2 167.93c-.3.44-1.89.61-2.36-.23-.02-.24-.04.3-.02.54.5.9 2.33.63 2.41.12v-.11c0-.11-.02-.21-.02-.32Z" style="fill:#fff;stroke-width:0"/><path d="M46.64 165.16c.05-.02.11-.05.16-.08-.06.03-.12.07-.18.11 0-.01.01-.01.02-.03Z" style="fill:#731a13;stroke-width:0"/><path d="M54.15 163.11s.03-.04.05-.06c.06-.07.11-.15.17-.23-.07-.3-.18-.58-.33-.82-.11-.19-.24-.35-.41-.49-.06-.08-.13-.14-.2-.21-.14-.12-.32-.23-.53-.36-.52-.32-1.33-.41-1.92-.26-.04 0-.07.02-.11.03-.3.1-.58.23-.86.38-.68.36-1.28.87-1.6 1.63-.31.75-.33 1.71-.2 2.52 0 .04.02.08.02.11 0 .04.02.09.03.14l.02.07c.01.08.03.14.05.21l.02.07c.02.07.05.14.07.21.11.32.25.63.36.89.16.34.36.6.6.79.26.22.58.34.92.36.22.01.44 0 .67-.06.02-.05.03-.1.06-.15.07-.14.16-.23.22-.37.05-.1.09-.21.12-.32.05-.14.08-.28.1-.44v-.1c.03-.31 0-.7-.09-1.05-.08-.35-.23-.68-.45-.9.6-.29 1.25-.56 1.81-.96-.02.17-.04.34-.09.49a4.417 4.417 0 0 0 1.2-.79c.07-.07.14-.13.2-.21.03-.03.06-.07.09-.11Zm-3.21 2.95-.03-.09c.02.03.03.06.06.09h-.03Zm-.04-1.36c-.08.04-.16.08-.24.13v-.06c.07-.02.14-.04.23-.06h.02Z" style="fill:#c4775a;stroke-width:0"/><path d="M50.55 165.83s.02.07.04.1h-.03v-.1Zm.01-1.23h.25c-.09.02-.17.04-.27.07v-.06Z" style="fill:#301815;stroke-width:0"/><path d="M51.33 164.62c0 .15.02.35.02.53-.02.09-.05.19-.05.27v.08c0 .14 0 .27.05.4.11.37.27.48.29.9.03.22 0 .49.07.71v.02s.02.08.02.12h-.02c-.11-.05-.21-.11-.31-.17-.07-.04-.13-.08-.19-.12l-.02.02c-.14-.09-.3-.15-.45-.24.08-.13.14-.26.19-.4 0-.03.02-.06.03-.1.1-.3.16-.68.15-1.05 0-.36-.08-.71-.23-.98.65-.15 1.34-.27 1.97-.54-.06.16-.11.32-.2.46-.37.08-.76.11-1.13.1h-.17Z" style="fill:#f8b3a8;stroke-width:0"/><path d="M53.1 167.62h-.02c-.07.05-.15.09-.26.12h-.04c-.28.09-.59.07-.87-.02-.07-.02-.13-.04-.19-.07s-.01-.09-.02-.13v-.02c-.07-.22-.04-.49-.07-.71-.02-.42-.18-.54-.29-.9-.04-.12-.05-.26-.05-.4v-.08c0-.09.03-.18.05-.27 0-.18-.02-.37-.02-.53h.17c.37 0 .75-.02 1.13-.1.37-.07.73-.19 1.08-.36.1-.04.19-.09.27-.14.01.15.05.31.09.49 0 .03 0 .05.02.08.04.28.04.55 0 .82 0 .04-.01.09-.03.13-.05.28-.14.56-.23.83-.08.21-.14.42-.23.61-.02.05-.04.1-.07.14-.05.11-.11.2-.18.28-.07.09-.15.16-.25.22Z" style="fill:#facabf;stroke-width:0"/><path d="M236.17 29.39h-1.78V28.3h1.78v-1.92h1.09v1.92h1.78v1.09h-1.78v1.92h-1.09v-1.92ZM13.91 195.19h-1.78v-1.09h1.78v-1.92H15v1.92h1.78v1.09H15v1.92h-1.09v-1.92Zm-12.67-11.1H0v-.76h1.24v-1.34H2v1.34h1.24v.76H2v1.34h-.76v-1.34ZM223.89 17h-1.24v-.76h1.24V14.9h.76v1.34h1.24V17h-1.24v1.34h-.76V17Zm-122.1 98.75h-1.24v-.76h1.24v-1.34h.76v1.34h1.24v.76h-1.24v1.34h-.76v-1.34Z" style="fill:#535ca8;stroke-width:0"/><path d="m128.68 29.98 3.54 3.54.41-.41-3.54-3.54c-.25-.25-.55-.37-.67-.25s0 .41.25.67Z" style="fill:#f05e56;stroke-width:0"/><path d="m129.09 33.06 3.54-3.54-.41-.41-3.54 3.54c-.25.25-.37.55-.25.67s.41 0 .67-.25Z" style="fill:#f05e56;stroke-width:0"/><path d="m131.8 132.12 3.54 3.54.41-.41-3.54-3.54c-.25-.25-.55-.37-.67-.25s0 .41.25.67Z" style="fill:#535ca8;stroke-width:0"/><path d="m132.21 135.19 3.54-3.54-.41-.41-3.54 3.54c-.25.25-.37.55-.25.67s.41 0 .67-.25Z" style="fill:#535ca8;stroke-width:0"/><path d="m299.4 2.62-.93-1.48L300.22.1s.07-.05.11-.07c.15-.06.34-.06.52.04.31.18 7.84 4.54 10.46 6.03.49.28.82.9.81 1.42-.03 2.19-.05 8.33-.06 8.64 0 .48-.56.5-.79.36 0 0 .15.81.15 1.39.01.92.03 1.83-.02 1.68-.86-2.57-3.24-4.88-5.3-6.07-2.6-1.51-5.2-3.01-5.3-3.09-.21-.15-.68-.69-.68-1.19 0-1.49-.01-5.01-.03-7.14l-.69.51Z" style="fill:#3b2c81;stroke-width:0"/><path d="m294.43 3.45-1.48-.88 1.61-.93c.15-.13.4-.16.64-.03.31.18 7.3 4.24 9.91 5.73.49.28.82.9.81 1.42-.03 2.19-.04 7.7-.05 8.01 0 .18-.08.29-.19.36l-1.54.88-.39-1.37.21-.14a259.111 259.111 0 0 1-4.99-2.87c-.52-.31-1.34-.5-2.08-.3-.88.24-1.64.9-1.64.9s-.18-.64-.11-1.56c.08-1 .24-1.19.24-1.19s-.2-.12-.21-.13c-.21-.15-.68-.69-.68-1.19 0-1.5-.02-4.77-.04-6.71Z" style="fill:#1baab4;stroke-width:0"/><path d="M292.81 2.86c0 .26.05 6.08.05 8.23 0 .49.47 1.04.68 1.19.02.01.21.13.21.13s-.15.2-.24 1.19c-.08.92.11 1.56.11 1.56s.76-.66 1.64-.9c.74-.2 1.56 0 2.08.3a259.111 259.111 0 0 0 6.12 3.5c.23.13.78.12.79-.36 0-.31.01-5.82.05-8.01 0-.52-.32-1.14-.81-1.42-2.62-1.49-9.6-5.56-9.91-5.73-.37-.21-.77 0-.77.31Z" style="fill:#14af4b;stroke-width:0"/><path d="m294.84 6.34 7.22 4.23v-.72l-7.22-4.19v.68zm-.83 1.69 8.05 4.68v-.8l-8.05-4.64v.76zm3 3.85 4.94 2.93v-.79l-4.94-2.89v.75z" style="fill:#fff;stroke-width:0"/><path d="M298.46 1.14 300.21.1s.07-.05.11-.07c.15-.06.34-.06.52.04.31.18 7.84 4.54 10.46 6.03.21.12.4.31.53.53l-3.52 2.03-8.23-5.76v-.79l-.55.41-.37-.26-.71-1.12Z" style="fill:#415a75;stroke-width:0"/><path d="M298.36 1.4c0 .26.04 6.71.03 8.86 0 .49.47 1.04.68 1.19.11.07 2.71 1.58 5.3 3.09 2.06 1.19 4.44 3.5 5.3 6.07.05.15.04-.76.02-1.68 0-.58-.16-1.4-.15-1.39.23.13.78.12.79-.36 0-.31.03-6.45.06-8.64 0-.52-.32-1.14-.81-1.42-2.62-1.49-10.15-5.85-10.46-6.03-.37-.21-.77 0-.77.31Z" style="fill:#3b2c81;stroke-width:0"/><path d="m301.2 5.45 7.23 4.22v-.72l-7.23-4.19v.69zm-.83 1.68 8.06 4.68v-.8l-8.06-4.64v.76zm3 3.85 4.95 2.93v-.78l-4.95-2.9v.75z" style="fill:#fff;stroke-width:0"/></g></svg>