<svg xmlns="http://www.w3.org/2000/svg" data-name="Layer 2" viewBox="0 0 2437.91 1701.93"><g data-name="‘ëîé_1"><path d="M2287 1609.66c-59.21 58.64-426.11-16.85-504.08-21.64l-1541.2 18.56c-219.65-146.98-415.21-728.07 9.46-961.29C465.2 527.76 148.7 181.44 601.3 61.39c420.37-111.51 329.22 175.68 927.15-24.29 448.88-150.12 628.18 196.38 659.96 308.77 16.17 57.19 33.84 116.43 34.47 176.15 4.06 385.49 107.67 334.68 173.03 489.45 35.21 83.37 112.06 379.33-108.91 598.19Z" style="fill:#dde7fe;stroke-width:0"/><path d="M1939.29 1485.82c-.13-.01-.26-.04-.39-.08a1.959 1.959 0 0 1-1.3-2.45c83.47-270.76 159.03-461.81 212.75-537.94 1.19-1.69 2.05-2.91 2.38-3.53.51-.96 1.7-1.32 2.66-.81.96.51 1.32 1.7.81 2.66-.45.83-1.27 2.01-2.64 3.95-53.49 75.8-128.86 266.45-212.21 536.83-.28.91-1.16 1.47-2.07 1.38Z" style="fill:#bdd1f9;stroke-width:0"/><path d="M2187.55 931.65c-6.36 8.54-38.18 24.08-40.62 22.27-2.44-1.82 3.33-36.76 9.69-45.3 6.36-8.54 18.44-10.31 26.98-3.95s10.31 18.44 3.95 26.98Zm-61.42 25.68c3.06 10.46-3.84 46.02-6.83 46.9-2.98.87-27.98-25.35-31.04-35.81-3.06-10.46 2.93-21.42 13.39-24.48 10.46-3.06 21.42 2.93 24.48 13.39Z" style="fill:#bdd1f9;stroke-width:0"/><path d="M2163.51 1019.87c-10.88.63-43.98-14.11-44.16-17.21-.18-3.1 31-21.55 41.88-22.18 10.88-.63 20.21 7.68 20.83 18.56.63 10.88-7.68 20.2-18.56 20.83Zm-131.8 116.64c7 16.9 1.92 77.5-2.91 79.5-4.82 2-51.28-37.25-58.28-54.14-7-16.9 1.02-36.27 17.92-43.27 16.9-7 36.27 1.02 43.27 17.92Z" style="fill:#bdd1f9;stroke-width:0"/><path d="M2105.4 1234.13c-18.04 3.02-75.94-15.58-76.8-20.73-.86-5.15 47.84-41.57 65.88-44.59 18.04-3.02 35.11 9.16 38.12 27.2 3.02 18.04-9.16 35.11-27.2 38.12Zm-121.71-30.1c12.91 18.28 23.16 91.99 17.94 95.68-5.22 3.68-71.24-30.65-84.15-48.94-12.91-18.28-8.55-43.57 9.73-56.47 18.28-12.91 43.57-8.55 56.48 9.73Z" style="fill:#bdd1f9;stroke-width:0"/><path d="M2089.16 1331.85c-22.34 1.4-90.47-28.53-90.87-34.91-.4-6.37 63.47-44.58 85.8-45.98 22.34-1.4 41.58 15.57 42.98 37.91 1.4 22.34-15.57 41.58-37.91 42.98Zm-135.51-39.54c12.91 18.28 23.16 91.99 17.95 95.68-5.22 3.68-71.25-30.65-84.15-48.94-12.91-18.28-8.55-43.57 9.73-56.47 18.28-12.91 43.57-8.55 56.47 9.73Z" style="fill:#bdd1f9;stroke-width:0"/><path d="M2059.12 1420.13c-22.34 1.4-90.47-28.53-90.87-34.91-.4-6.37 63.47-44.58 85.8-45.98 22.34-1.4 41.58 15.57 42.98 37.91 1.4 22.34-15.57 41.58-37.91 42.98Zm-26.64 87.33c-21.99 4.18-93.33-17-94.52-23.27-1.19-6.28 57.39-52.17 79.38-56.35 21.99-4.18 43.2 10.25 47.38 32.24 4.18 21.99-10.25 43.2-32.24 47.38Zm64.53-494.34c3.11 10.62-3.9 46.76-6.93 47.65-3.03.89-28.43-25.76-31.54-36.39-3.11-10.62 2.98-21.76 13.6-24.87 10.62-3.11 21.76 2.98 24.87 13.6Z" style="fill:#bdd1f9;stroke-width:0"/><path d="M2133.55 1077.33c-11.05.64-44.68-14.33-44.86-17.49-.18-3.15 31.5-21.9 42.55-22.54 11.05-.64 20.53 7.8 21.17 18.86.64 11.05-7.8 20.53-18.86 21.17Zm-69.71-12.44c5.64 14.68-.08 66.66-4.27 68.27-4.19 1.61-43.25-33.16-48.9-47.84-5.64-14.68 1.68-31.16 16.37-36.8 14.68-5.64 31.15 1.68 36.8 16.36Z" style="fill:#bdd1f9;stroke-width:0"/><path d="M2122.87 1156.23c-15.7.91-63.48-20.36-63.74-24.84-.26-4.48 44.75-31.11 60.45-32.02 15.7-.91 29.16 11.09 30.07 26.79.91 15.7-11.09 29.16-26.79 30.07Z" style="fill:#bdd1f9;stroke-width:0"/><path d="M1882.2 1631.26s-212.91-69-34.77-411.33c0 0 259.04 301.46 34.77 411.33Z" style="fill:#7c9af2;stroke-width:0"/><path d="m1847.35 1219.16 9.91 398.89c-50.38-31.66-148.51-132.54-9.91-398.89Zm74.6 384.92s-82.71-269.4 399-333.09c0 0-123.66 484.95-399 333.09Z" style="fill:#91b5f8;stroke-width:0"/><path d="m2320.95 1270.99-399 333.09s239.99 184.98 399-333.09Z" style="fill:#7c9af2;stroke-width:0"/><ellipse cx="1279.25" cy="1626.22" rx="1158.67" ry="75.7" style="fill:#bdd1f9;stroke-width:0"/><g style="opacity:.7"><path d="M1079.36 744.49c.13-.01.25-.04.38-.08 1.02-.32 1.6-1.4 1.28-2.43-82.51-267.66-157.2-456.51-210.31-531.77-1.18-1.67-2.03-2.88-2.36-3.49-.51-.95-1.68-1.3-2.63-.8s-1.3 1.68-.8 2.63c.44.83 1.26 1.98 2.61 3.9 52.88 74.93 127.38 263.4 209.77 530.67.28.9 1.14 1.45 2.04 1.36Z" style="fill:#bdd1f9;stroke-width:0"/><path d="M833.95 196.68c6.29 8.44 37.75 23.81 40.16 22.01 2.41-1.79-3.29-36.34-9.58-44.78-6.29-8.44-18.23-10.19-26.67-3.9-8.44 6.29-10.19 18.23-3.9 26.67Zm60.71 25.38c-3.03 10.34 3.8 45.5 6.75 46.36 2.95.86 27.66-25.06 30.69-35.4 3.03-10.34-2.9-21.17-13.24-24.2-10.34-3.03-21.17 2.9-24.2 13.24Z" style="fill:#bdd1f9;stroke-width:0"/><path d="M857.71 283.89c10.75.62 43.47-13.94 43.65-17.01.18-3.07-30.65-21.3-41.4-21.93-10.75-.62-19.97 7.59-20.59 18.34-.62 10.75 7.59 19.97 18.35 20.59ZM988 399.19c-6.92 16.7-1.89 76.61 2.87 78.58 4.77 1.98 50.69-36.82 57.61-53.52 6.92-16.7-1.01-35.85-17.71-42.77-16.7-6.92-35.85 1.01-42.77 17.71Z" style="fill:#bdd1f9;stroke-width:0"/><path d="M915.15 495.69c17.83 2.98 75.07-15.4 75.92-20.49.85-5.09-47.29-41.1-65.12-44.08-17.83-2.98-34.7 9.06-37.69 26.89-2.98 17.83 9.06 34.7 26.89 37.68Zm120.31-29.75c-12.76 18.07-22.9 90.94-17.74 94.58 5.16 3.64 70.43-30.3 83.19-48.38 12.76-18.07 8.45-43.07-9.62-55.83-18.07-12.76-43.07-8.45-55.83 9.62Z" style="fill:#bdd1f9;stroke-width:0"/><path d="M931.21 592.29c22.08 1.38 89.44-28.2 89.83-34.51.4-6.3-62.74-44.07-84.82-45.45-22.08-1.38-41.1 15.39-42.49 37.47-1.38 22.08 15.39 41.1 37.47 42.49Zm133.95-39.09c-12.76 18.07-22.9 90.94-17.74 94.58 5.16 3.64 70.43-30.3 83.19-48.38 12.76-18.07 8.45-43.07-9.62-55.83-18.07-12.76-43.07-8.45-55.83 9.62Z" style="fill:#bdd1f9;stroke-width:0"/><path d="M960.91 679.56c22.08 1.38 89.44-28.2 89.83-34.5.4-6.3-62.74-44.07-84.82-45.45-22.08-1.38-41.1 15.39-42.49 37.47-1.38 22.08 15.39 41.1 37.47 42.49Zm26.33 86.33c21.73 4.13 92.26-16.8 93.44-23 1.18-6.2-56.74-51.57-78.47-55.7-21.73-4.13-42.7 10.13-46.84 31.87-4.13 21.73 10.13 42.7 31.87 46.84Zm-63.79-488.67c-3.08 10.5 3.86 46.23 6.85 47.1 3 .88 28.1-25.47 31.18-35.97 3.08-10.5-2.95-21.51-13.45-24.58-10.5-3.08-21.51 2.95-24.58 13.45Z" style="fill:#bdd1f9;stroke-width:0"/><path d="M887.33 340.69c10.92.63 44.17-14.17 44.35-17.29.18-3.12-31.14-21.65-42.06-22.28s-20.29 7.71-20.92 18.64c-.63 10.92 7.71 20.29 18.64 20.92Zm68.9-12.29c-5.58 14.51.08 65.9 4.22 67.49 4.14 1.59 42.76-32.78 48.33-47.29 5.58-14.51-1.66-30.8-16.18-36.38-14.51-5.58-30.8 1.66-36.37 16.18Z" style="fill:#bdd1f9;stroke-width:0"/><path d="M897.88 418.69c15.52.9 62.75-20.13 63.01-24.56.26-4.43-44.24-30.75-59.76-31.65-15.52-.9-28.83 10.96-29.73 26.48-.9 15.52 10.96 28.83 26.48 29.73Z" style="fill:#bdd1f9;stroke-width:0"/></g><path d="M811.22 642.79s118.89-267.33-305.24-394.14c0 0 31.87 515.81 305.24 394.14Z" style="fill:#7c9af2;stroke-width:0"/><path d="m505.42 247.9 315.57 359.09c15.69-76.7 14.43-260.42-315.57-359.09Zm273.77 470.27S753.9 385.74 195.85 523.68c0 0 345.69 480.68 583.34 194.49Z" style="fill:#91b5f8;stroke-width:0"/><path d="M195.86 523.68 779.2 718.17s-184.41 307.41-583.34-194.49Z" style="fill:#7c9af2;stroke-width:0"/><path d="M1755.87 633.87c-248.04-320.38-575.3 72.35-575.3 72.35S853.3 313.5 605.27 633.87c-248.04 320.38 575.3 937.02 575.3 937.02s823.34-616.64 575.3-937.02Z" style="fill:#fa7267;stroke-width:0"/><path d="M1420.15 372.78c.71-5.28 9.7-18.31 9.7-18.31s5.26 14.93 4.55 20.21c-.71 5.28-4.47 9.14-8.4 8.61-3.93-.53-6.55-5.23-5.85-10.52Zm-26.77 23.98c.71-5.28 9.7-18.31 9.7-18.31s5.26 14.93 4.55 20.21c-.71 5.28-4.47 9.14-8.4 8.61-3.93-.53-6.55-5.23-5.85-10.52Zm27.16 35.53c.71-5.28 9.7-18.31 9.7-18.31s5.26 14.93 4.55 20.21c-.71 5.28-4.47 9.14-8.4 8.61-3.93-.53-6.55-5.23-5.85-10.52Z" style="fill:#91b5f8;stroke-width:0"/><path d="M1778.36 1611.03c-2.49 0-4.67-1.74-5.08-4.19L1644.31 822.2c-.45-2.7 1.47-5.25 4.28-5.67 2.8-.45 5.44 1.42 5.88 4.12l128.97 784.64c.45 2.7-1.47 5.25-4.28 5.67-.27.04-.54.06-.81.06Zm190.48 0c-2.49 0-4.68-1.74-5.08-4.19L1834.78 822.2c-.45-2.7 1.47-5.25 4.28-5.67 2.8-.45 5.44 1.42 5.89 4.12l128.98 784.64c.45 2.7-1.47 5.25-4.28 5.67-.27.04-.54.06-.81.06Z" style="fill:#1a217d;stroke-width:0"/><path d="M1853.15 907.22h-190.47c-2.84 0-5.15-2.22-5.15-4.96s2.3-4.96 5.15-4.96h190.47c2.85 0 5.15 2.22 5.15 4.96s-2.3 4.96-5.15 4.96Zm27.87 158.08h-190.47c-2.85 0-5.15-2.22-5.15-4.96s2.3-4.96 5.15-4.96h190.47c2.84 0 5.15 2.22 5.15 4.96s-2.3 4.96-5.15 4.96Zm28.4 187.4h-190.47c-2.84 0-5.15-2.22-5.15-4.96s2.3-4.96 5.15-4.96h190.47c2.84 0 5.15 2.22 5.15 4.96s-2.3 4.96-5.15 4.96Zm28.51 170.29H1752.3c-2.84 0-5.15-2.22-5.15-4.96s2.3-4.96 5.15-4.96h185.63c2.84 0 5.15 2.22 5.15 4.96s-2.3 4.96-5.15 4.96Z" style="fill:#1a217d;stroke-width:0"/><path d="M1564.99 298.11c.07-3.81 6.75-6.94 6.14-10.68.38-2.16.71-4.33.93-6.52.14-1.35.09-2.65-.04-3.93 3.9 1.46 10.33 3.19 10.33 3.19s-14.43-10.13-11.28-11.89c3.15-1.76 13.92 5.02 18.6 9.12 4.68 4.1 17.8 17.95 17.8 17.95l-7.18 14.12c-9.67 1.32-21.02-1.01-29.41-4.16.69-2.12-5.93-4.97-5.89-7.2Z" style="fill:#eda792;stroke-width:0"/><path d="M1497.24 276.46h61.85v70.45h-61.85z" style="fill:#010552;stroke-width:0" transform="rotate(162.05 1528.17 311.707)"/><path d="m1510.27 340.05-74.87-13.67-1.59-4.91 70.63.6 5.83 17.98z" style="fill:#010552;stroke-width:0"/><path d="M1429.27 309.89h6.87v27.49h-6.87z" style="fill:#010552;stroke-width:0" transform="rotate(170.91 1432.708 323.62)"/><path d="M1562.25 326.82c11.27-4.63 19.43-15.55 21.83-29.2 1.83-10.38-.37-19.86-5.74-24.75-2.66-2.42-5.98-3.58-9.62-3.35-10.67.68-21.38 12.9-22.57 14.29l5.23 4.46c2.71-3.17 11.19-11.48 17.78-11.9 1.8-.11 3.25.39 4.55 1.57 3.59 3.26 5 10.51 3.6 18.47-1.54 8.74-6.99 19.65-17.67 24.04l2.61 6.36Z" style="fill:#010552;stroke-width:0"/><path d="M1569.22 275.58s15.15 6.91 14.46 9.16c-.7 2.25-13.65-.42-13.47-.3.18.11 13.21 5.13 13.33 8.43.11 3.3-14.65-.44-14.65-.44s12.57 3.81 12.52 6.07c-.05 2.26-12.47-.06-12.66.79-.19.85 10.65 2.05 10.71 4.86.07 2.81-15.27 1.71-16.76-1.1-1.49-2.81 1-4.9 1-4.9s-1.98-4.98.02-7.14c0 0-.1-7.33 3.09-8 0 0-2.69-5.82 2.41-7.42Z" style="fill:#ee817f;stroke-width:0"/><path d="M1711.52 863.29s-10.45 4.21-26.71.76c0 0-47.38 17.32-46.62 31.4 0 0-2.32 4.05 19.02 4.29 21.33.23 54.45 1.05 55.36.6.91-.44 9.31-5.51-1.05-37.06Z" style="fill:#050731;stroke-width:0"/><path d="M1966.32 373.25s2.4 17.59 4.67 23.77c2.28 6.16-.1 13.83 3.71 13.78 3.81-.03 4.48-12.67 4.48-12.67s9.84 9.06 12.43 12.31 8.72 7.87 11.24 6.15c2.53-1.71-11.05-16.44-11.05-16.44s12.65 11.27 15.31 10.18c2.67-1.08-11.32-17.78-11.32-17.78s12.9 12.67 14.78 12.79c1.88.11 2.09-2.29-1.38-7.89-3.48-5.6-8.48-10.42-8.48-10.42s9.73 8.24 11.24 8.81c1.52.58 4.02.28-2.01-7.47-6.02-7.75-21.79-22.37-32.64-26.47l-11 11.34Z" style="fill:#eda792;stroke-width:0"/><path d="m1684.8 864.06-7.28-46.16 34.43-3.3.34 51.11s-20.95 5.07-27.49-1.65Zm140.23-7.08-17.87-43.19 32.71-11.25 11.73 51s-18.65 8.43-26.57 3.44Z" style="fill:#fff;stroke-width:0"/><path d="M1850.82 849.99s-9.18 6.53-25.8 6.99c0 0-42.02 27.9-38 41.42 0 0-1.29 4.49 19.5-.28 20.79-4.75 53.19-11.7 53.97-12.34.78-.65 7.77-7.53-9.68-35.8Zm-121.73-346.32s-49.43 115.32-54.88 168.88c-5.45 53.56-1.2 171.16-1.2 171.16l48.51 1.69s1.63-137.7 11.34-176.18c9.71-38.48 53.75-102.63 56.14-102.55 2.38.08-26.14 178.24 14.59 277.62 0 0 51.27-8.96 49.01-12.62-2.27-3.66-19.67-86.69-9.02-152.01 10.64-65.31 39.82-182.55 37.73-190.98-2.09-8.43-152.21 14.99-152.21 14.99Z" style="fill:#050731;stroke-width:0"/><path d="M1749.69 254.39s54.47-19.25 93.5-8.32c39.04 10.92 111.19 69.66 143.03 115.84l-22.46 22.81s-75.39-64.21-98.9-57.86c0 0 28.51 124.03 31.53 174.3 0 0-96.49 26.49-173.45 7.07 0 0-1.83-138.99-3.74-132.06-4.76 17.27-74.62 121.3-130.7-66.16l18.29-16.11s42.58 90.77 64.62 51.47c24-42.8 31.97-81.49 78.27-90.97Z" style="fill:#1042bf;stroke-width:0"/><path d="M1704.72 212.53s-4.82-3.09-6.31-.3c-3.82 7.11 4.57 10.35 9.03 9.93l-2.71-9.63Z" style="fill:#d38877;stroke-width:0"/><path d="M1696.31 197.01h.04c-.22-.45-.45-.91-.65-1.36-9.03-20.44.95-44.48 22.29-52.28 17.77-6.5 37.98.99 47.2 17.52 3.42 6.13 4.99 12.71 4.97 19.15.39 9.78.64 18.17.18 25.44-.75 12.04 6.37 30.32 13.02 40.37-17.29 28.37-33.66 8.54-33.66 8.54l-3.69-7.61a4.32 4.32 0 0 0-5.4-2.19c-.01 0-.03 0-.04.02-27.88 10.21-38.85-35.4-44.24-47.61Z" style="fill:#eda792;stroke-width:0"/><path d="M1741.21 199.47c-.8-1.83.02-3.97 1.85-4.78 1.83-.8 3.96.03 4.77 1.85.81 1.83-.01 3.97-1.84 4.77a3.62 3.62 0 0 1-4.78-1.84Zm-32.02 7.12c-.81-1.83.01-3.97 1.84-4.77 1.83-.81 3.97.01 4.77 1.84.81 1.83-.01 3.97-1.85 4.77-1.83.81-3.97-.02-4.77-1.84Zm41.6-17.52c.34-.16.64-.39.87-.72.68-.96.45-2.29-.51-2.96-2.89-2.04-9.87-4.04-15.64 2.94-.74.9-.61 2.24.29 2.99.9.74 2.24.61 2.99-.29 4.73-5.73 9.72-2.33 9.92-2.18.63.44 1.42.5 2.09.21Zm-33.33 8.55c.34-.16.65-.39.88-.72.67-.96.44-2.29-.52-2.96-2.89-2.04-9.87-4.04-15.63 2.94-.75.9-.62 2.24.28 2.99.9.74 2.24.61 2.99-.29 4.74-5.73 9.72-2.33 9.93-2.17.63.44 1.42.5 2.08.21Z" style="fill:#05061f;stroke-width:0"/><path d="m1771.11 165.23.99 28.32-7.04 1.57-17.6-29.33 23.65-.56z" style="fill:#080b51;stroke-width:0"/><path d="M1763.72 194.8c.06-1.4.68-2.73 1.65-3.73 2.02-2.08 5.87-5.08 10.17-3.42 6.3 2.44 2.63 17.91-8.6 15.99 0 0-3.58-1.39-3.22-8.84Z" style="fill:#eda792;stroke-width:0"/><path d="M1729.5 218.99c3.86.14 5.93-2.81 5.95-2.85a.61.61 0 0 0-.17-.87.617.617 0 0 0-.87.16c-.1.14-2.42 3.4-6.85 1.93-.72-.23-1.15-.5-1.3-.77-.18-.39.06-1.1.41-2.1.78-2.29 2.1-6.13.18-12.61a.623.623 0 0 0-.79-.42c-.34.1-.53.45-.42.79 1.81 6.09.63 9.55-.16 11.84-.43 1.24-.76 2.2-.34 3.06.3.62.93 1.05 2.02 1.41.83.28 1.61.41 2.33.45Z" style="fill:#d38877;stroke-width:0"/><path d="M1745.53 219.11s-12.78 7.64-23.09 7.43c0 0 6.72 9.44 14.93 6.8 8.22-2.64 8.16-14.24 8.16-14.24Z" style="fill:#fff;stroke-width:0"/><path d="M1695.93 180.67s-3.53 5.84 4.77 27.99c0 0-12.38-23.3-10.88-27.13 1.5-3.83 6.1-.86 6.1-.86Z" style="fill:#080b51;stroke-width:0"/><path d="M1770.03 156.34c-2.3-5.27-6.4-9.55-10.67-13.38 2.7-.5 5.66-1.19 7.24-3.42 1.57-2.25.22-6.33-2.51-6.05-1.58.16-2.68 1.63-4.12 2.31-3.28 1.56-6.93-1.31-9.07-4.24-2.15-2.94-4.33-6.5-7.93-7-1.13-.15-2.3.04-3.33.52.47 4.26 2.41 8.32 5.4 11.37a50.804 50.804 0 0 0-18.88-7.48c-5.23-.92-11.04-.9-15.33 2.23.23 4.23 7.3 4.02 9.38 7.69-9.28.59-18.48 2.6-27.15 5.96-2.24.87-4.49 1.85-6.22 3.51-1.74 1.66-2.87 4.12-2.35 6.46.69 3.08 4.47 5.01 7.36 3.77-3.72 3.43-7.49 6.91-10.2 11.18-2.72 4.27-4.31 9.5-3.24 14.45 3.23-.99 6.2-2.84 8.52-5.29-1.36 2.42-2.16 5.68-.38 7.83 1.31 1.59 3.67 1.96 5.67 1.47 2-.5 3.73-1.73 5.4-2.93 8.47-6.05 16.94-12.09 25.41-18.13a34.183 34.183 0 0 0-3.16 16.64c8.25-3.73 15.36-9.95 20.16-17.64 2.08 3.79 4.69 7.28 7.74 10.35.48.48 1.01.97 1.68 1.1 2.24.43 2.87-2.89 4.17-4.77 1.58-2.3 4.9-2.57 7.64-2.04 4.73.92 8.53 3.24 10.11-2.51 1.06-3.87.25-8.37-1.33-11.96Z" style="fill:#080b51;stroke-width:0"/><path d="M1279.63 1073s44.02-5.2 51.4 39.8c7.38 45.01 3.02 93.56-14.19 109.46-17.21 15.9-53.21-1.29-53.21-1.29s-48.1-4.61-59.97-29.56c-11.87-24.95 26.85-121.68 75.96-118.41Z" style="fill:#05061f;stroke-width:0"/><path d="M1335.94 1563.9s-10.02 42.11-1.95 48.11c14.61 10.88 42.6 23.12 39.16 30.33-3.44 7.21-73.25-1.81-74.27-8.94-1.02-7.13 9.6-27.09 6.78-69.1l30.29-.4Z" style="fill:#ec9793;stroke-width:0"/><path d="M1301.62 1618.16c-1.76 7.54-3.11 12.7-2.74 15.24 1.02 7.13 70.83 16.14 74.27 8.94 2.55-5.34-12.01-13.7-25.8-21.92-4.23 5.34-12.81 13.41-45.73-2.26Z" style="fill:#05061f;stroke-width:0"/><path d="M1100.88 1602.75s-39.3-10.77-45.21-3.37c-10.7 13.4-23.11 39.35-29.78 35.88-6.67-3.47 4.04-68.87 10.78-69.6 6.74-.73 25.19 9.9 64.8 8.58l-.59 28.51Z" style="fill:#ec9793;stroke-width:0"/><path d="M1050.91 1568.73c-7.04-1.9-11.85-3.33-14.25-3.07-6.74.73-17.45 66.14-10.78 69.6 4.95 2.57 13.27-10.87 21.44-23.58-4.89-4.15-12.21-12.48 3.58-42.96Z" style="fill:#05061f;stroke-width:0"/><path d="M1140.11 1412.31s-5 10.89-6.13 45.58c-1.13 34.7 43.04 101.15 39.15 106.09-3.9 4.94-98.08 3.73-98.08 3.73l2.81 42.64s165.78 18.24 178.45 1.7c18.94-24.71-30.28-115.13-26.26-128 4.02-12.87 71.4-4.43 78.29 7.5 6.89 11.92-11.55 101.08-11.55 101.08l38.65 4.61s59.17-108.33 31.06-144.13c-23.28-29.64-98.63-32.86-98.63-32.86l-127.75-7.94Z" style="fill:#1042bf;stroke-width:0"/><path d="M1423.61 1348.66s18.74-7.41 26.11-8.58c7.37-1.17 13.63-7.78 15.71-3.99s-10.05 11.47-10.05 11.47 14.43 4.7 19.09 5.47c4.66.77 12.63 4.26 12.33 7.71-.3 3.45-22.4-1.81-22.4-1.81s18.17 6.26 18.58 9.5c.4 3.24-23.89-1.32-23.89-1.32s19.71 5.73 20.87 7.52c1.15 1.8-1.1 3.35-8.57 3.01-7.47-.33-15.01-2.6-15.01-2.6s13.55 5.06 14.96 6.24c1.41 1.17 2.5 3.82-8.51 2.16-11.01-1.66-34.24-9.14-44.33-17.59l5.11-17.19Z" style="fill:#ec9793;stroke-width:0"/><path d="M1315.38 1148.35s4.67-4.23 6.81-1.48c5.44 7.02-3.7 12.15-8.61 12.5l1.81-11.02Z" style="fill:#da706c;stroke-width:0"/><path d="M1288.4 1075.63c-21.14-3.96-42.25 8.76-48.67 29.29a42.697 42.697 0 0 0-1.35 20.04c2.03 15.92 3.78 28.77 7.5 38.75 3.77 10.12 3.83 21.24-.29 31.22l-4.17 10.07c21.06 18.25 34.71 8.87 34.71 8.87l6.17-24.15c26.91 3.56 35.75-45.53 39.39-59.77h-.04c.16-.53.31-1.06.45-1.6 6.09-23.84-9.12-48.13-33.7-52.73Z" style="fill:#ec9793;stroke-width:0"/><path d="M1308.41 1146.99a3.743 3.743 0 0 0-7.04-2.54 3.743 3.743 0 0 0 7.04 2.55Zm-35.17-4.91c.7-1.94-.3-4.08-2.24-4.79-1.94-.7-4.08.3-4.79 2.24-.7 1.94.3 4.08 2.24 4.79 1.94.7 4.08-.3 4.79-2.24Z" style="fill:#050731;stroke-width:0"/><path d="M1293.82 1171.15s-2.66-2.9-4.63-2.75c-1.97.15-3.45 2.21-3.45 2.21s-.67-2.48-2.95-2.97c-2.27-.49-9.01 0-9.01 0s3.99 10.87 11.14 10.52c7.15-.35 8.74-6.7 8.74-6.7l.16-.31Z" style="fill:#da706c;stroke-width:0"/><path d="M1286.65 1173.85c-8.14.11-14.6-7.15-14.68-7.25a.523.523 0 0 1 .05-.74c.22-.19.55-.17.74.05.42.49 10.5 11.8 21.15 4.45.24-.17.57-.1.73.14.17.24.11.57-.13.73-2.69 1.85-5.35 2.59-7.86 2.62Z" style="fill:#211037;stroke-width:0"/><path d="M1262.66 1133.84c-.43-.13-.79-.45-.97-.89-.33-.79.05-1.7.84-2.03.24-.1 5.93-2.35 12.47.01.81.29 1.23 1.18.94 1.99-.29.81-1.25 1.21-1.99.93-5.45-1.97-10.18-.08-10.23-.06-.35.14-.72.15-1.06.05Zm38.45 3.16a1.554 1.554 0 0 1 .4-2.9c.25-.05 6.2-1.28 12.26 2.25.74.43 1 1.38.56 2.13-.43.74-1.41.99-2.12.56-5.02-2.92-10-1.91-10.05-1.9-.37.08-.74.02-1.05-.14Z" style="fill:#050731;stroke-width:0"/><path d="M1286.02 1160.05c4.45.44 6.69-2.41 7.3-4.23.11-.32.09-.67-.06-.97-2.64-5.67-.49-12.43-.47-12.49.22-.69-.15-1.43-.84-1.65-.68-.22-1.42.15-1.65.83-.1.31-2.37 7.39.34 13.87-.51.94-2.11 2.91-6.12 1.67-.7-.21-1.42.17-1.64.86-.21.69.17 1.42.86 1.64.81.25 1.57.4 2.27.47Z" style="fill:#da706c;stroke-width:0"/><path d="M1281.91 1100.94s12.38 16.94 22.93 32.17c10.55 15.24-6.48 57.84-6.48 57.84l26.37-32.92s17.63-74.77-36.32-82.4c-53.95-7.63-56.36 48.31-51.24 61.68 5.12 13.37 8.04 5.24 8.04 5.24s32.22-32.09 36.7-41.61Z" style="fill:#05061f;stroke-width:0"/><path d="M1248.06 1139.84c-.33-1.51-1.23-2.84-2.48-3.75-2.57-1.89-7.3-4.44-11.66-1.85-6.4 3.79.4 19.93 12.25 15.8 0 0 3.64-2.16 1.89-10.2Z" style="fill:#ec9793;stroke-width:0"/><path d="m1426.08 1348.96-3.38 18.39s-61.43 25.01-85.16 10.05c-14.78-9.33-28.56-29.22-36.86-42.9-5.02-8.28-8.03-14.29-8.03-14.29s-4.07 25.75-14.98 26.7l-3.71 61.96-.03 9.91s-94.28 24.41-139.82 5.39c0 0 16.58-181.37 39.47-205.08 22.89-23.7 53.34-12.68 53.34-12.68l9.24-19.06 51.99 19.34-5.53 16.8s25.74 9.02 38.52 35.85c4.3 9.03 10.97 21.1 18.24 33.25 14.32 23.9 31.04 48.12 36.95 50.17 8.91 3.09 49.73 6.18 49.73 6.18Z" style="fill:#fff;stroke-width:0"/><path d="M1173.59 1219.12c-31.31 63.57-36.06 148.99-22.33 167.1 13.73 18.11 114.69 55.31 114.69 55.31l5.9-17.45s-79.24-55.7-81.18-64.63c-1.95-8.93 23.41-97.54 23.41-97.54l-40.48-42.79Z" style="fill:#ec9793;stroke-width:0"/><path d="M1232.12 1333.05c10.44.04 17.55-4.32 17.67-4.4.17-.11.22-.34.12-.51-.11-.18-.33-.22-.51-.12-.21.13-21.29 13.04-44.15-6.59a.375.375 0 0 0-.52.04c-.13.15-.12.39.04.52 9.95 8.54 19.57 11.02 27.35 11.05Z" style="fill:#05061f;stroke-width:0"/><path d="M1271.85 1424.07s19.81-3.7 27.27-3.44c7.46.25 14.87-5.04 16.18-.92 1.32 4.12-12.05 9.34-12.05 9.34s13.27 7.36 17.69 9.01c4.42 1.64 11.58 6.59 10.63 9.92-.95 3.33-21.64-6.05-21.64-6.05s16.65 9.61 16.43 12.87c-.22 3.26-23.2-5.85-23.2-5.85s18.26 9.38 19.05 11.36c.79 1.98-1.72 3.07-8.99 1.32-7.27-1.75-14.24-5.41-14.24-5.41s12.34 7.55 13.5 8.97c1.16 1.42 1.73 4.23-8.77.5-10.49-3.73-29.46-13.95-37.76-24.17l5.9-17.45Zm154.23-75.11-3.38 18.39s-61.43 25.01-85.16 10.05c-14.78-9.33-28.56-29.22-36.86-42.9l38.71-41.9c14.32 23.9 31.04 48.12 36.95 50.17 8.91 3.09 49.73 6.18 49.73 6.18Z" style="fill:#ec9793;stroke-width:0"/><path d="M1185.47 1209.96s-21.61 9.78-32.79 41.25l62.08 33.02 17.35-38.95-46.64-35.32Z" style="fill:#fff;stroke-width:0"/><path d="M1499.88 1420.95c16.97-22.89 5.31-55.8-21.98-64.01-13.01-3.91-28.06-5.27-39.03 3.24-23.69 18.39-58.43-1.66-64.61 9.53s2.36 26.35 20.77 39.65c18.41 13.3 72.48 30.94 92.18 22.2 4.93-2.18 9.2-5.92 12.67-10.6Z" style="fill:#3669ce;stroke-width:0"/><path d="M1439.6 1379.92c.94-2.63-.43-5.52-3.06-6.46-2.63-.94-5.52.43-6.46 3.06-.94 2.63.43 5.52 3.06 6.46 2.63.94 5.52-.43 6.46-3.06Zm149.31 239.45s30.04 3.95 50.46-5.66c20.43-9.61 52.87-62.77 67.28-46.4 14.42 16.37-58.27 88.46-117.75 65.03-59.47-23.43 0-12.96 0-12.96Z" style="fill:#050731;stroke-width:0"/><path d="M1440.53 1418.14s-22.83 94.6-16.82 128.12c6.01 33.52 88.91 96 111.74 96s67.28 9.61 81.7-12.01c14.42-21.63-38.45-97.41-63.68-127.4-25.23-29.99-48.06-80.46-48.06-80.46l-64.88-4.24Z" style="fill:#3669ce;stroke-width:0"/><path d="M1481.38 1362.3s-21.63 4.01-24.03 28.44c-2.4 24.43-.8 64.48 24.03 65.28 24.83.8 28.84-52.58 26.43-73.15-2.4-20.57-26.43-20.57-26.43-20.57Z" style="fill:#050731;stroke-width:0"/><path d="M1441.73 1508.89s10.81 104.13 0 108.93c-10.81 4.81-21.23 17.62-7.61 23.23 13.62 5.61 28.84.8 35.24-6.41 6.41-7.21 20.83-107.33 20.83-107.33l-48.46-18.42Zm143.38 55.31c-10.48-16.7-54.87-20.07-76.69 18.38-16.18 28.5-4.97 40.59-13.6 40.32-8.63-.27-16.21 16.08-13.1 21.48 3.11 5.41 99.39-.88 99.39-.88s38.49-24.36 4.01-79.31Z" style="fill:#3669ce;stroke-width:0"/><path d="M1386.22 1366.17s-1.83 6.16-6.11 7c-4.28.84-7.84 0-7.84 0s1.11-8.34 3.86-8.34 10.08 1.34 10.08 1.34Z" style="fill:#050731;stroke-width:0"/><path d="M1469.07 575.54c-6.83-1.33-24.97-15.68-24.59-17.63.38-1.95 22.59-8.43 29.42-7.1 6.83 1.33 11.28 7.95 9.95 14.77-1.33 6.83-7.95 11.28-14.77 9.95Zm-12.06 60.65c-7.88 2.41-34.85-2.49-35.54-4.74-.69-2.25 18.93-21.4 26.81-23.81 7.88-2.41 16.23 2.02 18.64 9.91 2.41 7.88-2.02 16.23-9.91 18.64Zm-43.84-12.39c2.91 3.76 5.76 19.32 4.68 20.15-1.07.83-15.4-5.86-18.31-9.62-2.91-3.76-2.21-9.17 1.55-12.08s9.17-2.21 12.08 1.55Z" style="fill:#91b5f8;stroke-width:0"/><path d="M1442.29 539.45c2.22 3.63 3.24 17.74 2.2 18.38-1.04.63-13.13-6.71-15.35-10.34a7.695 7.695 0 0 1 2.56-10.59 7.695 7.695 0 0 1 10.59 2.56Zm-68.43 45.74c4.43-.07 17.63 6.49 17.65 7.75.02 1.26-12.97 8.22-17.4 8.29-4.43.07-8.08-3.47-8.15-7.9-.07-4.43 3.47-8.08 7.9-8.15Z" style="fill:#91b5f8;stroke-width:0"/><path d="M1363.62 566.38c-2.75-3.48-7.11-16.72-6.4-17.28.7-.56 12.59 6.74 15.34 10.21 2.75 3.48 2.98 7.88.51 9.83-2.47 1.95-6.7.72-9.45-2.76Z" style="fill:#7c9af2;stroke-width:0"/><path d="M1381.52 606.06c4.62.31 17.79 8.27 17.7 9.59-.09 1.32-14.21 7.44-18.82 7.13a8.375 8.375 0 0 1-7.8-8.92c.31-4.62 4.3-8.11 8.92-7.8Zm21.96-28.54c-1.01 4.32-10.56 15.53-11.79 15.25-1.23-.29-4.84-14.57-3.83-18.89a8.02 8.02 0 0 1 9.64-5.99 8.02 8.02 0 0 1 5.99 9.64Z" style="fill:#91b5f8;stroke-width:0"/><path d="M1415.91 495.82c-3.29 2.71-17.14 5.71-17.92 4.77-.77-.94 4.81-13.97 8.09-16.68a7.725 7.725 0 0 1 10.87 1.04 7.725 7.725 0 0 1-1.04 10.87Z" style="fill:#fff;stroke-width:0"/><path d="M1397.67 481.64c1.98 3.78 2.06 17.95.98 18.52-1.08.56-12.68-7.58-14.66-11.35a7.716 7.716 0 0 1 3.26-10.42 7.716 7.716 0 0 1 10.42 3.26Z" style="fill:#fff;stroke-width:0"/><path d="M1380.32 493.93c4.24-.46 17.46 4.65 17.59 5.86.13 1.21-11.69 9.03-15.93 9.49-4.24.46-8.05-2.6-8.51-6.84a7.719 7.719 0 0 1 6.84-8.51Z" style="fill:#fff;stroke-width:0"/><path d="M1386.65 513.71c1.07-4.13 10.54-14.68 11.71-14.38 1.18.31 4.3 14.13 3.23 18.26-1.07 4.13-5.29 6.6-9.41 5.53-4.13-1.07-6.6-5.29-5.53-9.41Z" style="fill:#fff;stroke-width:0"/><path d="M1407.56 516.12c-3.42-2.55-9.62-15.3-8.89-16.27.73-.97 14.71 1.35 18.13 3.9a7.713 7.713 0 0 1 1.57 10.8 7.713 7.713 0 0 1-10.8 1.57Z" style="fill:#fff;stroke-width:0"/><circle cx="1398.67" cy="499.85" r="2.54" style="fill:#91b5f8;stroke-width:0"/><path d="M1418.52 644.09c.18-.84 18.54-83.96 42.07-115.42l-.71-.53c-23.65 31.61-42.04 114.92-42.23 115.76l.87.19Z" style="fill:#91b5f8;stroke-width:0"/><path d="M1479.07 493.25c0 1.03-2.15 36.67-12.11 38.25-9.96 1.58-16.24-5.23-14.77-10.93 2.36-9.16 26.88-27.32 26.88-27.32Z" style="fill:#7c9af2;stroke-width:0"/><path d="M1400.94 642.44c2.07-25.85-5.67-44.76-12.52-56.07-7.44-12.27-15.48-18.51-15.56-18.58l-.54.7c.32.24 31.67 24.9 27.74 73.87l.88.07Zm12.17 0c5.03-62.01-11.67-133.94-11.84-134.66l-.86.2c.17.72 16.84 72.52 11.82 134.39l.88.07Z" style="fill:#91b5f8;stroke-width:0"/><path d="M408.18 1048.17s-21.12 42.2-12.26 45.44c8.87 3.25 41.69-69.35 41.69-69.35l24.32 5.46s-45.91 128.33-82.74 104.92c-36.83-23.41-5.46-101.88-5.46-101.88l34.44 15.41Z" style="fill:#ff9a95;stroke-width:0"/><path d="M412.69 882.11c-.67 10.14 3.25 20.56.43 30.33-3.74 12.93-17.86 20.11-23.85 32.17-6.28 12.62-2.98 29.21-11.86 40.16-3.16 3.89-7.55 6.6-10.91 10.32-7.75 8.59-8.67 22.58-2.12 32.11 7.3 10.61 21.38 14.33 34.26 14.26 12.88-.08 25.66-3.11 38.53-2.5 13.09.62 25.89 5 38.98 4.58 18.13-.59 35.1-10.62 46.87-24.41 11.77-13.8 18.82-31.06 23.32-48.63 1.71-6.7 3.09-13.51 3.47-20.41 1.48-26.87-12.14-52.25-27.88-74.08-7.19-9.97-15.32-19.88-26.45-25.09-25.28-11.82-80.46-3.86-82.79 31.22Z" style="fill:#00022e;stroke-width:0"/><path d="M538.5 1554.53s-4.6 45.46 4.68 50.61c16.81 9.34 47.81 18.24 45.21 26.26-2.6 8.02-76.9 8.33-78.96 1.02-2.06-7.31 6.26-29.69-2.56-73.25l31.63-4.65Z" style="fill:#ff9a95;stroke-width:0"/><path d="M510.17 1616.1c-.79 8.14-1.48 13.72-.74 16.33 2.06 7.31 76.36 7 78.96-1.02 1.93-5.95-14.48-12.65-30.05-19.33-3.68 6.18-11.53 15.82-48.16 4.02Z" style="fill:#010652;stroke-width:0"/><path d="M399.14 1553.22s-12.28 44.01-4.01 50.67c14.97 12.06 44 26.12 40.08 33.58-3.92 7.46-77.19-4.88-77.98-12.44-.79-7.56 11.23-28.19 9.95-72.61l31.96.81Z" style="fill:#ff9a95;stroke-width:0"/><path d="M360.74 1609.07c-2.17 7.89-3.79 13.27-3.51 15.96.79 7.56 74.06 19.9 77.98 12.44 2.91-5.53-12.12-14.93-26.32-24.16-4.68 5.47-14.06 13.63-48.15-4.24Zm169.1-457.5s20.18 24.45 29.29 53.06c9.1 28.62-15.05 367.65-15.05 367.65h-40.33s-21.39-301.93-21.39-304.61c0-10.55-79.4 304.61-79.4 304.61H362.7s21.79-369.01 72.35-420.71l47.31 2.93 47.48-2.93Z" style="fill:#010652;stroke-width:0"/><path d="M529.84 1138.89v12.68s-24.06 23.41-94.79 0l-.16-12.68 62.11-3.9 32.84 3.9Z" style="fill:#00022e;stroke-width:0"/><path d="M505.8 985.93s25.06-.93 37.78 7.85c9.1 6.28 29.18 41.7 29.18 41.7l-23.06 19.6s5.5 21.37-15.97 32.1l-3.89 51.7s-40.32 23.41-94.95 0c0 0-13.36-90.98-19.88-79.84-3.39 5.8-6.82 9.89-6.82 9.89l-43.65-27.62s37.87-50.81 51-57.05c30.83-14.63 55.75-.56 55.75-.56l34.5 2.22Z" style="fill:#e5625c;stroke-width:0"/><path d="M516.8 906.6s2.76-5.41 5.62-3.66c7.31 4.45.84 12.21-3.47 14.21l-2.16-10.55Z" style="fill:#ff9a95;stroke-width:0"/><path d="M467.56 850.39c-20.39 3.69-35.04 22.39-33.77 43.07.42 6.8 2.44 13.07 5.66 18.51 7.29 13.63 13.28 24.6 20.05 32.31 6.86 7.82 10.74 17.81 10.44 28.21l-.3 10.5c25.22 9.2 35.07 2.87 35.07 2.87l-3.5-30.65c25.45-6.03 16.57-53.25 14.96-67.33h-.04c-.04-.52-.08-1.05-.14-1.58-2.69-23.56-24.72-40.2-48.43-35.91Z" style="fill:#ff9a95;stroke-width:0"/><path d="M469.06 892.23c-6.24 9.35-12.95 18.58-17.22 28.94-.47 1.14-3.77 9.68-2.45 10.47-7.23-4.3-12.35-11.35-16.81-18.49-7.72-12.37-7.7-28.29-1.47-41.26 6.15-12.83 18.07-20.49 31.83-23.21 14.76-2.91 31.59.23 42.11 11.62 9.88 10.69 11.96 25.41 14.52 39.14-2.88-15.41-25.1-24.62-38.24-28.67.38.12-7.78 14.49-8.22 15.2-1.31 2.1-2.67 4.19-4.06 6.27Z" style="fill:#00022e;stroke-width:0"/><path d="M453.26 922.03c-.81-1.25-2.08-2.13-3.52-2.53-2.96-.82-8.1-1.49-11.14 2.33-4.46 5.61 7.2 17.81 16.45 10.03 0 0 2.53-3.19-1.79-9.83Z" style="fill:#ff9a95;stroke-width:0"/><path d="M510.05 907.76a3.598 3.598 0 0 0-3.66-3.54 3.598 3.598 0 0 0-3.54 3.66 3.598 3.598 0 0 0 3.66 3.54 3.598 3.598 0 0 0 3.54-3.66Zm-33.34 7.65a3.598 3.598 0 0 0-3.66-3.54 3.598 3.598 0 0 0-3.54 3.66 3.598 3.598 0 0 0 3.66 3.54 3.598 3.598 0 0 0 3.54-3.66Z" style="fill:#00022e;stroke-width:0"/><path d="M506.45 933.01s-4.74-3.42-6.56-2.85c-1.82.57-2.76 2.82-2.76 2.82s-1.17-2.18-3.41-2.14c-2.24.04-6.88 6.22-6.88 6.22s6.69 9.65 13.42 8.19c6.86-1.49 6.11-11.74 6.11-11.74l.07-.5Z" style="fill:#ff7d6e;stroke-width:0"/><path d="M465.44 911.29a1.5 1.5 0 0 1-1.29-2.51c.17-.18 4.25-4.44 10.93-5a1.5 1.5 0 0 1 1.62 1.37c.07.82-.61 1.57-1.37 1.62-5.57.47-8.95 4.02-8.99 4.05-.25.27-.57.42-.91.47Zm34.37-10.6a1.489 1.489 0 0 1-.65-2.73c.21-.14 5.12-3.32 11.8-2.27.82.13 1.38.89 1.25 1.71-.13.82-.92 1.38-1.71 1.25-5.53-.87-9.64 1.79-9.69 1.81-.31.2-.65.28-.99.24Z" style="fill:#00022e;stroke-width:0"/><path d="M494.37 927.2c4.16-1.13 5.2-4.47 5.12-6.31-.01-.32-.15-.63-.38-.85-4.33-4.2-4.71-11.02-4.71-11.09-.03-.69-.62-1.23-1.32-1.2-.69.03-1.23.62-1.2 1.32.01.31.4 7.46 5.07 12.37-.13 1.02-.9 3.34-4.94 3.6-.71.05-1.22.65-1.18 1.34.05.69.64 1.22 1.34 1.18.82-.05 1.55-.18 2.21-.35Z" style="fill:#f7736e;stroke-width:0"/><path d="m506.45 933.01-19.61 4.06s7.34 4.82 12.66 4.02c5.32-.8 6.95-8.07 6.95-8.07Z" style="fill:#f9f9fb;stroke-width:0"/><path d="M467.73 1080.06c-18.29 0-25.92-18.29-25.99-18.47-.14-.35.03-.74.37-.88.34-.14.74.03.88.37.07.18 7.37 17.62 24.74 17.62s24.14-12.67 24.21-12.8c.17-.33.58-.46.91-.29.33.17.46.58.29.91-.07.14-7.17 13.54-25.42 13.54Zm81.97-24.3c-.34 0-.63-.25-.67-.6-.01-.12-1.59-12.34-11.04-21.23a.68.68 0 0 1 .93-.99c9.82 9.24 11.39 21.54 11.45 22.06.04.37-.22.71-.59.75h-.08Z" style="fill:#759bee;stroke-width:0"/><path d="M496.46 1167.23c-6.58 0-11.93-5.35-11.93-11.93s5.35-11.93 11.93-11.93 11.93 5.35 11.93 11.93-5.35 11.93-11.93 11.93Zm0-18.45c-3.59 0-6.51 2.92-6.51 6.51s2.92 6.51 6.51 6.51 6.51-2.92 6.51-6.51-2.92-6.51-6.51-6.51Z" style="fill:#bad1f6;stroke-width:0"/><path d="M470.8 1001.14s19.72 16.79 41.64 13.6c21.92-3.19 39.15-13.6 39.15-13.6s41.07 11.2 47.46 24.78c6.39 13.58 26.35 79.06 26.35 79.06s-21.94 18.34-41.53 13.58l-13.27-30.35 9.28 129.38s-61.49 16.77-124.58 0l3.99-126.98-11.18 28.75s-24.76 2.4-39.93-14.38c0 0 18.37-83.06 24.76-87.05 6.39-3.99 37.86-16.79 37.86-16.79Z" style="fill:#fff;stroke-width:0"/><path d="M558.21 1000.55s-3.26 19.64-.56 20.45c2.7.81 8.7-13.82 8.69-13.57 0 .26-3.73 16.53-.53 18.85 3.2 2.32 9.34-14.83 9.34-14.83s-4.61 15.01-2.33 16.47c2.28 1.47 8.26-12.42 9.23-12.03.97.38-5.08 11.93-2.33 13.87 2.74 1.94 11.89-14.01 10.1-17.36-1.8-3.35-5.53-2.28-5.53-2.28s-3.63-5.29-7.1-4.75c0 0-7.21-4.99-10-2.27 0 0-3.98-6.56-8.96-2.56Zm-103.56 4.33s6.08 18.96 3.53 20.15c-2.55 1.19-10.61-12.42-10.56-12.16.05.25 6.09 15.81 3.26 18.57s-11.4-13.32-11.4-13.32 6.74 14.18 4.7 15.96c-2.04 1.78-9.98-11.09-10.88-10.57-.9.52 6.75 11.07 4.32 13.39-2.43 2.32-13.8-12.13-12.51-15.71 1.29-3.58 5.14-3.06 5.14-3.06s2.82-5.76 6.34-5.72c0 0 6.41-5.98 9.56-3.7 0 0 2.98-7.07 8.5-3.83Zm250.45-18.11 9.62 14.71s5.02-14.31 7.57-14.71c2.55-.4-2.13 27.26-2.13 27.26l-19.15 5.19s-9.28-7.3-9.92-8.06c-.64-.76-.2-11.99-.2-11.99l14.2-12.4Z" style="fill:#ff9a95;stroke-width:0"/><path d="M847.73 950.25s-72.21 8.47-87.49 18.92c-15.28 10.45-30.11 182-30.11 182l-2.09 76.88s105.36 32.14 182.55 0l4.02-76.36s36.07-174.45 11.15-181.59c-24.92-7.14-78.03-19.85-78.03-19.85Z" style="fill:#010652;stroke-width:0"/><path d="M808.8 881.96s-2.84-5.27-5.62-3.48c-7.1 4.55-1.07 11.79 3.21 13.66l2.41-10.18Z" style="fill:#f7736e;stroke-width:0"/><path d="M809 863.5h.04c.03-.51.06-1.04.1-1.56 2.12-23.28 23.47-40.19 46.94-36.49 19.56 3.09 34.23 20.21 34.26 40.01.01 7.35-1.89 14.16-5.19 20.04-4.62 9.14-8.66 16.94-12.77 23.36-6.8 10.62-9.8 23.23-8.83 35.81l.76 9.89c-26.11 10.99-36.34-2.38-36.34-2.38l1.17-17.92c.15-2.34-1.52-4.38-3.83-4.75h-.04c-30.69-4.83-17.54-52.11-16.27-66.02Z" style="fill:#ff9a95;stroke-width:0"/><path d="M848.8 888.56a3.788 3.788 0 0 1 4.11-3.43 3.791 3.791 0 1 1-4.12 3.43Zm-32.9-9.76a3.791 3.791 0 1 1 3.44 4.12 3.791 3.791 0 0 1-3.43-4.12Zm46.95 5.11c.39.04.79-.03 1.16-.21 1.1-.53 1.57-1.86 1.03-2.96-1.61-3.33-6.97-8.71-15.8-5.26a2.23 2.23 0 0 0-1.26 2.88c.45 1.14 1.74 1.7 2.88 1.26 7.25-2.84 10.07 2.81 10.18 3.05.35.73 1.05 1.18 1.8 1.25Zm-34.82-9.11c.39.04.79-.03 1.16-.21 1.1-.53 1.57-1.86 1.03-2.96-1.61-3.33-6.97-8.71-15.8-5.26a2.23 2.23 0 0 0-1.26 2.88 2.23 2.23 0 0 0 2.88 1.26c7.25-2.84 10.07 2.81 10.18 3.05.35.73 1.05 1.18 1.8 1.25Zm65.52-2.36-13.49 26.41-7.24-2.14-1.19-35.77 21.92 11.5z" style="fill:#00011a;stroke-width:0"/><path d="M871.76 895.73c.78-1.25 2.01-2.15 3.42-2.57 2.9-.87 7.95-1.66 11.03 2.05 4.52 5.43-6.69 17.71-15.99 10.25 0 0-2.57-3.08 1.54-9.73Z" style="fill:#ff9a95;stroke-width:0"/><path d="M828.18 900.46c3.46 2.1 6.86.44 6.9.42a.66.66 0 0 0 .29-.88.652.652 0 0 0-.88-.29c-.16.08-3.94 1.88-7.24-1.72-.54-.59-.8-1.05-.79-1.37.02-.45.61-.98 1.43-1.72 1.88-1.69 5.04-4.53 6.57-11.44a.664.664 0 0 0-.5-.79.67.67 0 0 0-.79.5c-1.44 6.5-4.28 9.05-6.16 10.74-1.02.91-1.82 1.63-1.87 2.64-.03.71.31 1.43 1.13 2.32.62.68 1.26 1.19 1.9 1.58Z" style="fill:#f7736e;stroke-width:0"/><path d="M842.77 908.72s-15.56.49-24.89-4.94c0 0 1.34 12.05 10.2 13.81 8.85 1.76 14.7-8.87 14.7-8.87Z" style="fill:#fff;stroke-width:0"/><path d="M816.95 848.35s-6.19 3.56-9.86 28.02c0 0 .52-27.59 3.84-30.33 3.32-2.74 6.02 2.31 6.02 2.31Z" style="fill:#00011a;stroke-width:0"/><path d="M882.98 821.59c-8.09-9.06-22.97-8.28-32.58-15.71a56.209 56.209 0 0 0 12.36 16.58c-14.26-4.13-28.53-8.27-42.79-12.4a94.82 94.82 0 0 0 14.42 12.02c-11.11.96-22.31.89-33.41-.21-1.1 1.71-.37 3.96.4 5.84 4.17 10.32 9.31 21.66 19.63 25.84 3.2 1.3 6.68 1.78 10.13 1.96 13.65.74 28.74-2.61 40.03 5.11 5.23 3.58 11.73 15.97 19.18 14.18 6.63-1.59 17.72-25.12-7.36-53.22Z" style="fill:#00011a;stroke-width:0"/><path d="M928.18 971.49c21.93 22.69 75.74 82.81 78.11 144.89 2.37 62.08-65.4 109.38-65.4 109.38l-17.58-27.67s63.07-67.1-.2-126.9c-16.82-15.9 5.08-99.7 5.08-99.7Z" style="fill:#010652;stroke-width:0"/><path d="M731.95 990.63c14.2-15.69 49.29 12.9 54.39 18.9 5.11 6 61.39 102.39 61.39 102.39l-50.53 18.98-29.36-59.66 1.32 65.09-101.54 53.47s-16.6-133.3-9.58-158.26c7.02-24.96 42.05-38.36 42.05-38.36s8.75 22.98 31.86-2.55Z" style="fill:#759bee;stroke-width:0"/><path d="M727.97 1538.18s-8.45 49.42-8.77 50.03c-.33.61 3.09 5.9 3.09 5.9l13.34 2.39 12.17-5.6s7.02-39.84 8.3-46.04c1.27-6.2-28.12-6.68-28.12-6.68Z" style="fill:#ec9793;stroke-width:0"/><path d="M747.79 1590.9s-15.37 5.38-28.51-3.52c0 0-51.19 19.19-49.63 33.78 0 0-2.18 4.35 20 3.41 22.18-.94 56.65-1.93 57.57-2.44s5.27 1.83.57-31.23Z" style="fill:#fff;stroke-width:0"/><path d="M879.97 1538.18s13.05 49.42 12.72 50.03 3.09 5.9 3.09 5.9l13.34 2.39 12.17-5.6s-6.64-40.66-5.36-46.86c1.27-6.2-35.95-5.86-35.95-5.86Z" style="fill:#ec9793;stroke-width:0"/><path d="M921.28 1590.9s-15.37 5.38-28.51-3.52c0 0-51.19 19.19-49.63 33.78 0 0-2.18 4.35 20 3.41 22.18-.94 56.65-1.93 57.57-2.44.92-.51 5.27 1.83.57-31.23Z" style="fill:#fff;stroke-width:0"/><path d="m741.02 1221.39-27.51 347.98h47.28s49.99-274.97 57.08-276.18c7.09-1.21 57.75 276.18 57.75 276.18h54.27l-27.74-356.98-161.13 9.01Z" style="fill:#00022e;stroke-width:0"/><path d="M895.13 1203.34s-8.83 1.02-15.31.67l5.58 7.56 8.75 1.9.98-10.12Z" style="fill:#ff9a95;stroke-width:0"/><path d="M780.28 1118.1s-52.98-27.89-68.46-18.95c-15.48 8.94-16.01 11.08-22.45 18.95-6.44 7.86-38.36 21.91-39.63 28.29-1.28 6.38 0 25.4 0 25.4l104.69-11.36 25.85-42.34Z" style="fill:#ff7d6e;stroke-width:0"/><path d="M755.04 1130.9H898.4c.34 0 .62.28.62.62v24.37c0 .34-.28.62-.62.62H755.04c-.34 0-.62-.28-.62-.62v-24.37c0-.34.28-.62.62-.62Z" style="fill:#00022e;stroke-width:0"/><rect width="144.59" height="25.6" x="754.43" y="1105.3" rx=".62" ry=".62" style="fill:#4053e5;stroke-width:0"/><path d="M755.04 1079.69H898.4c.34 0 .62.28.62.62v24.37c0 .34-.28.62-.62.62H755.04c-.34 0-.62-.28-.62-.62v-24.37c0-.34.28-.62.62-.62Z" style="fill:#fff;stroke-width:0"/><path d="M639.52 1147.64h281.52v115.64H639.52z" style="fill:#bad1f6;stroke-width:0"/><path d="M639.52 1147.64h99.69v115.64h-99.69z" style="fill:#99bdea;stroke-width:0"/><path d="m921.18 1147.64 15.29-22.95H754.28l-15.07 23.28 181.97-.33z" style="fill:#99bdea;stroke-width:0"/><path d="M740.72 1147s-11.05 52.83-9.75 66.49c1.3 13.66 26.01 51.23 26.01 51.23l-35.76 21.89-24.06-37.35s-1.95-18.21-17.56-20.16-19.51 16.49-19.51 16.49l-37.39 33.58-21.13-40.41s33.81-25.27 38.37-33.72c4.55-8.45 9.1-51.7 17.56-58.04 8.45-6.34 83.23 0 83.23 0Z" style="fill:#314cc8;stroke-width:0"/><path d="M728.18 1146.2s-4.79 14.68-4.47 20.11c.32 5.43 12.45 21.39 6.7 29.68s-14.04-5.75-18.51-11.81c-4.47-6.06-11.81-8.62-11.81-15s9.96-18.4 11.24-24.15l16.85 1.17Z" style="fill:#ff7d6e;stroke-width:0"/><path d="M925.64 1201.76s-24.62 13.19-31.35 17.13c-6.73 3.94-16.17 2.75-15.34 7.2.84 4.44 15.72 2.6 15.72 2.6s-8.54 13.37-11.8 17.07c-3.25 3.71-7.37 11.82-4.85 14.41 2.53 2.59 16.9-16.32 16.9-16.32s-10.53 17.11-8.71 19.99c1.82 2.89 18.42-16.91 18.42-16.91s-12.13 17.7-11.87 19.91c.26 2.22 3.11 1.97 8.92-3.25 5.81-5.22 10.41-12.06 10.41-12.06s-7.59 13.07-7.95 14.96c-.36 1.89.51 4.75 8.31-3.9s22.08-29.32 24.63-42.83l-11.45-18.02ZM708.35 982.65s6.68 20.83 3.87 22.14c-2.8 1.31-11.65-13.64-11.6-13.36.05.28 6.69 17.37 3.58 20.39-3.11 3.03-12.52-14.63-12.52-14.63s7.4 15.58 5.16 17.53c-2.24 1.95-10.96-12.18-11.95-11.61-.99.57 7.42 12.15 4.74 14.7-2.67 2.55-15.16-13.32-13.74-17.25 1.42-3.93 5.65-3.36 5.65-3.36s3.1-6.32 6.96-6.29c0 0 7.04-6.57 10.5-4.06 0 0 3.28-7.76 9.33-4.21Z" style="fill:#ff9a95;stroke-width:0"/></g></svg>