<svg xmlns="http://www.w3.org/2000/svg" xmlns:xlink="http://www.w3.org/1999/xlink" data-name="Layer 2" viewBox="0 0 296.52 194.9"><defs><linearGradient id="b" x1="372.32" x2="433.8" y1="-484.47" y2="-484.47" data-name="Dégradé sans nom 21" gradientTransform="matrix(.55595 .89074 .8909 -.46125 352.32 -416.48)" gradientUnits="userSpaceOnUse"><stop offset=".5" stop-color="#b5b5b5"/><stop offset=".5" stop-color="#e9e8e8"/><stop offset="1" stop-color="#787878"/></linearGradient><linearGradient id="a" x1="161.91" x2="140.25" y1="161.7" y2="124.17" data-name="Dégradé sans nom 22" gradientTransform="matrix(.85865 .04816 .04827 .824 43.45 7.24)" gradientUnits="userSpaceOnUse"><stop offset=".3" stop-color="#00808a" stop-opacity="0"/><stop offset=".7" stop-color="#004e57"/></linearGradient><linearGradient xlink:href="#a" id="d" x1="77.48" x2="55.82" y1="145.41" y2="107.89" data-name="Dégradé sans nom 22"/><linearGradient xlink:href="#b" id="e" x1="246.84" x2="280.29" y1="-446.01" y2="-446.01" data-name="Dégradé sans nom 21"/><linearGradient xlink:href="#a" id="f" x1="-2956.78" x2="-2980.62" y1="728.16" y2="686.87" data-name="Dégradé sans nom 22" gradientTransform="matrix(.19669 .07358 .07133 .1548 655.45 158.53)"/><linearGradient xlink:href="#a" id="g" x1="246.48" x2="226.42" y1="83.86" y2="49.12" data-name="Dégradé sans nom 22"/><linearGradient xlink:href="#a" id="h" x1="523.87" x2="503.41" y1="-141.03" y2="-176.48" data-name="Dégradé sans nom 22" gradientTransform="matrix(.84195 .21915 .21956 .69781 -129.81 178.74)"/><linearGradient xlink:href="#a" id="i" x1="-1327.7" x2="-1348.17" y1="-83.39" y2="-118.83" data-name="Dégradé sans nom 22" gradientTransform="matrix(.34686 .04677 .0464 .31906 743.29 254.74)"/><linearGradient xlink:href="#b" id="j" x1="357.38" x2="382.9" y1="-542.77" y2="-542.77" data-name="Dégradé sans nom 21"/><linearGradient xlink:href="#a" id="k" x1="-3545.88" x2="-3564.07" y1="1898.91" y2="1867.41" data-name="Dégradé sans nom 22" gradientTransform="matrix(.19669 .07358 .07133 .1548 655.45 158.53)"/><radialGradient id="c" cx="129.45" cy="129.15" r="6.4" data-name="Dégradé sans nom 2" fx="129.45" fy="129.15" gradientUnits="userSpaceOnUse"><stop offset=".17" stop-color="#fff" stop-opacity=".9"/><stop offset=".8" stop-color="#5bc5cd" stop-opacity="0"/></radialGradient><radialGradient xlink:href="#c" id="l" cx="200.11" cy="79.87" r="6.4" data-name="Dégradé sans nom 2" fx="200.11" fy="79.87"/><radialGradient xlink:href="#c" id="m" cx="107.7" cy="141.17" data-name="Dégradé sans nom 2" fx="107.7" fy="141.17"/><radialGradient xlink:href="#c" id="n" cx="96.58" cy="163.11" r="6.4" data-name="Dégradé sans nom 2" fx="96.58" fy="163.11"/><radialGradient xlink:href="#c" id="o" cx="88.61" cy="52.24" r="6.4" data-name="Dégradé sans nom 2" fx="88.61" fy="52.24"/><radialGradient xlink:href="#c" id="p" cx="211.75" cy="99.23" data-name="Dégradé sans nom 2" fx="211.75" fy="99.23"/><radialGradient xlink:href="#c" id="q" cx="159.79" cy="146.26" r="6.4" data-name="Dégradé sans nom 2" fx="159.79" fy="146.26"/><radialGradient xlink:href="#c" id="r" cx="83.48" cy="70.65" r="6.4" data-name="Dégradé sans nom 2" fx="83.48" fy="70.65"/><radialGradient xlink:href="#c" id="s" cx="204.55" cy="114.86" r="6.4" data-name="Dégradé sans nom 2" fx="204.55" fy="114.86"/></defs><g data-name="Layer 1"><path d="M149.65 105.83h1.5v3h-1.5z" style="fill:#fff;stroke-width:0" transform="rotate(-61.58 150.417 107.335)"/><path d="m143.72 104.57-5.01-2.71.71-1.32 5.01 2.71-.71 1.32Zm-10.01-5.42-5.01-2.71.71-1.32 5.01 2.71-.71 1.32Zm-10.01-5.42-5.01-2.71.71-1.32 5.01 2.71-.71 1.32Zm-10.01-5.42-5.01-2.71.71-1.32 5.01 2.71-.71 1.32Zm-10.01-5.42-5.01-2.71.71-1.32 5.01 2.71-.71 1.32Zm-10.01-5.42-5.01-2.71.71-1.32 5.01 2.71-.71 1.32Zm-10.01-5.42-5.01-2.71.71-1.32 5.01 2.71-.71 1.32Zm-14.34-5.18-.85-1.23 2.84-1.97 3.05 1.65-.72 1.32-2.23-1.21-2.09 1.44zM51.8 78.95l-.85-1.23 4.38-3.02.85 1.23-4.38 3.02Zm8.76-6.04-.85-1.23 4.38-3.02.85 1.23-4.38 3.02Z" style="fill:#535ca8;stroke-width:0"/><path d="M44.26 81.46h3v1.5h-3z" style="fill:#fff;stroke-width:0" transform="rotate(-34.6 45.768 82.214)"/><path d="m201.31 140.05-5.24-2.91.73-1.31 5.24 2.91-.73 1.31Zm3.15-3.3-1.5-.03.11-6 1.5.03-.11 6Zm-13.64-2.51-5.25-2.91.73-1.31 5.25 2.91-.73 1.31Zm-10.49-5.82-5.24-2.91.73-1.31 5.24 2.91-.73 1.31Zm24.35-3.66-1.5-.03.11-6 1.5.03-.11 6Zm-34.84-2.15-5.24-2.91.73-1.31 5.24 2.91-.73 1.31Zm-10.49-5.82-5.25-2.91.73-1.31 5.25 2.91-.73 1.31Zm45.55-4.02-1.5-.03.11-6 1.5.03-.11 6Zm31.37-.78-5.34-2.73.68-1.33 5.34 2.73-.68 1.33Zm-87.41-1.02-5.24-2.91.73-1.31 5.24 2.91-.73 1.31Zm76.73-4.45-5.34-2.73.68-1.33 5.34 2.73-.68 1.33Zm-87.22-1.37-5.24-2.91.73-1.31 5.24 2.91-.73 1.31Zm76.55-4.1-5.34-2.73.68-1.33 5.34 2.73-.68 1.33Zm-9.79-.28-1.5-.03.13-7.08 1.17.59-.32.62h.63l-.11 5.9Z" style="fill:#535ca8;stroke-width:0"/><path d="m144.63 112.84-.74-1.3 5.21-2.96.74 1.3-5.21 2.96Zm10.43-5.93-.74-1.3 5.21-2.96.74 1.3-5.21 2.96Zm10.43-5.93-.74-1.3 5.21-2.96.74 1.3-5.21 2.96Zm10.43-5.93-.74-1.3 5.21-2.96.74 1.3-5.21 2.96Zm10.43-5.93-.74-1.3 5.21-2.96.74 1.3-5.21 2.96Zm10.43-5.93-.74-1.3 5.02-2.85.24.42.3-.54 1.36.76-6.18 3.51Zm-1.15-5.87-5.24-2.91.73-1.31 5.24 2.91-.73 1.31Zm-10.49-5.82-5.24-2.91.73-1.31 5.24 2.91-.73 1.31Zm-1.06-5.76-.71-1.32 5.28-2.84.71 1.32-5.28 2.84ZM91.19 74.8l-.76-1.29 5.17-3.04.76 1.29-5.17 3.04Zm10.34-6.08-.76-1.29 5.17-3.04.76 1.29-5.17 3.04Zm6.15-5.96-5.34-2.73.68-1.33 5.34 2.73-.68 1.33ZM97 57.29l-5.34-2.73.68-1.33 5.34 2.73-.68 1.33Zm-10.68-5.47-6.11-3.13 1.48-.94.26.41.11-.21L87 50.48l-.68 1.33Zm1.23-6.02-.8-1.27 5.06-3.22.8 1.27-5.06 3.22Zm10.12-6.43-.8-1.27 4.82-3.07.8 1.27-4.82 3.07ZM81.09 171.21l-.71-1.32 1.27-.68.71 1.32-1.27.68Zm6.56-3.5-.71-1.32 5.29-2.82.71 1.32-5.29 2.82Zm10.58-5.64-.71-1.32 5.29-2.82.71 1.32-5.29 2.82Zm10.58-5.64-.71-1.32.28-.15-2.54-1.37.71-1.32 4.99 2.7-2.74 1.46Zm-8.24-5.7-5.6-3.03 1.99-1.16.45.77 3.88 2.1-.71 1.32Zm2.32-5.91-.75-1.3 5.18-3.02.75 1.3-5.18 3.02Zm10.36-6.04-.75-1.3 5.18-3.02.75 1.3-5.18 3.02Zm10.36-6.04-.75-1.3 5.18-3.02.75 1.3-5.18 3.02Zm10.36-6.04-.75-1.3 5.18-3.02.75 1.3-5.18 3.02Zm12.56 41.38-.78-1.28 5.12-3.13.78 1.28-5.12 3.13Zm10.24-6.25-.78-1.28 5.12-3.13.78 1.28-5.12 3.13Zm10.24-6.25-.78-1.28 4.88-2.98.22.37.28-.52 1.38.76-5.99 3.66Zm-1.38-5.97-5.26-2.88.72-1.32 5.26 2.88-.72 1.32Zm-10.52-5.75-5.26-2.88.72-1.32 5.26 2.88-.72 1.32Zm-10.53-5.75-5.26-2.88.72-1.32 5.26 2.88-.72 1.32Zm-10.53-5.75-5.26-2.88.72-1.32 5.26 2.88-.72 1.32Z" style="fill:#535ca8;stroke-width:0"/><ellipse cx="49.97" cy="147.37" rx="7.66" ry="4.43" style="fill:#1c1b1a;opacity:.14;stroke-width:0"/><path d="m164.05 191.22-1.21.52-.5-.99h.02l-32.08-18.37c-1.09-.66-1.95-2.22-1.92-3.48l-.24-31.01c.75-1.1 1.72-1.81 2.81-1.15l33.23 19c1.09.66 1.87 2.17 1.67 3.8l-.93 30.3c-.02.73-.36 1.22-.86 1.37Z" style="fill:#cbcbca;stroke-width:0"/><path d="m128.18 144.32-.05-6.43s.07-.1.1-.15l-.17-.27 1-.61c.12-.09.24-.16.36-.22h.02c.46-.21.96-.22 1.49.1l33.23 19c.49.3.92.77 1.23 1.36l-11.91 6.16-25.31-18.95Z" style="fill:#a1a1a1;stroke-width:0"/><path d="m162.51 156.23-32.61-18.61c-1.09-.66-2.44-.34-2.47.92l-.4 30.94c-.03 1.26.83 2.82 1.92 3.48l32.51 18.6c1.09.66 2.09.12 2.12-1.14l.86-30.72c.03-1.26-.83-2.82-1.92-3.48Z" style="fill:url(#b);stroke-width:0"/><path d="m162.24 156.49-32.82-18.75c-1.09-.66-2-.17-2.03 1.09l-.71 30.49c-.03 1.26.83 2.82 1.92 3.48l32.51 18.6c1.09.66 2.09.12 2.12-1.14l.83-30.16c.08-1.43-.74-2.97-1.83-3.63Z" style="fill:#f9fafb;stroke-width:0"/><path d="m162.03 157.99-33.53-19.36-.69 32.31 33.5 19.14.72-32.09z" style="fill:#14af4b;stroke-width:0"/><path d="m164.96 188.69.01-.49-1.35.67-.01.52 1.35-.7z" style="fill:#b2b2b2;stroke-width:0"/><path d="m163.27 189.16.34.23.01-.52-.34-.2-.01.49z" style="fill:#868686;stroke-width:0"/><path d="m164.96 188.69.03-.11-1.38.69v.12l1.35-.7z" style="fill:#888;stroke-width:0"/><path d="m163.27 189.15.34.24v-.12l-.34-.21v.09z" style="fill:#767576;stroke-width:0"/><path d="m184.1 148.61-34.09-19.26c-1.33-.9-1.79-1.74-.26-2.58l20.89-10.18c1.53-.84 4.14-.76 5.3-.11l33.94 19.4c1.16.65.85 1.87-.67 2.71l-21.06 10.26c-1.53.84-2.89.42-4.05-.23Z" style="fill:url(#a);opacity:.25;stroke-width:0"/><path d="m156.01 132.64-32.89-18.83v-11.3l32.89 18.83v11.3z" style="fill:#535ca8;stroke-width:0"/><path d="m156.01 132.64 24.36-14.17v-11.3l-24.36 14.17v11.3z" style="fill:#3b2c81;stroke-width:0"/><path d="M180.37 107.17 147.35 88.2l-24.23 14.31 32.89 18.83 24.36-14.17z" style="fill:#3a3849;stroke-width:0"/><path d="m139.44 119.96-3.39-2.01v-3.89l3.39 2.01v3.89zm6.84 3.89-3.39-2v-3.9l3.39 2.01v3.89zm6.41 3.52-3.39-2.01v-3.89l3.39 2.01v3.89z" style="fill:#e8ebee;stroke-width:0"/><path d="m156.01 115.69-32.89-18.83V85.57l32.89 18.83v11.29z" style="fill:#535ca8;stroke-width:0"/><path d="m156.01 115.69 24.36-14.17v-11.3l-24.36 14.18v11.29z" style="fill:#3b2c81;stroke-width:0"/><path d="m180.37 90.22-33.02-18.97-24.23 14.32 32.89 18.83 24.36-14.18z" style="fill:#3b364a;stroke-width:0"/><path d="m139.44 103.02-3.39-2.01v-3.9l3.39 2.01v3.9zm6.84 3.89-3.39-2.01v-3.89l3.39 2.01v3.89zm6.41 3.51-3.39-2.01v-3.89l3.39 2.01v3.89z" style="fill:#e8ebee;stroke-width:0"/><path d="m156.01 98.75-32.89-18.83v-11.3l32.89 18.83v11.3z" style="fill:#535ca8;stroke-width:0"/><path d="m156.01 98.75 24.36-14.18v-11.3l-24.36 14.18v11.3z" style="fill:#3b2c81;stroke-width:0"/><path d="m180.37 73.27-33.02-18.96-24.23 14.31 32.89 18.83 24.36-14.18z" style="fill:#3b2c81;stroke-width:0"/><path d="m139.44 86.07-3.39-2.01v-3.89l3.39 2.01v3.89zm6.84 3.89-3.39-2.01v-3.89l3.39 2.01v3.89zm6.41 3.51-3.39-2v-3.9l3.39 2.01v3.89z" style="fill:#e8ebee;stroke-width:0"/><path d="m70.6 145.91-38.59-21.08c-1.49-1-1.98-2-.13-3.12l25.15-13.8c1.85-1.12 4.9-1.2 6.21-.49l38.41 21.26c1.31.71.87 2.21-.97 3.34l-25.36 13.9c-1.85 1.12-3.41.7-4.72 0Z" style="fill:url(#d);opacity:.25;stroke-width:0"/><path d="M71.72 114.15c.02-.1.02-.21 0-.31v-2.03h-.76v1.22c-.25.32-.43.34-.98.68l-25.36 13.9c-1.85 1.12-3.41.7-4.72 0L1.31 106.53c-.06-.04-.11-.07-.16-.1v-1.31H0l.04 2.1c.02.6.63 1.18 1.48 1.75l38.36 20.92c1.32.71 2.89 1.13 4.75 0l25.55-14.07c.94-.57 1.43-1.13 1.53-1.64v-.03Z" style="fill:#005257;opacity:.4;stroke-width:0"/><path d="M71.74 113.59c.02-.1.02-.21 0-.31v-2.03h-.76v1.22c-.25.32-.43.34-.98.68l-25.36 13.9c-1.85 1.12-3.41.7-4.72 0L1.33 105.97c-.06-.04-.11-.07-.16-.1v-1.31H.02l.04 2.1c.02.6.63 1.18 1.48 1.75l38.36 20.92c1.32.71 2.89 1.13 4.75 0l25.55-14.07c.94-.57 1.43-1.13 1.53-1.64v-.03Z" style="fill:#b9c2c6;stroke-width:0"/><path d="M71.74 111.25h-.76v1.22c-.25.32-.43.34-.98.68l-25.36 13.9c-.97.59-1.86.76-2.68.67V130c.82.08 1.72-.09 2.69-.69l25.55-14.07c.94-.57 1.43-1.13 1.53-1.64v-.03c.02-.1.02-.21 0-.31v-2.03Z" style="fill:#a0a8ac;stroke-width:0"/><path d="M41.33 129.91c.58.14 1.2.18 1.86.03v-2.28c-.66.15-1.28.11-1.86-.03v2.29Z" style="fill:#cbd8dd;stroke-width:0"/><path d="m39.94 127.27-38.6-21.08c-1.49-1-1.98-2-.13-3.12l25.15-13.8c1.85-1.12 4.9-1.2 6.21-.49l38.41 21.26c1.31.71.87 2.21-.97 3.34l-25.36 13.9c-1.85 1.12-3.41.7-4.72 0Z" style="fill:#ebeff0;stroke-width:0"/><path d="m27.93 117.25-9.78-5.14c-.2-.1-.34-.45.03-.64l6.79-3.68c.25-.13.73-.1.93 0l9.65 5.21c.2.1.16.45-.09.58l-6.71 3.62c-.25.13-.61.16-.81.05Zm22.48.68L17.24 99.49c-.89-.49-.73-1.31.35-1.83l9.28-5.04c1.08-.52 2.69-.54 3.57-.05l33.33 18.56c.89.49.73 1.31-.35 1.83l-9.43 4.93c-1.08.52-2.69.54-3.57.05Z" style="fill:#d2d7d9;stroke-width:0"/><path d="M27.32 96.32c-.06.03-.18.02-.26-.03l-2.07-1.14c-.09-.05-.11-.11-.05-.14l1.45-.74c.06-.03.18-.02.26.03l2.07 1.14c.09.05.11.11.05.14l-1.45.74ZM30.38 98c-.06.03-.18.02-.26-.03l-2.07-1.14c-.09-.05-.11-.11-.05-.14l1.45-.74c.06-.03.18-.02.26.03l2.07 1.14c.09.05.11.11.05.14l-1.45.74Zm-.57 2.09c-.06.03-.18.02-.26-.03l-2.07-1.14c-.09-.05-.11-.11-.05-.14l1.45-.74c.06-.03.18-.02.26.03l2.07 1.14c.09.05.11.11.05.14l-1.45.74Zm3.8-.32c-.06.03-.18.02-.27-.03l-2.07-1.14c-.09-.05-.11-.11-.05-.14l1.45-.74c.06-.03.18-.02.26.03L35 98.89c.09.05.11.11.05.14l-1.45.74Zm-.74 2c-.06.03-.18.02-.26-.03l-2.07-1.14c-.09-.05-.11-.11-.05-.14l1.45-.74c.06-.03.18-.02.27.03l2.07 1.14c.09.05.11.11.05.14l-1.45.74Zm3.79-.32c-.06.03-.18.02-.26-.03l-2.07-1.14c-.09-.05-.11-.11-.05-.14l1.45-.74c.06-.03.18-.02.26.03l2.07 1.14c.09.05.11.11.05.14l-1.45.74Zm-4.24 2.35c-.06.03-.18.02-.27-.03l-2.07-1.14c-.09-.05-.11-.11-.05-.14l1.45-.74c.06-.03.18-.02.27.03l2.07 1.14c.09.05.11.11.05.14l-1.45.74Zm3.68-.26c-.06.03-.18.02-.26-.03l-2.07-1.14c-.09-.05-.11-.11-.05-.14l1.45-.74c.06-.03.18-.02.27.03l2.07 1.14c.09.05.11.11.05.14l-1.45.74Zm3.79-.31c-.06.03-.18.02-.27-.03l-2.07-1.14c-.09-.05-.11-.11-.05-.14l1.45-.74c.06-.03.18-.02.26.03l2.07 1.14c.09.05.11.11.05.14l-1.45.74Zm-4.41 2.25c-.06.03-.18.02-.26-.03l-2.07-1.14c-.09-.05-.11-.11-.05-.14l1.45-.74c.06-.03.18-.02.27.03l2.07 1.14c.09.05.11.11.05.14l-1.45.74Zm3.84-.16c-.06.03-.18.02-.26-.03l-2.07-1.14c-.09-.05-.11-.11-.05-.14l1.45-.74c.06-.03.18-.02.26.03l2.07 1.14c.09.05.11.11.05.14l-1.45.74Zm3.8-.32c-.06.03-.18.02-.26-.03l-2.07-1.14c-.09-.05-.11-.11-.05-.14l1.45-.74c.06-.03.18-.02.26.03l2.07 1.14c.09.05.11.11.05.14l-1.45.74Zm-4.41 2.25c-.06.03-.18.02-.26-.03l-2.07-1.14c-.09-.05-.11-.11-.05-.14l1.45-.74c.06-.03.18-.02.26.03l2.07 1.14c.09.05.11.11.05.14l-1.45.74Zm3.67-.25c-.06.03-.18.02-.26-.03l-2.07-1.14c-.09-.05-.11-.11-.05-.14l1.45-.74c.06-.03.18-.02.27.03l2.07 1.14c.09.05.11.11.05.14l-1.45.74Zm3.8-.32c-.06.03-.18.02-.27-.03l-2.07-1.14c-.09-.05-.11-.11-.05-.14l1.45-.74c.06-.03.18-.02.26.03l2.07 1.14c.09.05.11.11.05.14l-1.45.74Zm-4.25 2.35c-.06.03-.18.02-.27-.03l-2.07-1.14c-.09-.05-.11-.11-.05-.14l1.45-.74c.06-.03.18-.02.27.03l2.07 1.14c.09.05.11.11.05.14l-1.45.74Zm3.68-.26c-.06.03-.18.02-.26-.03l-2.07-1.14c-.09-.05-.11-.11-.05-.14l1.45-.74c.06-.03.18-.02.27.03l2.07 1.14c.09.05.11.11.05.14l-1.45.74Zm3.62-.41c-.06.03-.18.02-.27-.03l-2.07-1.14c-.09-.05-.11-.11-.05-.14l1.45-.74c.06-.03.18-.02.26.03l2.07 1.14c.09.05.11.11.05.14l-1.45.74Zm-4.24 2.35c-.06.03-.18.02-.26-.03l-2.07-1.14c-.09-.05-.11-.11-.05-.14l1.45-.74c.06-.03.18-.02.27.03l2.07 1.14c.09.05.11.11.05.14l-1.45.74Zm3.68-.26c-.06.03-.18.02-.26-.03l-2.07-1.14c-.09-.05-.11-.11-.05-.14l1.45-.74c.06-.03.18-.02.27.03l2.07 1.14c.09.05.11.11.05.14l-1.45.74Zm3.79-.32c-.06.03-.18.02-.27-.03l-2.07-1.14c-.09-.05-.11-.11-.05-.14l1.45-.74c.06-.03.18-.02.26.03l2.07 1.14c.09.05.11.11.05.14l-1.45.74Zm-4.24 2.35c-.06.03-.18.02-.26-.03l-2.07-1.14c-.09-.05-.11-.11-.05-.14l1.45-.74c.06-.03.18-.02.26.03l2.07 1.14c.09.05.11.11.05.14l-1.45.74Zm3.67-.26c-.06.03-.18.02-.26-.03l-2.07-1.14c-.09-.05-.11-.11-.05-.14l1.45-.74c.06-.03.18-.02.26.03l2.07 1.14c.09.05.11.11.05.14l-1.45.74Zm3.63-.4c-.06.03-.18.02-.27-.03l-2.07-1.14c-.09-.05-.11-.11-.05-.14l1.45-.74c.06-.03.18-.02.26.03l2.07 1.14c.09.05.11.11.05.14l-1.45.74Zm-4.24 2.34c-.06.03-.18.02-.27-.03l-2.07-1.14c-.09-.05-.11-.11-.05-.14l1.45-.74c.06-.03.18-.02.27.03l2.07 1.14c.09.05.11.11.05.14l-1.45.74Zm5.33.66c-.06.03-.23 0-.37-.09l-3.52-1.93c-.14-.08-.21-.17-.15-.2l1.45-.74c.06-.03.23 0 .37.09l3.52 1.93c.15.08.21.17.15.2l-1.45.74Zm2.14-1.23c-.06.03-.18.02-.27-.03l-2.07-1.14c-.09-.05-.11-.11-.05-.14l1.45-.74c.06-.03.18-.02.26.03l2.07 1.14c.09.05.11.11.05.14l-1.45.74Zm-4.42 2.25c-.06.03-.17.02-.25-.02l-1.92-1.05c-.08-.04-.1-.1-.04-.14l1.45-.74c.06-.03.17-.02.25.02l1.92 1.05c.08.04.1.1.04.14l-1.45.74Zm6.65-3.3c-.06.03-.22 0-.37-.09l-3.47-1.91c-.14-.08-.21-.17-.15-.2l1.45-.74c.06-.03.23 0 .37.09l3.47 1.91c.14.08.21.17.15.2l-1.45.74Zm-4.67-2.57c-.06.03-.18.02-.27-.03l-2.07-1.14c-.09-.05-.11-.11-.05-.14l1.45-.74c.06-.03.18-.02.26.03l2.07 1.14c.09.05.11.11.05.14l-1.45.74Zm-3.23-1.77c-.06.03-.18.02-.27-.03l-2.07-1.14c-.09-.05-.11-.11-.05-.14l1.45-.74c.06-.03.18-.02.26.03l2.07 1.14c.09.05.11.11.05.14l-1.45.74Zm-3.06-1.68c-.06.03-.18.02-.27-.03l-2.07-1.14c-.09-.05-.11-.11-.05-.14l1.45-.74c.06-.03.18-.02.26.03l2.07 1.14c.09.05.11.11.05.14l-1.45.74Zm-3.23-1.77c-.06.03-.18.02-.27-.03l-2.07-1.14c-.09-.05-.11-.11-.05-.14l1.45-.74c.06-.03.18-.02.26.03l2.07 1.14c.09.05.11.11.05.14l-1.45.74Zm-3.05-1.69c-.06.03-.18.02-.27-.03l-2.07-1.14c-.09-.05-.11-.11-.05-.14l1.45-.74c.06-.03.18-.02.26.03l2.07 1.14c.09.05.11.11.05.14l-1.45.74Zm-3.23-1.77c-.06.03-.18.02-.26-.03l-2.07-1.14c-.09-.05-.11-.11-.05-.14l1.45-.74c.06-.03.18-.02.27.03l2.07 1.14c.09.05.11.11.05.14l-1.45.74Zm-3.23-1.77c-.06.03-.18.02-.27-.03l-2.07-1.14c-.09-.05-.11-.11-.05-.14l1.45-.74c.06-.03.18-.02.26.03l2.07 1.14c.09.05.11.11.05.14l-1.45.74Zm-3.06-1.68c-.06.03-.18.02-.26-.03l-2.07-1.14c-.09-.05-.11-.11-.05-.14l1.45-.74c.06-.03.18-.02.26.03l2.07 1.14c.09.05.11.11.05.14l-1.45.74ZM31 96.06c-.06.03-.22 0-.36-.08l-3.4-1.87c-.14-.08-.21-.17-.15-.2l1.45-.74c.06-.03.22 0 .36.08l3.4 1.87c.14.08.21.17.15.2l-1.45.74Zm-4.41 2.25c-.06.03-.22 0-.36-.08l-3.4-1.87c-.14-.08-.21-.17-.15-.2l1.45-.74c.06-.03.22 0 .36.08l3.4 1.87c.14.08.21.16.15.2l-1.45.74Zm-3.68.26c-.06.03-.18.02-.26-.03l-2.07-1.14c-.09-.05-.11-.11-.05-.14l1.45-.74c.06-.03.18-.02.27.03l2.07 1.14c.09.05.11.11.05.14l-1.45.74Zm3.23 1.77c-.06.03-.18.02-.26-.03l-2.07-1.14c-.09-.05-.11-.11-.05-.14l1.45-.74c.06-.03.18-.02.27.03l2.07 1.14c.09.05.11.11.05.14l-1.45.74Zm3.06 1.68c-.06.03-.18.02-.27-.03l-2.07-1.14c-.09-.05-.11-.11-.05-.14l1.45-.74c.06-.03.18-.02.26.03l2.07 1.14c.09.05.11.11.05.14l-1.45.74Zm15.09 10.66c-.06.03-.06.12-.26 0s-18.05-9.92-18.25-10.03-.4-.31-.34-.34l1.42-.72c.06-.03.51.17.67.26C30 103.21 47.82 113 45.7 111.84c.2.11.07.09.01.12l-1.42.72Zm7.79 4.31c-.06.03-.15.05-.22 0l-2.91-1.6c-.08-.04-.16-.16-.1-.19l1.42-.72c.06-.03.27.02.35.06l2.91 1.6c.08.04.04.09-.03.12l-1.42.72Z" style="fill:#334863;stroke-width:0"/><path d="M48.18 114.84c-.06.03-.13.06-.21.02l-2.91-1.6c-.08-.04-.18-.16-.11-.2l1.42-.72c.06-.03.29.02.36.07l2.91 1.6c.08.04.02.08-.04.11l-1.42.72Zm-27.5-15.13c-.06.03-.1.1-.16.06l-2.15-1.18c-.06-.03-.14-.16-.08-.19l1.42-.72c.06-.03.27.04.33.07l2.15 1.18c.06.03-.03.03-.09.06l-1.42.72Zm3.91 2.15c-.06.03-.03.14-.1.09l-2.91-1.6c-.08-.04-.11-.15-.05-.18l1.42-.72c.06-.03.22 0 .3.05l2.91 1.6c.08.04-.08 0-.15.03l-1.42.72Z" style="fill:#334863;stroke-width:0"/><path d="m31.44 88.51 40.59 22.33c.35.19 1.1.21 1.59-.02.62-.3.96-.95.96-1.38l.54-30.7c0-.77-.66-1.75-1.46-2.19l-40.53-21.5c-1.43-.7-2.96.6-2.96 1.36v29.01c0 .77.06 1.44.3 1.96s.68.94.98 1.13Z" style="fill:#d8d4d0;stroke-width:0"/><path d="m32.09 88.86 39.83 21.62c.79.44 1.43.17 1.43-.59l.57-30.24c0-.76-.64-1.74-1.43-2.17L31.96 55.66c-1.33-.66-1.79.19-1.79.95v29.42c.01.51.25 1.23.51 1.72s1.03.9 1.42 1.12Z" style="fill:#fff;stroke-width:0"/><path d="m31.96 88.29 39.65 21.97c.79.44 1.43.17 1.43-.59l.54-29.83c0-.76-.64-1.74-1.43-2.17L31.96 56.06c-.79-.44-1.43-.17-1.43.59v28.98c0 .51.04 1.06.3 1.55s.74.9 1.13 1.11Z" style="fill:#3b2c81;stroke-width:0"/><path d="m33.31 86.52 37.07 20.4.54-27.36-37.61-20.21v27.17z" style="fill:#34bcaf;stroke-width:0"/><path d="m18.15 111.65 6.79-3.68c.25-.13.73-.1.93 0l9.65 5.21s.08.07.1.11c.05-.14.02-.29-.1-.36l-9.65-5.21c-.2-.1-.68-.14-.93 0l-6.79 3.68c-.23.12-.26.3-.2.45.03-.07.09-.14.2-.2Z" style="fill:#c0c4c6;stroke-width:0"/><path d="m23.83 118.47.2-.12c.17-.1.21-.35.08-.42l-6.27-3.41c-.13-.07-.45-.08-.62.02l-.27.16 6.88 3.76Z" style="fill:#d2d7d9;stroke-width:0"/><path d="m54.14 123.57 13.01-7.25v-.64l-13.01 7.25v.64z" style="fill:#798689;stroke-width:0"/><path d="m108.71 39.3-.96.42-.39-.79h.02l-8.8-5.02c-.87-.52-1.56-1.77-1.53-2.78L96.86 6.4c.6-.88 1.37-1.44 2.24-.92l9.72 5.52c.87.52 1.49 1.73 1.34 3.03l-.74 24.17c-.01.58-.29.97-.69 1.09Z" style="fill:#cbcbca;stroke-width:0"/><path d="m96.88 11.53-.04-5.12s.05-.08.08-.12l-.13-.21.8-.48c.09-.07.19-.13.29-.17h.01c.37-.17.77-.17 1.19.08l9.72 5.52c.39.24.74.62.98 1.08l-9.5 4.92-3.4-5.48Z" style="fill:#a1a1a1;stroke-width:0"/><path d="m107.48 11.39-9.23-5.21c-.87-.52-1.95-.27-1.97.73l-.32 24.68c-.02 1 .67 2.25 1.53 2.78l9.14 5.2c.87.52 1.67.1 1.69-.91l.69-24.5c.02-1-.67-2.25-1.53-2.78Z" style="fill:url(#e);stroke-width:0"/><path d="m107.27 11.6-9.39-5.32c-.87-.52-1.6-.13-1.62.87l-.56 24.32c-.02 1 .67 2.25 1.53 2.78l9.14 5.2c.87.52 1.67.1 1.69-.91l.66-24.05c.06-1.14-.59-2.37-1.46-2.9Z" style="fill:#f9fafb;stroke-width:0"/><path d="M109.15 17.81 98.5 12.46l-1.62 18.72 10.64 5.19 1.63-18.56z" style="fill:#34bcaf;stroke-width:0"/><ellipse cx="102.63" cy="9.89" rx=".21" ry=".34" style="fill:#c3c3c3;opacity:.44;stroke-width:0" transform="rotate(-33.51 102.64 9.89)"/><path d="M102.19 35.29c.03-.57-.63-.89-1.22-1.21s-.88-.51-.91.06.36.81.94 1.13 1.16.59 1.19.03Z" style="fill:#d2d2d2;stroke-width:0"/><path d="M107.56 36.32v.06L96.26 30h-.03l.58-20.78v-.06l11.35 6.61-.6 20.55Zm-11.24-6.38 11.18 6.35.6-20.46L96.9 9.3l-.58 20.65Z" style="fill:#167b7b;stroke-width:0"/><path d="m109.43 37.29.01-.39-1.08.53v.41l1.07-.55z" style="fill:#b2b2b2;stroke-width:0"/><path d="m108.09 37.66.27.18v-.41l-.27-.16v.39z" style="fill:#868686;stroke-width:0"/><path d="m109.43 37.29.03-.09-1.1.55v.09l1.07-.55z" style="fill:#888;stroke-width:0"/><path d="m108.08 37.65.28.19v-.09l-.28-.17v.07z" style="fill:#767576;stroke-width:0"/><path d="m101.72 34.92-1.19-.62s-.05 0-.05.05.02.09.05.11l1.19.62s.05 0 .05-.05-.02-.09-.05-.11Z" style="fill:#f9fafb;stroke-width:0"/><path d="m115.74 46.76-10.26-6.7c-.41-.29-.6-.5-.29-.53l4.41-.23c.31-.04.98.2 1.33.43l10.23 6.72c.35.23.38.44.06.48l-4.45.23c-.31.04-.69-.16-1.04-.39Z" style="fill:url(#f);opacity:.25;stroke-width:0"/><path d="M141.46 53.95c-.19-.73-.32-1.47-.36-2.19-.27-4.81 3.26-7.07 7.88-5.06 3.76 1.64 7.09 5.61 8.35 9.62 1-.24 2.24-.06 3.58.61 3.31 1.66 5.98 5.69 5.97 8.98 0 .52-.07.99-.19 1.4 2.71 1.78 4.78 5.24 4.78 8.17 0 3.21-2.54 4.55-5.64 2.99-.37-.19-.73-.41-1.07-.64l-21.95-11.02a7.55 7.55 0 0 1-1.13-.47c-3.39-1.7-6.13-5.83-6.12-9.22 0-3.31 2.64-4.69 5.91-3.17Z" style="fill:#fff;stroke:#3b2c81;stroke-miterlimit:10;stroke-width:.25px"/><path d="M139.85 54.7c-.19-.73-.32-1.47-.36-2.19-.27-4.81 3.26-7.07 7.88-5.06 3.76 1.64 7.09 5.61 8.35 9.62 1-.24 2.24-.06 3.58.61 3.31 1.66 5.98 5.69 5.97 8.98 0 .52-.07.99-.19 1.4 2.71 1.78 4.78 5.24 4.78 8.17 0 3.21-2.54 4.55-5.64 2.99-.37-.19-.73-.41-1.07-.64L141.2 67.56a7.55 7.55 0 0 1-1.13-.47c-3.39-1.7-6.13-5.83-6.12-9.22 0-3.31 2.64-4.69 5.91-3.17Z" style="fill:#fff;stroke:#3b2c81;stroke-miterlimit:10;stroke-width:.25px"/><path d="M240.11 84.32 204.37 64.8c-1.38-.93-1.83-1.85-.12-2.89l23.29-12.77c1.71-1.04 4.54-1.11 5.75-.45l35.57 19.68c1.21.66.81 2.05-.9 3.09l-23.48 12.87c-1.71 1.04-3.16.65-4.37 0Z" style="fill:url(#g);opacity:.25;stroke-width:0"/><path d="M241.15 54.92a.66.66 0 0 0 0-.28v-1.88h-.7v1.13c-.23.29-.4.32-.91.63l-23.48 12.87c-1.71 1.04-3.16.65-4.37 0l-35.74-19.52c-.06-.04-.1-.07-.14-.09v-1.21h-1.07l.04 1.94c.02.56.58 1.1 1.37 1.62l35.52 19.37c1.22.66 2.68 1.05 4.4 0l23.66-13.03c.87-.53 1.33-1.05 1.42-1.52v-.03Z" style="fill:#005257;opacity:.4;stroke-width:0"/><path d="M241.16 54.4a.66.66 0 0 0 0-.28v-1.88h-.7v1.13c-.23.29-.4.32-.91.63l-23.48 12.87c-1.71 1.04-3.16.65-4.37 0l-35.74-19.52c-.06-.04-.1-.07-.14-.09v-1.21h-1.07l.04 1.94c.02.56.58 1.1 1.37 1.62l35.52 19.37c1.22.66 2.68 1.05 4.4 0l23.66-13.03c.87-.53 1.33-1.05 1.42-1.52v-.03Z" style="fill:#b9c2c6;stroke-width:0"/><path d="M241.16 52.24h-.7v1.13c-.23.29-.4.32-.91.63l-23.48 12.87c-.9.55-1.73.7-2.48.62v2.12c.76.07 1.59-.08 2.49-.64l23.66-13.03c.87-.53 1.33-1.05 1.42-1.52v-.03a.66.66 0 0 0 0-.28v-1.88Z" style="fill:#a0a8ac;stroke-width:0"/><path d="M213.01 69.51c.54.13 1.11.16 1.72.02v-2.11c-.61.14-1.19.1-1.72-.03v2.12Z" style="fill:#cbd8dd;stroke-width:0"/><path d="m211.72 67.06-35.74-19.52c-1.38-.93-1.83-1.85-.12-2.89l23.29-12.77c1.71-1.04 4.54-1.11 5.75-.45l35.57 19.68c1.21.66.81 2.05-.9 3.09l-23.48 12.87c-1.71 1.04-3.16.65-4.37 0Z" style="fill:#ebeff0;stroke-width:0"/><path d="m200.6 57.79-9.06-4.76c-.18-.1-.32-.41.02-.6l6.29-3.41c.23-.12.67-.09.86 0l8.93 4.83c.18.1.15.41-.08.54l-6.21 3.35c-.23.12-.57.14-.75.05Zm20.81.63L190.7 41.35c-.82-.45-.68-1.22.32-1.7l8.59-4.67c1-.48 2.49-.5 3.31-.05l30.86 17.18c.82.45.68 1.22-.32 1.7l-8.73 4.56c-1 .48-2.49.5-3.31.05Z" style="fill:#d2d7d9;stroke-width:0"/><path d="M200.04 38.41c-.06.03-.17.02-.25-.03l-1.91-1.05c-.08-.04-.1-.1-.04-.13l1.34-.69c.06-.03.17-.02.25.03l1.91 1.05c.08.04.1.1.04.13l-1.34.69Zm2.83 1.55c-.06.03-.17.02-.25-.03l-1.91-1.05c-.08-.04-.1-.1-.04-.13l1.34-.69c.06-.03.17-.02.25.03l1.91 1.05c.08.04.1.1.04.13l-1.34.69Zm-.53 1.94c-.06.03-.16.02-.24-.03l-1.91-1.05c-.08-.04-.1-.1-.04-.13l1.34-.69c.06-.03.16-.02.25.03l1.91 1.05c.08.04.1.1.04.13l-1.34.69Zm3.52-.29c-.06.03-.17.02-.25-.03l-1.91-1.05c-.08-.04-.1-.1-.04-.13l1.34-.69c.06-.03.17-.02.24.03l1.91 1.05c.08.04.1.1.04.13l-1.34.69Zm-.69 1.84c-.06.03-.17.02-.25-.03l-1.91-1.05c-.08-.04-.1-.1-.04-.13l1.34-.69c.06-.03.17-.02.25.03l1.91 1.05c.08.04.1.1.04.13l-1.34.69Zm3.52-.29c-.06.03-.17.02-.25-.03l-1.91-1.05c-.08-.04-.1-.1-.04-.13l1.34-.69c.06-.03.17-.02.24.03l1.91 1.05c.08.04.1.1.04.13l-1.34.69Zm-3.93 2.17c-.06.03-.17.02-.25-.03l-1.91-1.05c-.08-.04-.1-.1-.04-.13l1.34-.69c.06-.03.17-.02.25.03l1.91 1.05c.08.04.1.1.04.13l-1.34.69Zm3.4-.23c-.06.03-.16.02-.24-.03l-1.91-1.05c-.08-.04-.1-.1-.04-.13l1.34-.69c.06-.03.17-.02.25.03l1.91 1.05c.08.04.1.1.04.13l-1.34.69Zm3.51-.3c-.06.03-.17.02-.25-.03l-1.91-1.05c-.08-.04-.1-.1-.04-.13l1.34-.69c.06-.03.17-.02.25.03l1.91 1.05c.08.04.1.1.04.13l-1.34.69Zm-4.08 2.09c-.06.03-.16.02-.25-.03l-1.91-1.05c-.08-.04-.1-.1-.04-.13l1.34-.69c.06-.03.17-.02.25.03l1.91 1.05c.08.04.1.1.04.13l-1.34.69Zm3.56-.15c-.06.03-.17.02-.25-.03l-1.91-1.05c-.08-.04-.1-.1-.04-.13l1.34-.69c.06-.03.17-.02.25.03l1.91 1.05c.08.04.1.1.04.13l-1.34.69Zm3.51-.29c-.06.03-.17.02-.24-.03l-1.91-1.05c-.08-.04-.1-.1-.04-.13l1.34-.69c.06-.03.17-.02.24.03l1.91 1.05c.08.04.1.1.04.13l-1.34.69Zm-4.08 2.08c-.06.03-.16.02-.24-.03l-1.91-1.05c-.08-.04-.1-.1-.04-.13l1.34-.69c.06-.03.17-.02.25.03l1.91 1.05c.08.04.1.1.04.13l-1.34.69Zm3.4-.23c-.06.03-.17.02-.24-.03l-1.91-1.05c-.08-.04-.1-.1-.04-.13l1.34-.69c.06-.03.17-.02.25.03l1.91 1.05c.08.04.1.1.04.13l-1.34.69Zm3.51-.3c-.06.03-.17.02-.25-.03l-1.91-1.05c-.08-.04-.1-.1-.04-.13l1.34-.69c.06-.03.17-.02.25.03l1.91 1.05c.08.04.1.1.04.13l-1.34.69Zm-3.92 2.17c-.06.03-.17.02-.25-.03l-1.91-1.05c-.08-.04-.1-.1-.04-.13l1.34-.69c.06-.03.17-.02.25.03l1.91 1.05c.08.04.1.1.04.13l-1.34.69Zm3.4-.23c-.06.03-.17.02-.25-.03l-1.91-1.05c-.08-.04-.1-.1-.04-.13l1.34-.69c.06-.03.17-.02.25.03l1.91 1.05c.08.04.1.1.04.13l-1.34.69Zm3.35-.38c-.06.03-.17.02-.25-.03l-1.91-1.05c-.08-.04-.1-.1-.04-.13l1.34-.69c.06-.03.16-.02.24.03l1.91 1.05c.08.04.1.1.04.13l-1.34.69Zm-3.92 2.17c-.06.03-.16.02-.24-.03l-1.91-1.05c-.08-.04-.1-.1-.04-.13l1.34-.69c.06-.03.17-.02.25.03l1.91 1.05c.08.04.1.1.04.13l-1.34.69Zm3.4-.24c-.06.03-.17.02-.25-.03l-1.91-1.05c-.08-.04-.1-.1-.04-.13l1.34-.69c.06-.03.17-.02.25.03l1.91 1.05c.08.04.1.1.04.13l-1.34.69Zm3.51-.29c-.06.03-.17.02-.25-.03l-1.91-1.05c-.08-.04-.1-.1-.04-.13l1.34-.69c.06-.03.17-.02.24.03l1.91 1.05c.08.04.1.1.04.13l-1.34.69Zm-3.93 2.17c-.06.03-.17.02-.24-.03l-1.91-1.05c-.08-.04-.1-.1-.04-.13l1.34-.69c.06-.03.17-.02.25.03l1.91 1.05c.08.04.1.1.04.13l-1.34.69Zm3.41-.23c-.06.03-.17.02-.25-.03l-1.91-1.05c-.08-.04-.1-.1-.04-.13l1.34-.69c.06-.03.17-.02.25.03l1.91 1.05c.08.04.1.1.04.13l-1.34.69Zm3.35-.38c-.06.03-.17.02-.25-.03l-1.91-1.05c-.08-.04-.1-.1-.04-.13l1.34-.69c.06-.03.16-.02.25.03l1.91 1.05c.08.04.1.1.04.13l-1.34.69Zm-3.92 2.17c-.06.03-.17.02-.25-.03l-1.91-1.05c-.08-.04-.1-.1-.04-.13l1.34-.69c.06-.03.17-.02.25.03l1.91 1.05c.08.04.1.1.04.13l-1.34.69Zm4.94.61c-.06.03-.21 0-.34-.08l-3.25-1.79c-.13-.07-.2-.16-.14-.19l1.34-.69c.06-.03.21 0 .35.08l3.25 1.79c.14.07.2.16.14.19l-1.34.69Zm1.97-1.14c-.06.03-.17.02-.25-.03l-1.91-1.05c-.08-.04-.1-.1-.04-.13l1.34-.69c.06-.03.16-.02.25.03l1.91 1.05c.08.04.1.1.04.13l-1.34.69Zm-4.08 2.08c-.06.03-.16.02-.24-.02l-1.78-.98c-.07-.04-.09-.1-.03-.13l1.34-.69c.06-.03.16-.02.24.02l1.78.98c.07.04.09.1.03.13l-1.34.69Zm6.15-3.05c-.06.03-.21 0-.34-.08l-3.21-1.77c-.13-.07-.2-.16-.14-.18l1.34-.69c.06-.03.21 0 .34.08l3.21 1.77c.13.07.2.16.14.18l-1.34.69Zm-4.33-2.38c-.06.03-.17.02-.25-.03l-1.91-1.05c-.08-.04-.1-.1-.04-.13l1.34-.69c.06-.03.17-.02.24.03l1.91 1.05c.08.04.1.1.04.13l-1.34.69Zm-2.99-1.64c-.06.03-.17.02-.25-.03l-1.91-1.05c-.08-.04-.1-.1-.04-.13l1.34-.69c.06-.03.17-.02.25.03l1.91 1.05c.08.04.1.1.04.13l-1.34.69Zm-2.83-1.56c-.06.03-.17.02-.25-.03l-1.91-1.05c-.08-.04-.1-.1-.04-.13l1.34-.69c.06-.03.17-.02.25.03l1.91 1.05c.08.04.1.1.04.13l-1.34.69Zm-2.98-1.64c-.06.03-.17.02-.25-.03l-1.91-1.05c-.08-.04-.1-.1-.04-.13l1.34-.69c.06-.03.17-.02.25.03l1.91 1.05c.08.04.1.1.04.13l-1.34.69Zm-2.84-1.56c-.06.03-.17.02-.25-.03l-1.91-1.05c-.08-.04-.1-.1-.04-.13l1.34-.69c.06-.03.17-.02.24.03l1.91 1.05c.08.04.1.1.04.13l-1.34.69Zm-2.98-1.64c-.06.03-.17.02-.24-.03l-1.91-1.05c-.08-.04-.1-.1-.04-.13l1.34-.69c.06-.03.17-.02.25.03l1.91 1.05c.08.04.1.1.04.13l-1.34.69Zm-2.99-1.64c-.06.03-.17.02-.25-.03l-1.91-1.05c-.08-.04-.1-.1-.04-.13l1.34-.69c.06-.03.17-.02.25.03l1.91 1.05c.08.04.1.1.04.13l-1.34.69Zm-2.83-1.56c-.06.03-.17.02-.24-.03l-1.91-1.05c-.08-.04-.1-.1-.04-.13l1.34-.69c.06-.03.16-.02.25.03l1.91 1.05c.08.04.1.1.04.13l-1.34.69Zm-2.99-1.64c-.06.03-.21 0-.34-.08l-3.14-1.73c-.13-.07-.19-.15-.14-.18l1.34-.69c.06-.03.21 0 .34.08l3.14 1.73c.13.07.19.15.14.18l-1.34.69Zm-4.09 2.09c-.06.03-.21 0-.34-.08l-3.14-1.73c-.13-.07-.19-.15-.14-.18l1.34-.69c.06-.03.21 0 .34.08l3.14 1.73c.13.07.19.15.13.18l-1.34.69Zm-3.4.23c-.06.03-.17.02-.24-.03l-1.91-1.05c-.08-.04-.1-.1-.04-.13l1.34-.69c.06-.03.17-.02.25.03l1.91 1.05c.08.04.1.1.04.13l-1.34.69Zm2.99 1.64c-.06.03-.17.02-.25-.03l-1.91-1.05c-.08-.04-.1-.1-.04-.13l1.34-.69c.06-.03.17-.02.25.03l1.91 1.05c.08.04.1.1.04.13l-1.34.69Zm2.83 1.56c-.06.03-.17.02-.25-.03l-1.91-1.05c-.08-.04-.1-.1-.04-.13l1.34-.69c.06-.03.17-.02.25.03l1.91 1.05c.08.04.1.1.04.13l-1.34.69Zm13.98 9.87c-.06.03-.05.11-.24 0s-16.71-9.19-16.9-9.29-.37-.29-.31-.31l1.31-.67c.06-.03.47.16.62.24 2.29 1.26 18.79 10.33 16.83 9.25.18.1.07.08.01.11l-1.31.67Zm7.21 3.99c-.06.03-.14.05-.21 0l-2.69-1.48c-.07-.04-.15-.14-.09-.17l1.31-.67c.06-.03.25.01.32.05l2.69 1.48c.07.04.03.08-.02.11l-1.31.67Z" style="fill:#334863;stroke-width:0"/><path d="M219.35 55.56c-.06.03-.12.06-.19.02l-2.69-1.48c-.07-.04-.16-.15-.11-.18l1.31-.67c.06-.03.26.02.34.06l2.69 1.48c.07.04.02.07-.04.1l-1.31.67Zm-25.46-14.01c-.06.03-.09.09-.15.06l-1.99-1.09c-.05-.03-.13-.15-.07-.18l1.31-.67c.06-.03.25.03.3.06l1.99 1.09c.05.03-.03.03-.08.06l-1.31.67Zm3.61 1.99c-.06.03-.02.13-.1.09l-2.69-1.48c-.07-.04-.1-.14-.04-.16l1.31-.67c.06-.03.2 0 .27.05l2.69 1.48c.07.04-.08 0-.13.03l-1.31.67Z" style="fill:#334863;stroke-width:0"/><path d="m203.85 31.17 37.58 20.68c.33.18 1.02.2 1.47-.02.58-.28.89-.88.89-1.28l.5-28.42c0-.71-.61-1.62-1.35-2.03L205.41.19c-1.32-.65-2.74.55-2.74 1.26v26.86c0 .72.06 1.33.28 1.82s.63.87.91 1.05Z" style="fill:#d8d4d0;stroke-width:0"/><path d="m204.45 31.5 36.88 20.02c.73.4 1.32.16 1.32-.55l.53-28c0-.7-.6-1.61-1.32-2.01L204.33.76c-1.23-.61-1.66.17-1.66.88v27.24c.01.47.23 1.14.47 1.59s.95.83 1.31 1.03Z" style="fill:#fff;stroke-width:0"/><path d="m204.33 30.97 36.71 20.34c.73.4 1.32.16 1.32-.55l.5-27.62c0-.7-.6-1.61-1.32-2.01l-37.21-20c-.73-.4-1.32-.16-1.32.55v26.83c0 .47.04.99.28 1.43s.68.83 1.05 1.03Z" style="fill:#3b2c81;stroke-width:0"/><path d="m205.58 29.33 34.33 18.89.5-25.33-34.83-18.72v25.16z" style="fill:#14af4b;stroke-width:0"/><path d="m191.54 52.6 6.29-3.41c.23-.12.67-.09.86 0l8.93 4.83s.08.06.1.1c.05-.13.02-.27-.1-.33l-8.93-4.83c-.18-.1-.63-.13-.86 0l-6.29 3.41c-.21.11-.24.28-.19.41.03-.07.09-.13.19-.18Z" style="fill:#c0c4c6;stroke-width:0"/><path d="m196.8 58.92.19-.11c.16-.09.19-.32.07-.38l-5.8-3.16a.756.756 0 0 0-.57.02l-.25.15 6.37 3.48Z" style="fill:#d2d7d9;stroke-width:0"/><path d="m224.87 63.64 12.05-6.71v-.6l-12.05 6.72v.59z" style="fill:#798689;stroke-width:0"/><ellipse cx="224.64" cy="116.05" rx="7.66" ry="4.43" style="fill:#1c1b1a;opacity:.14;stroke-width:0"/><path d="M211.29 75.2s.05-.05.08-.07c.3-.17.72.26.81.61.22-.09.58.17.62.45.12-.12.25-.12.36-.03l.03-.05c.15.12.31.25.47.36.44-.45.98-.91 1.52-1.26-.09-.11-.18-.21-.28-.31-.17-.15-.34-.31-.51-.45-.16-.23-.17-.46.09-.57l.02-.01c.1-.04.71.31.84.35.2.03.66-.05.8.05.25.13.49.65.65.99v.02c.06.73.21 1.79.03 2.53-1.14.48-2.73-.03-3.8-.36l-.02.02s-.09-.1-.14-.18c-.36-.02-.56-.26-.68-.56-.39-.24-1.24-1.15-.88-1.54Z" style="fill:#f9ae78;stroke-width:0"/><path d="M216.81 77.81c-.05.21-.12.39-.23.53.21.14.45.17.7.15.36-.88.33-2.22.29-3.13-.21.04-.53.01-.78-.08.06.73.21 1.79.03 2.53Z" style="fill:#bae5fa;stroke-width:0"/><path d="M221.75 114.37c-.02-.81.91-.86 1.44-1.68v-.01c.02-.04.05-.08.07-.12.26-.43.74-1.1.79-1.46h.01l.14.13 1.1.43c1.03.38 2.07.46 3.13-.81.04.4.07.8.12 1.06l.01-.01c.05.27.06.48.08.71-.09.09-.23.23-.41.38-.14.14-.32.29-.51.45-.11-.14-.37-.07-.51.04-.22.17-.27.42-.32.65-1.11.9-2.44 1.88-3.07 2.11-.25 0-.52-.04-.78-.11l-.78-.35c-.26-.17-.43-.36-.46-.54-.01-.06-.09-.56-.07-.62a.33.33 0 0 1 0-.24Z" style="fill:#022226;stroke-width:0"/><path d="M227.55 71.55c0 .09-.02.18-.02.27.21-1.09.67-2.02 1.21-2.97.01-.03.02-.06.02-.09.07-.3.11-.68.2-1-.06.04-.11.07-.17.1-.1-.21-.1-.4-.08-.59-.22.33-.38.69-.48.98-.37 1.08-.57 2.17-.69 3.31Z" style="fill:#bae5fa;stroke-width:0"/><path d="M229.98 67.36v-.04h-.02c-.22-.04-.42.04-.6.15-.14.08-.27.18-.41.27-.09.32-.13.7-.2 1h.03c.09.02.18.05.25.1.2-.4.43-.78.67-1.11.09-.13.18-.26.27-.37Z" style="fill:#3c1b12;stroke-width:0"/><path d="M229.32 69.07c.38-.18.76-.49 1.05-.79 0-.04-.02-.07-.03-.1-.09-.31-.19-.6-.29-.86l-.03-.02s-.03.03-.04.05c-.09.12-.18.24-.27.37-.24.34-.47.72-.67 1.11.1.06.19.13.28.22Z" style="fill:#502310;stroke-width:0"/><path d="M230.24 66.31c.23.03 1.13-.11 2-.35-.06-.5.09-.87.05-1.53 0-.42-.09-.73.02-1.09.18-.59.28-.59.14-1.1 0 0 .08-.38.27-.85-.78 0-1.73-.4-2.39-.66-.47-.19-.83-.5-1.14-.88-.13.45-.2.79-.2.79.13.61.02.62-.17 1.34 0 .02 0 .05-.02.07-.09.41-.02.78-.03 1.26v.49c-.03.56-.13.95-.07 1.47-.02.17.12.34.32.5.26.2.63.38.91.48.06.02.12.04.17.05.05.02.1.03.13.03Z" style="fill:#f9ae78;stroke-width:0"/><path d="M233.06 61.36c-.11.02-.22.03-.34.02-.18.47-.27.85-.27.85.15.51.04.51-.14 1.1-.11.36-.03.67-.02 1.09.04.66-.11 1.03-.05 1.53.33-.09.66-.2.94-.33.38-.28.56-.64.67-.91 0 0-.02 0-.02-.01.08-.2.16-.48.23-.78-.21.14-.44.28-.67.41.26-1.02 0-1.4-.05-1.9-.05-.43-.13-.75-.11-1.13-.06.02-.11.03-.17.05Z" style="fill:#f79e5e;stroke-width:0"/><path d="M233.18 65.63c-.28.13-.61.24-.94.33-.87.24-1.77.38-2 .35-.03 0-.08-.01-.13-.03l-.02.04-.06.61c0 .05-.01.1-.01.16.11.73 3.07 1.15 3.9-.11.04-.34.07-.68.11-1.03.02-.18.04-.35.05-.53 0-.03.01-.06.02-.09.02-.17.03-.34.05-.5-.09 0-.19-.02-.3-.1-.11.27-.3.63-.67.91Z" style="fill:#f58d52;stroke-width:0"/><path d="M234.06 63.93c-.08.3-.15.58-.23.78l.02.01c.11.08.2.11.3.1.43-.05.63-1 .81-1.41.23-.53-.41-.7-.64-.52-.08.23-.17.64-.27 1.04Z" style="fill:#f9ae78;stroke-width:0"/><path d="M229.62 117.79c-.02-.86.97-.93 1.54-1.79.1-.15.61-.77.7-.96 0 0 0-.02.01-.02.15.15.17.14.54.21.04 0 .07.01.11.02 1.3.25 3.46.17 4.28-.41 0 .02.01.03.01.04.03.13.06.24.08.33.05.3.06.52.09.76-.19.19-.51.48-.91.82-.1-.19-.38-.11-.53 0-.24.18-.29.45-.33.71-1.21.97-2.66 2.04-3.33 2.29-.41 0-.86-.1-1.24-.27-.5-.22-.88-.54-.93-.81-.01-.06-.09-.61-.07-.67a.319.319 0 0 1 0-.27Z" style="fill:#022226;stroke-width:0"/><path d="M230.23 57.11c.58-.26 1.64-.42 1.95-.48.71-.09 1.44-.02 2.11.19.55.17 1.06.44 1.48.81h.01c.45.39.47.9.72 1.44.32.67.42 1.38.1 1.98-.69 1.3-.93 2.37-1.69 3.48l-.03-.02c-.13.22-.24.42-.31.65-.18.12-.29.08-.44.18h-.03c.02-.17.03-.34.05-.51.43-.05.63-1 .81-1.41.23-.53-.41-.7-.64-.52-.08.23-.17.64-.27 1.04-.21.14-.44.28-.67.41.26-1.02 0-1.4-.05-1.9-.05-.43-.13-.75-.11-1.13-.06.02-.11.03-.17.05-.11.02-.22.03-.34.02-.78 0-1.73-.4-2.39-.66-.47-.19-.83-.5-1.14-.88-.13.45-.2.79-.2.79.13.61.02.62-.17 1.34 0 .02 0 .05-.02.07-.14-.96.06-2.14.14-2.55-.11-.16-.21-.34-.31-.52-.33-.61.81-1.5 1.6-1.86Z" style="fill:#be7661;stroke-width:0"/><path d="M224.87 92.3c.03-.52.06-1.03.08-1.53.03-.57.06-1.11.09-1.64.02-.35.03-.68.05-1.01.02-.44.05-.87.07-1.3.02-.52.45-.11.56.58.1.1.21.19.32.28.53.45 1.17.82 1.79 1.14.18.09.36.18.53.27.47.23.96.46 1.45.64.57.22 1.16.39 1.78.48l.14.03v-.13c.21.09.44.18.66.25.2.03.41.04.61.02h.07c-.02.05-.04.09-.07.13.98.04 2.65-.68 3.75-1.24.11-.06.22-.11.33-.17.04.37.07.74.1 1.1 0 .5-.03 1.04-.08 1.66-.02.28-.04.69-.07 1.2-.36 1.54-.6 2.73-.6 2.73l.46 11.31c.07 1.57-.07 2.8-.12 4.52.04 1.55.32 3.08.32 3.08-.07.05-.14.11-.23.16-.02.02-.04.03-.06.04 0-.01 0-.02-.01-.04-.82.58-2.98.66-4.28.41-.04 0-.07 0-.11-.02-.37-.08-.39-.07-.54-.21 0 0 0 .02-.01.02-.02-.02-.05-.03-.07-.06a.284.284 0 0 1-.07-.17v-.25c0-2.82-.75-11.27-1.32-17.88-.05.22-.1.45-.15.72-.15.71-.76 6.84-.94 8.22-.36 2.77-.56 4.13-.76 5.08-.04.05-.08.09-.11.14-1.06 1.27-2.1 1.19-3.13.81l-1.1-.43-.14-.13h-.01v-.01c-.06-2.52.41-11.31.81-18.78Z" style="fill:#f05e56;stroke-width:0"/><path d="M217 78.98c1.52.4 2.48.37 4.16.67.71.14 2.22.43 3.1.15.38-.47.82-1.24 1.1-1.98.1 1.45.17 2.9.24 4.34-.16.81-.86 4.13-.72 4.31.08.13 1.05 1.12 1.17 1.21.53.45 1.17.82 1.79 1.14.18.09.36.18.53.27.47.23.96.46 1.45.64.57.22 1.16.39 1.78.48.05.01.57.08.79.14.2.03.64.1.61.14.98.04 2.65-.68 3.75-1.24.11-.06.22-.11.33-.17.04.37.07.74.1 1.1.03.38.05.76.06 1.1v.16c.06.06.13.12.22.17.02.02.04.04.07.05.14.08.31.14.48.17.02 0 .04.01.06.02.77.15 1.64-.06 2.24-.51.13-.1.25-.21.35-.34.02-.03.04-.06.06-.08-.01-.48 0-.97 0-1.46v-2.68c-.02-2.04-.2-10.15-.33-11.82 0-.17-.02-.35-.05-.51-.02-.17-.04-.32-.07-.49-.08-.5-.2-1-.37-1.49-.03-.09-.06-.18-.1-.28 0-.02-.02-.03-.02-.06-.04-.09-.08-.18-.14-.26a.774.774 0 0 0-.07-.16c-.06-.14-.12-.27-.2-.41a.913.913 0 0 0-.08-.13c-.05-.09-.11-.18-.17-.26-.05-.07-.11-.13-.15-.19l-.04-.03c-.96-1.31-2.43-2.53-3.71-3.7a.806.806 0 0 0-.14-.12c-.28-.53-1.01-1.11-1.03-.93-.04.34-.07.68-.11 1.03-.83 1.26-3.79.84-3.9.11-.01-.06 0-.1.01-.16l.06-.61.02-.04a.845.845 0 0 1-.17-.05c-.28-.1-.65-.28-.91-.48-.2-.16-.34-.33-.32-.5-.06-.52.04-.91.07-1.47-1.07-.37-2.73.09-3.14.47-.02.03-.03.07-.04.1a11.498 11.498 0 0 0-.73 2.19c-.26.49-.44 1.07-.59 1.56-.32.92-.54 1.94-.81 2.91-.17.73-.45 1.46-.62 2.23-.1.48-.27 1.5-.53 2.15-1.15.03-2.3.06-3.42-.14h-.06c-.33-.04-.91-.21-1.28-.24 0 .1.01.22.01.34.04.91.07 2.25-.29 3.13-.07.19-.16.35-.28.49Z" style="fill:#fdd94a;stroke-width:0"/><path d="M237.8 93.11s.09-.08 0 0c.02-.3.04-.63.08-.94.05.01.09.03.14.04.66.14 1.51.33 1.98-.39.06.37.14 1.05-.11 2.35-.26.85-.65 1.28-1.03 1.54-.31.21-.64-.17-.87-.06-.09-.95-.07-2.3-.19-2.53Z" style="fill:#f79e5e;stroke-width:0"/><path d="M237.52 92.16c.99.11 2.26.26 2.96-.36-.02-.07-.04-.15-.07-.22-.03-.08-.06-.16-.1-.24-.6.44-1.47.65-2.24.51-.02 0-.04-.01-.06-.02a1.82 1.82 0 0 1-.48-.17l-.03.04c0 .15 0 .31.02.46Z" style="fill:#bae5fa;stroke-width:0"/><path d="M230.08 66.58c.47.62 3.05.9 3.83-.27.04-.34.06.42.02.77-.83 1.26-3.79.84-3.9.11 0-.06 0-.1.01-.16.02-.15.03-.3.05-.45Z" style="fill:#fff;stroke-width:0"/><path d="m274.55 193.81-35.02-21.89c-1.39-.97-1.98-1.73-.75-2.09l17.13-3.9c1.23-.36 3.64.22 4.83.96l34.91 21.97c1.19.74 1.15 1.64-.08 2l-17.27 3.93c-1.23.36-2.56-.24-3.75-.98Z" style="fill:url(#h);opacity:.25;stroke-width:0"/><path d="m275.39 165.85-13.61-8.03c-.53-.37-.74-.69-.18-.94l7.65-3.02c.56-.26 1.56-.14 2.02.13l13.56 8.07c.46.27.39.7-.17.96l-7.71 3.04c-.56.26-1.09.06-1.55-.21Z" style="fill:url(#i);opacity:.25;stroke-width:0"/><path d="M266.26 171.52h.67v1.68h-.67zm-52.55-14.6h.76v1.16h-.76z" style="fill:#bababb;stroke-width:0"/><path d="m251.38 179.77-37.03-20.59c-.99-.55-.82-1.47.39-2.04l10.36-5.63c1.2-.58 3-.61 3.99-.06l37.21 20.72c.99.55.82 1.47-.39 2.04l-10.53 5.5c-1.2.58-3 .61-3.99.06Z" style="fill:#bababb;stroke-width:0"/><path d="m251.38 178.33-37.03-20.59c-.99-.55-.82-1.47.39-2.04l10.36-5.63c1.2-.58 3-.61 3.99-.06l37.21 20.72c.99.55.82 1.47-.39 2.04l-10.53 5.5c-1.2.58-3 .61-3.99.06Z" style="fill:#ececec;stroke-width:0"/><path d="M225.61 154.2c-.07.03-.2.02-.3-.03L223 152.9c-.1-.05-.12-.12-.05-.16l1.62-.83c.07-.03.2-.02.3.03l2.31 1.27c.1.05.12.12.05.16l-1.62.83Zm3.41 1.88c-.07.03-.2.02-.3-.03l-2.31-1.27c-.1-.05-.12-.12-.05-.16l1.62-.83c.07-.03.2-.02.3.03l2.31 1.27c.1.05.12.12.05.16l-1.62.83Zm-.63 2.33c-.07.03-.2.02-.29-.03l-2.31-1.27c-.1-.05-.12-.12-.05-.16l1.62-.83c.07-.03.2-.02.3.03l2.31 1.27c.1.05.12.12.05.16l-1.62.83Zm4.24-.35c-.07.03-.2.02-.3-.03l-2.31-1.27c-.1-.05-.12-.12-.05-.16l1.62-.83c.07-.03.2-.02.29.03l2.31 1.27c.1.05.12.12.05.16l-1.62.83Zm-.83 2.23c-.07.03-.2.02-.3-.03l-2.31-1.27c-.1-.05-.12-.12-.05-.16l1.62-.83c.07-.03.2-.02.3.03l2.31 1.27c.1.05.12.12.05.16l-1.62.83Zm4.24-.36c-.07.03-.2.02-.3-.03l-2.31-1.27c-.1-.05-.12-.12-.05-.16l1.62-.83c.07-.03.2-.02.29.03l2.31 1.27c.1.05.12.12.05.16l-1.62.83Zm-4.74 2.62c-.07.03-.2.02-.3-.03l-2.31-1.27c-.1-.05-.12-.12-.05-.16l1.62-.83c.07-.03.2-.02.3.03l2.31 1.27c.1.05.12.12.05.16l-1.62.83Zm4.1-.28c-.07.03-.2.02-.29-.03l-2.31-1.27c-.1-.05-.12-.12-.05-.16l1.62-.83c.07-.03.2-.02.3.03l2.31 1.27c.1.05.12.12.05.16l-1.62.83Zm4.24-.36c-.07.03-.2.02-.3-.03l-2.31-1.27c-.1-.05-.12-.12-.05-.16l1.62-.83c.07-.03.2-.02.3.03l2.31 1.27c.1.05.12.12.05.16l-1.62.83Zm-4.93 2.52c-.07.03-.2.02-.3-.03l-2.31-1.27c-.1-.05-.12-.12-.05-.16l1.62-.83c.07-.03.2-.02.3.03l2.31 1.27c.1.05.12.12.05.16l-1.62.83Zm4.3-.18c-.07.03-.2.02-.3-.03l-2.31-1.27c-.1-.05-.12-.12-.05-.16l1.62-.83c.07-.03.2-.02.3.03l2.31 1.27c.1.05.12.12.05.16l-1.62.83Zm4.23-.36c-.07.03-.2.02-.3-.03l-2.31-1.27c-.1-.05-.12-.12-.05-.16l1.62-.83c.07-.03.2-.02.3.03l2.31 1.27c.1.05.12.12.05.16l-1.62.83Zm-4.92 2.52c-.07.03-.2.02-.29-.03l-2.31-1.27c-.1-.05-.12-.12-.05-.16l1.62-.83c.07-.03.2-.02.3.03l2.31 1.27c.1.05.12.12.05.16l-1.62.83Zm4.1-.29c-.07.03-.2.02-.3-.03l-2.31-1.27c-.1-.05-.12-.12-.05-.16l1.62-.83c.07-.03.2-.02.3.03l2.31 1.27c.1.05.12.12.05.16l-1.62.83Zm4.24-.35c-.07.03-.2.02-.3-.03l-2.31-1.27c-.1-.05-.12-.12-.05-.16l1.62-.83c.07-.03.2-.02.3.03l2.31 1.27c.1.05.12.12.05.16l-1.62.83Zm-4.74 2.62c-.07.03-.2.02-.3-.03l-2.31-1.27c-.1-.05-.12-.12-.05-.16l1.62-.83c.07-.03.2-.02.3.03l2.31 1.27c.1.05.12.12.05.16l-1.62.83Zm4.1-.29c-.07.03-.2.02-.3-.03l-2.31-1.27c-.1-.05-.12-.12-.05-.16l1.62-.83c.07-.03.2-.02.3.03l2.31 1.27c.1.05.12.12.05.16l-1.62.83Zm4.05-.45c-.07.03-.2.02-.3-.03l-2.31-1.27c-.1-.05-.12-.12-.05-.16l1.62-.83c.07-.03.2-.02.29.03l2.31 1.27c.1.05.12.12.05.16l-1.62.83Zm-4.74 2.62c-.07.03-.2.02-.29-.03l-2.31-1.27c-.1-.05-.12-.12-.05-.16l1.62-.83c.07-.03.2-.02.3.03l2.31 1.27c.1.05.12.12.05.16l-1.62.83Zm4.11-.29c-.07.03-.2.02-.3-.03l-2.31-1.27c-.1-.05-.12-.12-.05-.16l1.62-.83c.07-.03.2-.02.3.03l2.31 1.27c.1.05.12.12.05.16l-1.62.83Zm4.23-.35c-.07.03-.2.02-.3-.03l-2.31-1.27c-.1-.05-.12-.12-.05-.16l1.62-.83c.07-.03.2-.02.3.03l2.31 1.27c.1.05.12.12.05.16l-1.62.83Zm-4.73 2.62c-.07.03-.2.02-.29-.03l-2.31-1.27c-.1-.05-.12-.12-.05-.16l1.62-.83c.07-.03.2-.02.3.03l2.31 1.27c.1.05.12.12.05.16l-1.62.83Zm4.1-.29c-.07.03-.2.02-.3-.03l-2.31-1.27c-.1-.05-.12-.12-.05-.16l1.62-.83c.07-.03.2-.02.3.03l2.31 1.27c.1.05.12.12.05.16l-1.62.83Zm4.05-.46c-.07.03-.2.02-.3-.03l-2.31-1.27c-.1-.05-.12-.12-.05-.16l1.62-.83c.07-.03.2-.02.3.03l2.31 1.27c.1.05.12.12.05.16l-1.62.83Zm-4.74 2.62c-.07.03-.2.02-.3-.03l-2.31-1.27c-.1-.05-.12-.12-.05-.16l1.62-.83c.07-.03.2-.02.3.03l2.31 1.27c.1.05.12.12.05.16l-1.62.83Zm5.96.74c-.07.03-.25 0-.42-.1l-3.92-2.16c-.16-.09-.24-.19-.17-.22l1.62-.83c.07-.03.25.01.42.1l3.92 2.16c.16.09.24.19.17.22l-1.62.83Zm2.38-1.38c-.07.03-.2.02-.3-.03l-2.31-1.27c-.1-.05-.12-.12-.05-.16l1.62-.83c.07-.03.2-.02.3.03l2.31 1.27c.1.05.12.12.05.16l-1.62.83Zm-4.93 2.52c-.07.03-.19.02-.28-.03l-2.14-1.18c-.09-.05-.11-.12-.04-.15l1.62-.83c.07-.03.19-.02.28.03l2.14 1.18c.09.05.11.12.04.15l-1.62.83Zm7.42-3.69c-.07.03-.25 0-.41-.1l-3.87-2.13c-.16-.09-.24-.19-.17-.22l1.62-.83c.07-.03.25 0 .41.1l3.87 2.13c.16.09.24.19.17.22l-1.62.83Zm-5.21-2.86c-.07.03-.2.02-.3-.03l-2.31-1.27c-.1-.05-.12-.12-.05-.16l1.62-.83c.07-.03.2-.02.3.03l2.31 1.27c.1.05.12.12.05.16l-1.62.83Zm-3.61-1.98c-.07.03-.2.02-.3-.03l-2.31-1.27c-.1-.05-.12-.12-.05-.16l1.62-.83c.07-.03.2-.02.3.03l2.31 1.27c.1.05.12.12.05.16l-1.62.83Zm-3.41-1.88c-.07.03-.2.02-.3-.03l-2.31-1.27c-.1-.05-.12-.12-.05-.16l1.62-.83c.07-.03.2-.02.3.03l2.31 1.27c.1.05.12.12.05.16l-1.62.83Zm-3.6-1.98c-.07.03-.2.02-.3-.03l-2.31-1.27c-.1-.05-.12-.12-.05-.16l1.62-.83c.07-.03.2-.02.3.03l2.31 1.27c.1.05.12.12.05.16l-1.62.83Zm-3.42-1.88c-.07.03-.2.02-.3-.03l-2.31-1.27c-.1-.05-.12-.12-.05-.16l1.62-.83c.07-.03.2-.02.3.03l2.31 1.27c.1.05.12.12.05.16l-1.62.83Zm-3.6-1.98c-.07.03-.2.02-.3-.03l-2.31-1.27c-.1-.05-.12-.12-.05-.16l1.62-.83c.07-.03.2-.02.3.03l2.31 1.27c.1.05.12.12.05.16l-1.62.83Zm-3.6-1.98c-.07.03-.2.02-.3-.03l-2.31-1.27c-.1-.05-.12-.12-.05-.16l1.62-.83c.07-.03.2-.02.3.03l2.31 1.27c.1.05.12.12.05.16l-1.62.83Zm-3.42-1.87c-.07.03-.2.02-.29-.03l-2.31-1.27c-.1-.05-.12-.12-.05-.16l1.62-.83c.07-.03.2-.02.3.03l2.31 1.27c.1.05.12.12.05.16l-1.62.83Zm-3.6-1.98c-.07.03-.25 0-.41-.09l-3.79-2.08c-.16-.09-.23-.18-.16-.22l1.62-.83c.07-.03.25 0 .41.09l3.79 2.08c.16.09.23.18.16.22l-1.62.83Zm-4.92 2.51c-.07.03-.25 0-.41-.09l-3.79-2.08c-.16-.09-.23-.18-.16-.22l1.62-.83c.07-.03.25 0 .41.09l3.79 2.08c.16.09.23.18.16.22l-1.62.83Zm-4.11.29c-.07.03-.2.02-.3-.03l-2.31-1.27c-.1-.05-.12-.12-.05-.16l1.62-.83c.07-.03.2-.02.3.03l2.31 1.27c.1.05.12.12.05.16l-1.62.83Zm3.61 1.98c-.07.03-.2.02-.3-.03l-2.31-1.27c-.1-.05-.12-.12-.05-.16l1.62-.83c.07-.03.2-.02.3.03l2.31 1.27c.1.05.12.12.05.16l-1.62.83Zm3.41 1.87c-.07.03-.2.02-.3-.03l-2.31-1.27c-.1-.05-.12-.12-.05-.16l1.62-.83c.07-.03.2-.02.3.03l2.31 1.27c.1.05.12.12.05.16l-1.62.83Zm16.85 11.9c-.07.03-.06.14-.29 0s-20.15-11.08-20.38-11.2-.45-.35-.38-.38l1.59-.81c.07-.03.57.19.74.29 2.76 1.52 22.65 12.45 20.29 11.15.22.12.08.1.02.13l-1.59.81Zm8.7 4.81c-.07.03-.16.06-.25.01l-3.24-1.78c-.09-.05-.18-.17-.11-.21l1.58-.81c.07-.03.3.02.39.07l3.24 1.78c.09.05.04.1-.03.13l-1.58.81Z" style="fill:#334863;stroke-width:0"/><path d="M248.89 174.88c-.07.03-.14.07-.23.02l-3.24-1.78c-.09-.05-.2-.18-.13-.22l1.58-.81c.07-.03.32.03.41.08l3.24 1.78c.09.05.02.09-.05.12l-1.58.81Zm-30.69-16.89c-.07.03-.11.11-.18.07l-2.4-1.32c-.06-.04-.15-.18-.09-.22l1.58-.81c.07-.03.3.04.37.07l2.4 1.32c.06.04-.03.04-.1.07l-1.58.81Zm4.35 2.39c-.07.03-.03.15-.12.11l-3.24-1.78c-.09-.05-.12-.16-.05-.2l1.58-.81c.07-.03.24 0 .33.06l3.24 1.78c.09.05-.09 0-.16.04l-1.58.81Z" style="fill:#334863;stroke-width:0"/><path d="m265.52 159.54-18.28-10.16c-.49-.27-.4-.72.19-1.01l5.11-2.78c.59-.29 1.48-.3 1.97-.03l18.36 10.22c.49.27.4.72-.19 1.01l-5.2 2.71c-.59.29-1.48.3-1.97.03Z" style="fill:#bababb;stroke-width:0"/><path d="M246.91 147.49h2.24v1.46h-2.24zm25.32 7.38h.97v1.33h-.97z" style="fill:#bababb;stroke-width:0"/><path d="m265.52 158.26-18.28-10.16c-.49-.27-.4-.72.19-1.01l5.11-2.78c.59-.29 1.48-.3 1.97-.03l18.36 10.22c.49.27.4.72-.19 1.01l-5.2 2.71c-.59.29-1.48.3-1.97.03Z" style="fill:#d2d7d9;stroke-width:0"/><path d="m264.28 138.51-7.3-3.79v14.67l6.24 4.41 1.06-.62v-14.67z" style="fill:#bababb;stroke-width:0"/><path d="m263.26 139.09-7.3-3.79v14.67l7.3 3.79v-14.67z" style="fill:#e8e7e7;stroke-width:0"/><path d="m235.49 127.63 55.66 30.62c.48.26 1.51.29 2.18-.03.86-.42 1.31-1.31 1.31-1.9l.74-42.09c0-1.05-.9-2.4-2-3.01L237.8 81.74c-1.96-.96-4.06.82-4.06 1.87v39.78c0 1.06.08 1.97.41 2.69s.93 1.29 1.34 1.55Z" style="fill:#d8d4d0;stroke-width:0"/><path d="M236.38 128.12 291 157.77c1.08.6 1.96.23 1.96-.81l.78-41.47c0-1.04-.88-2.38-1.96-2.98L236.2 82.58c-1.82-.9-2.46.26-2.46 1.3l.02 40.35c0 .7.32 1.69.67 2.35s1.41 1.23 1.94 1.53Z" style="fill:#fff;stroke-width:0"/><path d="m236.2 127.33 54.37 30.13c1.08.6 1.96.23 1.96-.81l.74-40.9c0-1.04-.88-2.38-1.96-2.98L236.2 83.14c-1.08-.6-1.96-.23-1.96.81v39.74c0 .7.05 1.46.41 2.12s1.01 1.23 1.55 1.53Z" style="fill:#3b2c81;stroke-width:0"/><path d="m238.05 124.9 50.84 27.98.74-37.51-51.58-27.73v37.26z" style="fill:#34bcaf;stroke-width:0"/><path d="m80.41 174.61-.73.32-.3-.6h.01l-6.72-3.83c-.66-.4-1.19-1.35-1.17-2.12l-.15-18.87c.46-.67 1.05-1.1 1.71-.7l7.42 4.21c.66.4 1.14 1.32 1.02 2.31l-.56 18.44c-.01.44-.22.74-.53.83Z" style="fill:#cbcbca;stroke-width:0"/><path d="m71.39 153.42-.03-3.91.06-.09-.1-.16.61-.37c.07-.05.14-.1.22-.13h.01c.28-.13.59-.13.91.06l7.42 4.21c.3.18.56.47.75.83l-7.25 3.75-2.59-4.18Z" style="fill:#a1a1a1;stroke-width:0"/><path d="m79.47 153.32-7.04-3.97c-.66-.4-1.49-.21-1.51.56l-.24 18.83c-.02.76.51 1.72 1.17 2.12l6.97 3.97c.66.4 1.27.07 1.29-.69l.53-18.69c.02-.76-.51-1.72-1.17-2.12Z" style="fill:url(#j);stroke-width:0"/><path d="m79.31 153.48-7.16-4.06c-.66-.4-1.22-.1-1.24.66l-.43 18.55c-.02.76.51 1.72 1.17 2.12l6.97 3.97c.66.4 1.27.07 1.29-.69l.51-18.35c.05-.87-.45-1.81-1.11-2.21Z" style="fill:#f9fafb;stroke-width:0"/><path d="m79.96 156.69-8.61-5.01-.44 15.81 8.59 4.88.46-15.68z" style="fill:#334863;stroke-width:0"/><ellipse cx="75.77" cy="152.17" rx=".16" ry=".26" style="fill:#c3c3c3;opacity:.44;stroke-width:0" transform="rotate(-33.51 75.779 152.179)"/><path d="M75.44 171.55c.02-.43-.48-.68-.93-.93s-.67-.39-.7.04.27.62.72.86.88.45.9.02Z" style="fill:#d2d2d2;stroke-width:0"/><path d="M79.53 172.33v.05l-8.62-4.87h-.02l.44-15.85v-.05l8.65 5.04-.46 15.67Zm-8.57-4.86 8.53 4.84.46-15.61-8.55-4.98-.44 15.75Z" style="fill:#167b7b;stroke-width:0"/><path d="m80.96 173.07.01-.3-.83.41v.31l.82-.42z" style="fill:#b2b2b2;stroke-width:0"/><path d="m79.94 173.35.2.14v-.31l-.2-.13v.3z" style="fill:#868686;stroke-width:0"/><path d="m80.96 173.07.02-.07-.84.42v.07l.82-.42z" style="fill:#888;stroke-width:0"/><path d="m79.93 173.35.21.14v-.07l-.21-.13v.06z" style="fill:#767576;stroke-width:0"/><path d="m75.08 171.27-.91-.47s-.04 0-.04.04.02.07.04.08l.91.47s.04 0 .04-.04-.02-.07-.04-.08Z" style="fill:#f9fafb;stroke-width:0"/><path d="m85.77 180.3-7.82-5.11c-.31-.22-.46-.38-.22-.41l3.37-.17c.24-.03.75.16 1.01.33l7.8 5.13c.27.17.29.34.05.36l-3.39.17c-.24.03-.53-.13-.8-.3Z" style="fill:url(#k);opacity:.25;stroke-width:0"/><path d="m95.89 111.8 1.92-1.12c.11-.09.23-.16.35-.23.11-.07.23-.12.35-.18 2.75-1.18 6.91 1.34 9.52 5.85 2.72 4.71 2.71 9.8-.03 11.38-.09.05-.19.1-.28.14s-2.35 1.4-2.35 1.4l.42-1.1c-2.54-.22-5.59-2.54-7.65-6.12-2.24-3.87-2.62-8.01-1.17-10.23l-1.07.2Z" style="fill:#fdd94a;stroke-width:0"/><path d="M97.81 110.69c.11-.09.23-.16.35-.23.11-.07.23-.12.35-.18 2.69-1.15 6.72 1.22 9.33 5.54l-9.9 5.69c-2.07-3.78-2.4-7.74-.98-9.9l-1.07.2 1.92-1.12Z" style="fill:#fdd94a;stroke-width:0"/><path d="M95.27 119.76c.58-.33 1.34-.19 2.03.3.04-.51.39-.82.87-.71.55.13 1.07.77 1.15 1.43l.2 1.67c.05.39-.07.7-.28.86.12.89-.14 1.67-.75 2.02l-6.35 3.63c-.93.53-2.33-.15-3.11-1.52l-.35-.61c-.79-1.37-.67-2.92.26-3.45l6.35-3.63Z" style="fill:#f05e56;stroke-width:0"/><ellipse cx="100.68" cy="120.4" rx="5.71" ry="9.84" style="fill:#f05e56;stroke-width:0" transform="rotate(-30 100.68 120.397)"/><ellipse cx="100.63" cy="120.4" rx="3.96" ry="6.83" style="fill:#34bcaf;stroke-width:0" transform="rotate(-30 100.619 120.4)"/><path d="M97.14 114.48c.41-.24.87-.34 1.36-.32-.85 1.58-.54 4.31.94 6.88 1.48 2.56 3.69 4.2 5.49 4.26-.23.43-.55.78-.96 1.02-1.9 1.09-4.96-.67-6.85-3.93-1.89-3.27-1.88-6.8.02-7.9Z" style="fill:#f6aebd;stroke-width:0"/><path d="m52.08 33.93-.93-1.48 1.75-1.04s.07-.05.11-.07c.15-.06.34-.06.52.04.31.18 7.84 4.54 10.46 6.03.49.28.82.9.81 1.42-.03 2.19-.05 8.33-.06 8.64 0 .48-.56.5-.79.36 0 0 .15.81.15 1.39.01.92.03 1.83-.02 1.68-.86-2.57-3.24-4.88-5.3-6.07-2.6-1.51-5.2-3.01-5.3-3.09-.21-.15-.68-.69-.68-1.19 0-1.49-.01-5.01-.03-7.14l-.69.51Z" style="fill:#3b2c81;stroke-width:0"/><path d="m47.12 34.76-1.48-.88 1.61-.93c.15-.13.4-.16.64-.03.31.18 7.3 4.24 9.91 5.73.49.28.82.9.81 1.42-.03 2.19-.04 7.7-.05 8.01 0 .18-.08.29-.19.36l-1.54.88-.39-1.37.21-.14a259.111 259.111 0 0 1-4.99-2.87c-.52-.31-1.34-.5-2.08-.3-.88.24-1.64.9-1.64.9s-.18-.64-.11-1.56c.08-1 .24-1.19.24-1.19s-.2-.12-.21-.13c-.21-.15-.68-.69-.68-1.19 0-1.5-.02-4.77-.04-6.71Z" style="fill:#1baab4;stroke-width:0"/><path d="M45.5 34.17c0 .26.05 6.08.05 8.23 0 .49.47 1.04.68 1.19.02.01.21.13.21.13s-.15.2-.24 1.19c-.08.92.11 1.56.11 1.56s.76-.66 1.64-.9c.74-.2 1.56 0 2.08.3a259.111 259.111 0 0 0 6.12 3.5c.23.13.78.12.79-.36 0-.31.01-5.82.05-8.01 0-.52-.32-1.14-.81-1.42-2.62-1.49-9.6-5.56-9.91-5.73-.37-.21-.77 0-.77.31Z" style="fill:#14af4b;stroke-width:0"/><path d="m47.53 37.65 7.22 4.23v-.72l-7.22-4.19v.68zm-.84 1.69 8.06 4.68v-.8l-8.06-4.64v.76zm3.01 3.85 4.94 2.93v-.79l-4.94-2.89v.75z" style="fill:#fff;stroke-width:0"/><path d="m62.36 51.92 1.79-1.04-.36-2.29h-1.77l.34 3.33z" style="fill:#2c3d52;stroke-width:0"/><path d="m51.15 32.45 1.75-1.04s.07-.05.11-.07c.15-.06.34-.06.52.04.31.18 7.84 4.54 10.46 6.03.21.12.4.31.53.53L61 39.97l-8.23-5.76v-.79l-.55.41-.37-.26-.71-1.12Z" style="fill:#415a75;stroke-width:0"/><path d="M51.04 32.71c0 .26.04 6.71.03 8.86 0 .49.47 1.04.68 1.19.11.07 2.71 1.58 5.3 3.09 2.06 1.19 4.44 3.5 5.3 6.07.05.15.04-.76.02-1.68 0-.58-.16-1.4-.15-1.39.23.13.78.12.79-.36 0-.31.03-6.45.06-8.64 0-.52-.32-1.14-.81-1.42-2.62-1.49-10.15-5.85-10.46-6.03-.37-.21-.77 0-.77.31Z" style="fill:#3b2c81;stroke-width:0"/><path d="m53.89 36.76 7.22 4.22v-.72l-7.22-4.19v.69zm-.83 1.68 8.05 4.68v-.8l-8.05-4.64v.76zm3 3.85L61 45.22v-.78l-4.94-2.9v.75z" style="fill:#fff;stroke-width:0"/><path d="m135.44 29.4 5.74-3.52 14.15 8.32-5.76 3.32-14.13-8.12z" style="fill:#415a75;stroke-width:0"/><path d="m149.57 39.35-14.13-8.12V29.4l14.13 8.12v1.83z" style="fill:#34495e;stroke-width:0"/><path d="m149.57 39.35 5.76-3.32V34.2l-5.76 3.32v1.83z" style="fill:#2c3d52;stroke-width:0"/><path d="m138.05 29.47 3.78 2.17v-9.19l-3.78-2.13v9.15z" style="fill:#34495e;stroke-width:0"/><path d="m138.05 20.32 3.2-1.84 3.71 2.11-3.15 1.86-3.76-2.13z" style="fill:#3d566d;stroke-width:0"/><path d="m141.85 31.7 3.77 2.17v-14.1l-3.77-2.13V31.7z" style="fill:#14af4b;stroke-width:0"/><path d="m148.76 25.98-3.16 1.91v-8.12l3.16-1.87v8.08z" style="fill:#535ca8;stroke-width:0"/><path d="m141.85 17.64 3.2-1.85 3.71 2.11-3.16 1.87-3.75-2.13z" style="fill:#3b2c81;stroke-width:0"/><path d="m145.61 33.83 3.77 2.18v-6.32l-3.77-2.13v6.27z" style="fill:#e4e9ea;stroke-width:0"/><path d="m152.52 34.1-3.16 1.91v-6.32l3.16-1.86v6.27z" style="fill:#9d999b;stroke-width:0"/><path d="m145.61 27.56 3.2-1.85 3.71 2.12-3.16 1.86-3.75-2.13z" style="fill:#bfbbba;stroke-width:0"/><path d="M220.2 92.53c0 .5.41 11.56.4 15.78 0 .97 1.33 2.33 1.33 2.33s21.7 13.5 22 13.68c.45.26 1.59-.52 1.6-1.46l.26-15.91c.02-1.01-.74-2.23-1.7-2.78-5.12-2.92-21.32-12.33-21.93-12.67-.72-.41-1.96.69-1.96 1.04Z" style="fill:#37475c;stroke-width:0"/><path d="M220.18 92.7c0 .5-.04 12.7-.05 16.92 0 .97.91 1.69 1.33 1.98s21.94 12.55 22.24 12.72c.45.26 1.25.09 1.27-.85.01-.61.17-11.77.23-16.06.02-1.01-.62-2.24-1.58-2.78-5.12-2.92-21.32-12.19-21.93-12.53-.72-.41-1.52-.01-1.52.61Z" style="fill:#3e5570;stroke-width:0"/><path d="M221.15 94.02c0 .45-.04 10.85-.05 14.63 0 .87.35 1.55.91 1.87s20.77 12.03 21.04 12.19c.4.23 1.09.2 1.12-.42.03-.55.02-10.95.08-14.79.01-.91-.29-1.57-.9-1.92-4.59-2.62-20.56-11.73-21.12-12-.45-.22-1.07-.11-1.07.44Z" style="fill:#9fd8d6;stroke-width:0"/><path d="m224.95 109.64 15.03 8.82v-11.94l-15.03-8.64v11.76z" style="fill:#e4e9ea;stroke-width:0"/><path d="m224.95 99.3 15.03 8.7v-1.48l-15.03-8.64v1.42z" style="fill:#087fb9;stroke-width:0"/><path d="m229.41 105.94 4.92 2.85v-.49l-4.92-2.82v.46zm-.07 1.6 4.92 2.85v-.49l-4.92-2.83v.47zm.02 1.65 4.92 2.85v-.49l-4.92-2.82v.46z" style="fill:#a1a1a1;stroke-width:0"/><path d="m234.84 108.96.4.2v-.48l-.4-.18v.46zm-.07 1.6.39.2v-.49l-.39-.17v.46zm.02 1.65.4.2v-.48l-.4-.18v.46z" style="fill:#087fb9;stroke-width:0"/><path d="M65.27 69.37c0 .5.78 11.54.77 15.76 0 .97 1.33 2.33 1.33 2.33s17.51 10.92 17.81 11.09c.45.26 1.59-.52 1.6-1.46l.26-15.91c.02-1.01-.74-2.23-1.7-2.78-5.12-2.92-17.13-9.74-17.74-10.09-.72-.41-2.34 1.07-2.34 1.07Z" style="fill:#37475c;stroke-width:0"/><path d="M64.94 69.97c0 .5-.04 12.7-.05 16.92 0 .97.91 1.69 1.33 1.98s17.75 9.96 18.05 10.14c.45.26 1.25.09 1.27-.85.01-.61.17-11.77.23-16.06.02-1.01-.62-2.24-1.58-2.78-5.12-2.92-17.13-9.6-17.74-9.95-.72-.41-1.52-.01-1.52.61Z" style="fill:#3e5570;stroke-width:0"/><path d="m85.78 85.73 1.22-.46c-.08 4.95-.19 11.35-.19 11.82-.02.93-1.77 2.25-2.23 2.01l1.21-13.37Z" style="fill:#9a9a9a;stroke-width:0"/><path d="M85.57 98.16c-.02.94-.82 1.11-1.27.85-.3-.18-17.63-9.85-18.05-10.14s-1.34-1.01-1.33-1.98c0-2.75.03-8.79.04-12.87l20.8 11.71c-.08 5.08-.18 11.93-.19 12.42Z" style="fill:#e4e9ea;stroke-width:0"/><ellipse cx="66.93" cy="72.34" rx=".7" ry=".86" style="fill:#b04c4b;stroke-width:0" transform="rotate(-30 66.933 72.355)"/><ellipse cx="69.17" cy="73.57" rx=".7" ry=".86" style="fill:#edc11b;stroke-width:0" transform="rotate(-30 69.166 73.573)"/><ellipse cx="71.36" cy="74.85" rx=".7" ry=".86" style="fill:#dceaec;stroke-width:0" transform="rotate(-30 71.366 74.842)"/><path d="m83.44 89.65-.02-.55-1.04-1.02 1.1-.03v-.42h-.12l-1.63.05-.02.27 1.73 1.7zm-3.71-1.31 2.46 1.43v-.25l-2.46-1.41v.23z" style="fill:#3e5570;stroke-width:0"/><ellipse cx="175.24" cy="60.28" rx="7.66" ry="4.43" style="fill:#1c1b1a;opacity:.14;stroke-width:0"/><path d="M180.14 58.11s.06-.09.08-.13V58c-.02.04-.05.08-.08.12Z" style="fill:#241e1c;stroke-width:0"/><path d="M172.11 40.45c.04.28.09.57.14.85s-.09-.26-.09-.26c-.02-.19-.03-.39-.05-.59Z" style="fill:#1c171c;stroke-width:0"/><path d="M172.07 44.43h-.01.01zm-.17-2.05s-.04.08-.07.11c0-.04 0-.09-.01-.13.03 0 .05.01.08.02Z" style="fill:#1d1721;stroke-width:0"/><path d="M176.17 21.29c-.12 0-.24-.19-.35-.21.16-.02.32-.06.47-.09h.12c-.03.04-.11.12-.24.2v.11Zm0 .11v.22c0-.03-.02-.06-.03-.08v-.13h.03Zm0 .22c.06.17.05.34 0 .5v-.5Zm-.15.77c.06-.09.11-.18.14-.27v.18c-.05.03-.09.06-.14.09Z" style="fill:#35234e;stroke-width:0"/><path d="M175.81 21.08h-.04.04Zm-.04 0h-.01.01z" style="fill:#ecf7fd;stroke-width:0"/><path d="M175.6 21.05c-.15.03-.32.06-.49.09-.05 0-.1.02-.14.03-.16.03-.33.07-.5.11.42-.14.8-.39 1.03-.58 0 .09.05.22.09.35Z" style="fill:#f9ae78;stroke-width:0"/><path d="M174.7 21.53c-.11.06-.22.12-.34.16.11-.06.23-.11.34-.16Zm.47-.21c.21-.09.41-.17.59-.24s.03 0 .04 0c.12.02.23.22.35.21v.11h-.03c-.4.09-.99.36-1.62.66l-.33.15c.34-.33.67-.65.97-.9Z" style="fill:#ecf7fd;stroke-width:0"/><path d="M176.53 57.55c.97 1.12 2.67 1.38 3.44.74.06-.05.12-.11.17-.17-.05.07-.11.13-.19.19-.74.6-2.35.4-3.4-.63-.01-.04-.02-.08-.03-.13Z" style="fill:#241e1c;stroke-width:0"/><path d="M176.5 57.52c-.07-.31-.06-.77-.15-1.39.03 0 .05-.01.08-.02.15.57.05 1.1.09 1.43 0 0-.01-.02-.02-.02Z" style="fill:#181516;stroke-width:0"/><path d="M172.44 21.71c-.06-.33-.23-.81-.29-1.19v-.09c.19.04.29-.09.35-.28h.03c.19.3.41.75.61 1.07.3.17.64.2.96.15-.57.15-1.11.34-1.62.59-.01-.08-.03-.17-.05-.25Z" style="fill:#f9ae78;stroke-width:0"/><path d="M172.91 19.35s.02.03.04.04c-.03.11-.05.21-.08.3.01-.14.03-.25.04-.34Z" style="fill:#3c1a12;stroke-width:0"/><path d="M174.18 22.24c-.36.17-.73.35-1.05.49v-.01c.15-.06.31-.13.47-.21.18-.09.39-.19.61-.29l-.02.02Zm-1.06.47c-.06.02-.13.05-.19.07-.02-.05-.05-.11-.07-.17.05-.04.11-.08.16-.12.03.08.06.15.1.22Z" style="fill:#ecf7fd;stroke-width:0"/><path d="M172.79 19.95s.03.02.04.03c0 .11-.01.22-.02.31-.01-.14-.02-.26-.03-.34Z" style="fill:#3c1a12;stroke-width:0"/><path d="M173.13 22.72c-.07.03-.13.05-.19.08v-.02c.06-.02.13-.05.19-.07v.01Z" style="fill:#ecf7fd;stroke-width:0"/><path d="M172.85 22.61c.45-.34.99-.65 1.51-.91.12-.04.23-.1.34-.16.16-.07.31-.14.46-.21-.3.25-.63.57-.97.9-.22.1-.43.19-.61.29-.16.08-.32.15-.47.21-.04-.07-.08-.14-.1-.22-.05.04-.11.08-.16.12Z" style="fill:#ecf7fd;stroke-width:0"/><path d="M172.57 22.45c-.03-.15-.06-.33-.08-.49.51-.25 1.05-.44 1.62-.59l.37-.09c.17-.04.34-.07.5-.11.05-.01.1-.02.14-.03-.31.07-.62.14-.87.24-.57.21-1.54.96-1.67 1.07Z" style="fill:#f9ae78;stroke-width:0"/><path d="m172.43 22.95.25-.22c.06-.04.11-.08.17-.12.03.06.05.12.07.17-.16.06-.32.11-.49.16Z" style="fill:#ecf7fd;stroke-width:0"/><path d="M172.35 22.97c.11-.08.22-.16.34-.24-.09.07-.17.14-.25.22-.03 0-.06.02-.09.03Z" style="fill:#ecf7fd;stroke-width:0"/><path d="M172.27 21.15v.01-.01z" style="fill:#f9ae78;stroke-width:0"/><path d="M172.27 21.16s0 .09.01.14l-.06-.15h.05Z" style="fill:#f58d52;stroke-width:0"/><path d="M172.51 20.15c-.05.19-.15.32-.35.28h-.02v-.08l-.06-.13c0-.09-.01-.2-.02-.31a8.9 8.9 0 0 1-.01-1.02c.15-.18.68-.15.59.3-.05.24-.03.68-.12.97Z" style="fill:#f79e5e;stroke-width:0"/><path d="M172.43 22.95c.17-.05.33-.1.49-.16v.02c-.24.1-.45.17-.63.21 0 0 .02-.02.02-.03 0 0 .01 0 .02-.01.03 0 .06-.02.09-.03Zm2.69-1.8c.24-.05.48-.08.67-.11v.04h-.02c-.18.07-.38.15-.59.24-.15.06-.3.13-.46.21-.11.05-.22.11-.34.16-.53.26-1.06.57-1.51.91-.06.04-.11.08-.17.12-.11.08-.22.16-.34.24 0 0-.01 0-.02.01.03-.03.05-.07.07-.1.08-.13.1-.27.16-.42l.02-.01c.13-.1 1.1-.86 1.67-1.07.25-.1.57-.17.87-.23Z" style="fill:#ecf7fd;stroke-width:0"/><path d="M172.35 21.51c-.02-.11-.05-.23-.08-.35-.04-.2-.09-.4-.12-.58v-.06c.06.38.23.87.29 1.19.02.08.03.16.05.25-.03-.13-.11-.28-.14-.44Z" style="fill:#f9ae78;stroke-width:0"/><path d="M172.16 20.43v.09c0-.03-.01-.06-.01-.09h.02Z" style="fill:#f79e5e;stroke-width:0"/><path d="M172.15 20.57c-.01-.05-.02-.1-.03-.16h.03c0 .03 0 .06.01.09v.06Z" style="fill:#f79e5e;stroke-width:0"/><path d="M172.31 23.01h-.02c.01 0 .03-.02.04-.03 0 0-.01.02-.02.03Z" style="fill:#ecf7fd;stroke-width:0"/><path d="m174.57 55.77-.03.02.03-.02z" style="fill:#8a4b20;stroke-width:0"/><path d="M172.07 20.21c-.03-.13-.05-.25-.07-.34.02 0 .03.02.04.02 0 .11.01.22.02.31Z" style="fill:#f79e5e;stroke-width:0"/><path d="M172.1 20.81c.01.05.03.1.04.15-.02-.04-.03-.08-.05-.12 0 0 0-.02.01-.03Z" style="fill:#f58d52;stroke-width:0"/><path d="M174.54 55.79z" style="fill:#8a4b20;stroke-width:0"/><path d="M172.27 21.16c.03.12.05.24.08.35-.41-.03-.71-.13-.83-.32.12.06.49-.14.58-.35.02.04.03.08.05.12-.01-.05-.03-.09-.04-.15v-.01c.01-.05.03-.13.05-.22.04.18.08.38.12.58h-.05l.06.15c0-.05 0-.09-.01-.14Z" style="fill:#f58d52;stroke-width:0"/><path d="M172.09 20.84c-.03-.08-.06-.15-.08-.2.02 0 .03.01.05.02.01.05.03.11.04.16 0 0 0 .02-.01.03Z" style="fill:#f79e5e;stroke-width:0"/><path d="M180.14 58.11v.01c-.05.07-.11.13-.19.19-.74.6-2.35.4-3.4-.63-.01-.04-.02-.08-.03-.13 0 0-.01-.02-.02-.02-.07-.31-.06-.77-.15-1.39-.31.09-.74.26-1.1.1-.21-.09-.47.06-.67.14-.2.08-.25.14-.32.36-.03.22-.08.74.04 1.03.68.54 1.71 1.08 2.53 1.46.05-.55.75.14.87.37.23.09.4.14.46.15 0 0 .84.36 1.42.21.44-.11.53-.31.56-.4s0-.04 0-.05c.02-.23.04-.47.05-.69.01-.29.02-.57.02-.82-.02.04-.05.08-.08.12Z" style="fill:#d9e1ed;stroke-width:0"/><path d="M171.2 18.08c.12.36.53.86.54 1.65l.27.15c.02.09.04.2.07.34l.06.13v.08h-.03c.01.05.02.1.03.16-.01.09-.03.17-.05.22v.01c-.01-.05-.03-.1-.04-.16-.02 0-.03 0-.05-.02.02.06.05.12.08.2-.09.21-.46.41-.58.35-.17-.19-.35-1.29-.5-1.83-.08-.32-.19-.56-.17-.85.04-.49.12-.52-.08-.89 0 0 0-.2.03-.47.03.03.07.06.11.09h.02c.05.29.16.52.27.83Z" style="fill:#f79e5e;stroke-width:0"/><path d="M172.82 20.29c0-.09 0-.2.02-.31-.02-.01-.03-.02-.04-.03 0 .09.01.21.03.34Zm2.9.15s-.08.13-.22.25c-.22.19-.6.44-1.03.58-.12.03-.24.06-.37.09-.32.05-.66.02-.96-.15-.2-.32-.42-.78-.61-1.06h-.03c.08-.3.07-.74.12-.98.09-.45-.44-.48-.59-.3-.02.22 0 .65.01 1.02-.01 0-.03-.02-.04-.02l-.27-.15c0-.78-.42-1.29-.54-1.65-.11-.32-.22-.55-.27-.84h-.02s-.08-.06-.11-.09c-.12-.11-.22-.23-.3-.35-.05-2.19 3.16-3.37 5.04-2.31.95.53 1.77 1.56 1.51 2.5-.27.98-.65 2.07-1.03 2.92-.12.18-.29.36-.3.53Zm-2.77-1.05s-.02-.03-.04-.04c-.01.09-.03.21-.04.34.02-.09.05-.2.08-.3Z" style="fill:#c4775a;stroke-width:0"/><path d="M169.33 42.63c-.03.07-.05.13-.07.2a.527.527 0 0 0-.25 0v-.44c.09.09.2.18.31.25Z" style="fill:#1d1721;stroke-width:0"/><path d="M168.96 42.32c-.03-.39-.06-.78-.1-1.18l.18.12c0 .37-.01.74-.02 1.12l-.06-.06Z" style="fill:#22192f;stroke-width:0"/><path d="M178.33 39.78s.21-.7.31-1.05c0-.16.03-.33.06-.49l.02-.03c.08.07.18.14.28.19.01 0 .02.01.04.02.46.2 1.05.16 1.49-.08.02.06.03.12.03.18.04.29 0 .58-.08.84 0 .02-.01.04-.02.06-.06.19-.13.37-.19.53-.23 1.12-1.44 1.3-1.95 1.36-.09-.14-.12-1.47 0-1.53Z" style="fill:#f9ae78;stroke-width:0"/><path d="M180.42 38.85c-.61.18-1.37-.32-1.88-.64-.12-.07-.22-.16-.31-.25 0-.38.04-.37.05-.73.81.53 1.93.84 2.71 1.07.03 0 .05.02.08.02 0 .04 0 .09.01.13-.06.08-.13.14-.21.2-.11.07-.24.13-.38.18-.02 0-.03.01-.05.02Z" style="fill:#fff;stroke-width:0"/><path d="M179.93 51.75c-.11-1.42-.63-7.85-.69-9.49-.04-1.2-.08-2.41-.14-3.55s-.05.05-.08.07c-.05.05-.11.09-.16.14l-.06.06s-.01 0-.02.01c-.09.08-.18.15-.27.23l-.15.12c-.04.03-.08.07-.13.1-.09.08-.19.15-.28.23-.32.25-.65.5-.96.74l-.13.1c-.08.06-.16.13-.24.19a16.156 16.156 0 0 1-1.18.85c-.04.25-.08.28-.06.04v-.04c-.55.33-1.14.61-1.73.78-.02 0-.04 0-.07.02l.02-.26-4.65-.55c-.03 2.09-.14 15.89-.19 18.25 0 .22 0 .42-.01.61v.01c-.04 1.02-.16 1.48-.16 1.48s0 .02.01.03c.52 1.11 2.59 2.2 3.61 1.81.22-.09.39-.24.49-.48.07-.18.11-.4.09-.68 0-.11-.02-.22-.05-.34.02-.95.33-11.58.62-14.02.06-.53.17-1.44.22-1.94.26.1.5.2.73.29l.32.66 1.49 7.52c.07.45.15.86.21 1.24 0 .06.02.12.03.17.03 0 .05-.01.08-.02.15.57.05 1.1.09 1.43.97 1.12 2.67 1.38 3.44.74.06-.05.12-.11.17-.17v-.01c.03-.04.06-.09.08-.13v.02c.02-.02.03-.05.04-.07.11-.2.17-.44.16-.73-.17-.84-.33-3.04-.5-5.44Zm-6.59-5.53v-.07s.04.01.05.02c.02 0 .03.01.05.02l-.11.03Z" style="fill:#00596f;stroke-width:0"/><path d="M172.22 63.72c-1.02.4-3.09-.7-3.61-1.81-.38.08-.39-.02-.77-.1-.23-.05-.18-.13-.49-.1-.18.02-.44.11-.61.23-.1.06-.15.15-.15.24v.07c0 .09 0 .19.02.3.02.23.04.49.05.67.49.45 1.82 1.05 2.84 1.46.02-.55.76.1.93.34.17.05.29.09.35.09 0 0 .87.34 1.44.19.43-.11.52-.3.53-.38s0-.03 0-.05v-.65c0-.35-.03-.69-.05-.98-.1.24-.27.39-.49.48Z" style="fill:#d9e1ed;stroke-width:0"/><path d="M180.73 24.86c0-.28 0-.57-.02-.85s-.05-.54-.09-.8v-.1c-.07-.46-.17-.91-.3-1.32a.27.27 0 0 0-.07-.08c-.39-.45-1.3-.88-2.08-.84-.06 0-.94.15-1.43.23-.08-.05-.21-.09-.31-.13V21c-.03.04-.11.12-.24.2v.44c0-.03-.02-.06-.03-.08v-.13c-.39.09-.99.36-1.61.66-.11.05-.23.11-.35.17-.36.17-.73.35-1.05.49-.07.03-.13.05-.19.08-.24.1-.45.17-.63.21h-.02c-.09.07-.19.14-.29.21l-.12.09-.68.5c-.12.09-.24.18-.35.27l-.42.33c-.5.4-.98.8-1.42 1.21-.04.04-.09.08-.13.12l.02.02c-.04.05-.08.11-.11.16-.13.21-.23.44-.31.69-.01.04-.03.09-.04.13-.03.07-.07.15-.09.22 0 .02-.01.03-.02.05-.03.08-.05.15-.07.23-.1.41-.16.82-.19 1.24-.01.13-.02.27-.02.4v.42c.02 1.37.3 2.75.51 4.08.03.2.07.39.12.58-.22 1.62-.15 3.32-.01 4.98-.11.56-.25 1.08-.42 1.52.15.25.36.47.62.66l.18.12c.81.53 1.93.84 2.71 1.07.03 0 .05.02.08.02s.05.01.08.02c.19.05.39.07.59.08.39.02.78-.04 1.17-.14.6-.16 1.18-.44 1.73-.78v.04a.21.21 0 0 0 .06-.04v-.04c.24-.15.48-.31.71-.47.2-.14.39-.29.58-.43.08-.06.16-.12.23-.18l.12-.09c.3-.23.61-.46.91-.7.09-.07.18-.14.27-.22.03-.02.05-.04.08-.06l.15-.12c.09-.07.18-.15.27-.23 0 0 .01 0 .02-.01.02-.02.04-.04.06-.05.05-.05.11-.1.16-.14.03-.02.05-.05.08-.07.13-.12.26-.24.38-.37-.02-.02-.03-.05-.04-.07.41.1.85.11 1.25 0 .02 0 .03 0 .05-.02.14-.05.27-.1.38-.18.09-.06.16-.12.21-.2 0-.04 0-.09-.01-.13-.11-1.43.06-3.36-.11-4.75-.02-.19-.05-.57-.08-1.09-.11-1.71-.27-4.86-.41-7.04Zm-10.05 2.07c.02.03.03.06.05.09a.405.405 0 0 1-.05-.09Zm1.09 10.22c.06.63.13 1.25.16 1.79-.04-.54-.11-1.16-.16-1.79Zm.47 4.15-.09-.26c-.02-.19-.03-.39-.05-.59.04.28.09.57.14.85Zm3.91-19.17v.18c-.05.03-.09.06-.14.09.06-.09.11-.18.14-.27v-.5c.06.17.05.34 0 .5Z" style="fill:#00353f;stroke-width:0"/><path d="M168.66 43.25s.21-.7.31-1.05c0-.16.03-.33.06-.49l.02-.03c.08.07.18.14.28.19.01 0 .02.01.04.02.46.2 1.05.16 1.49-.08.02.06.03.12.03.18.04.29 0 .58-.08.84 0 .02-.01.04-.02.06-.06.19-.13.37-.19.53-.23 1.12-1.44 1.3-1.95 1.36-.09-.14-.12-1.47 0-1.53Z" style="fill:#f9ae78;stroke-width:0"/><path d="M170.98 42.7c-.61.18-1.37-.32-1.88-.64-.12-.07-.22-.16-.31-.25 0-.38.04-.37.05-.73.81.53 1.93.84 2.71 1.07.03 0 .05.02.08.02 0 .04 0 .09.01.13-.06.08-.13.14-.21.2-.11.07-.24.13-.38.18-.02 0-.03.01-.05.02Z" style="fill:#fff;stroke-width:0"/><path d="M53.21 118.98s0 .04.01.05c.1.58.09 1.67.03 2.91.16-.45.41-.91.44-1.34.09-.6-.04-1.16 0-1.76-.13.04-.27.07-.38.12h-.1Z" style="fill:#f7a16b;stroke-width:0"/><path d="M50.15 120.35c.4-1.33.41-3.35.41-4.67-.11.06-.23.12-.35.17 0 1.46 0 3.03-.06 4.5Z" style="fill:#051718;stroke-width:0"/><path d="M53.47 145.18c-.39-.99-.93-1.99-1.26-2.98h-.02c-.01-.07-.03-.15-.03-.22a6.92 6.92 0 0 1-.06-.64c0-.11-.02-.22-.02-.33-.57.23-1.21.36-1.8.3-.05.11-.1.21-.15.32-.06.11-.12.22-.2.32h.01c-.63.97 0 2.04 0 3.04.07.04.15.08.23.11h.06c.14-.01.28-.07.41-.11-.06-.27-.11-.65-.02-.92.36.79.75 1.71 1.36 2.18.55.03 2.17.02 2.22-.45 0-.13-.48-.44-.73-.61Z" style="fill:#161c1d;stroke-width:0"/><path d="M49.27 102.74c.04.35.15.65.38 1.01-.05-.42-.08-.83-.1-1.15-.11.04-.2.08-.29.14Z" style="fill:#f4854a;stroke-width:0"/><path d="M47.85 101.25c.04.06.08.12.12.17.13-.09.23-.21.29-.37-.14.11-.28.17-.41.2Z" style="fill:#5b303d;stroke-width:0"/><path d="M50.84 97.43c-.02-.47-.07-.93-.13-1.36-.91.7-2.08.89-3.52.99.54.16.44.65-.14.69-.27.01-.5 0-.69 0-.35.35-.37 1.07-.19 1.77.27.97.93 1.9 1.69 1.74.13-.03.27-.09.41-.2-.06.16-.16.28-.29.37-.04.03-.08.06-.13.08-.08.04-.18.08-.28.11-.25.07-.52.11-.76.12.11.12.32.21.5.27-.3.09-.59.13-.86.13 0 .03.01.06.02.09.1.49.12.78.19 1.22.46.12 1.08.38 1.65.68.73.38 1.39.83 1.59 1.09 0-.02 0-.04-.01-.07-.07-.35-.15-.88-.22-1.41-.23-.36-.34-.66-.38-1.01h-.01c-.04-.32-.05-.68-.05-1 .16-.02.33-.07.48-.15.28-.15.53-.38.7-.73.05-.1.09-.2.13-.32.31-.93.38-2.04.32-3.12Z" style="fill:#facac1;stroke-width:0"/><path d="M52.79 127.98c.03-.3.35-3.47.47-6.03.06-1.24.06-2.33-.03-2.91 0-.01 0-.03-.01-.05-.28-1.64-.68-3.21-1.16-4.81-.02-.08-.04-.15-.07-.22-.01-.04-.03-.09-.04-.14v-.02c-.05-.17-.11-.35-.16-.52 0-.02-.01-.04-.02-.06-.01.03-.02.06-.02.09-.04.16-.07.3-.11.41-.29.48-.74.88-1.28 1.18-1.16.65-2.74.85-3.97.44h-.02c-.09-.03-.18-.06-.26-.1-.2.08-.41.15-.61.22-.02.16-.03.31-.03.48-1.64 1.82-2.08 4.43-1.98 6.69.1 2.4.21 2.22.73 4.57.53 2.42.17 6.42 0 7-.34 1.33-.39 2.66-.43 4.03-.06 1.34.38 2.72.85 4.08.06.59-.06 1.16-.46 1.66.27.15.55.25.85.33.47.12.96.16 1.45.16h.43c.31 0 .6-.01.9-.03-.5-.67-.4-2.11-.46-2.88-.04-.32.01-.87 0-1.18.11-.62.22-1.24.35-1.86.54-2.62.68-5.28 1.11-7.94.14-.72.28-1.47.39-2.2.04.88.11 1.77.12 2.65-.69 2.65-.21 4.36.03 6 .14.94.4 1.87.59 2.81 0 .56-.09 1.08-.35 1.36.21.11.45.18.68.21.59.08 1.23-.08 1.8-.35.05-.02.1-.05.15-.07.2-.11.4-.23.57-.36-.53-.69-.59-1.9-.61-2.91.1-1.14.23-2.27.31-3.38.19-2.12.29-4.19.29-6.3Z" style="fill:#334863;stroke-width:0"/><path d="M47.4 148.19c-.21-1.17-.28-2.43-.53-3.53v-.41c0-.13.01-.26.02-.39h-.43c-.49 0-.98-.04-1.45-.14 0 .06.01.11.01.16-.04.44-.22.83-.34 1.24 0-.09-.01-.19 0-.28-.62 1.23-.16 2.8.22 4.01.06 0 .16 0 .24.02.22.55.58 1 1.33.98.48-.08.9-.13 1.24-.39a8.74 8.74 0 0 1-.32-1.27Z" style="fill:#161c1d;stroke-width:0"/><path d="M52.9 110.63s-.99-.36-1.03-.32c-.67-3.9-1.03.72-1.01.67l1.13 2.98c.03.07.05.15.07.22.47 1.6.88 3.17 1.16 4.81h.1c.12-.06.25-.09.38-.13v-.06c-.02-1.85-.24-3.63-.47-5.45-.01 0-.04-2.96-.32-2.72Z" style="fill:#34bcaf;stroke-width:0"/><path d="M51.7 111.62h.02c.1-.23.29-.4.54-.54.29-.17.65-.29.97-.45.29-1.19.29-2.56.39-3.76h-.02c.21-.24.39-.5.48-.76 0-.07-.01-.15-.02-.22-.13-.77-.81-1.42-1.28-2.11-.06-.33-.08-.66-.13-.99h-.03c-.15-1.01-.77-1.87-1.74-1.95-.15-.01-.31 0-.47.02-.18.35-.42.58-.7.73-.15.08-.31.13-.48.15 0 .33.01.69.05 1h.01c.08-.05.33.59.38 1.01.06.52.14 1.05.22 1.41 0 .02.01.04.01.07-.2-.27-.86-.71-1.59-1.09-.57-.3-1.19-.57-1.65-.68-.07-.44-.08-.73-.19-1.22-.34.2-.89.73-1 .85-.03.03-.06.06-.09.08v.02c-.03 0-.06.02-.08.04-.55.26-1.08.55-1.55.89-.07.05-.14.1-.21.16-.24.16-.45.4-.6.7-.11.31-.2.63-.28.95-.69 2.76-.48 5.8.06 8.43.02.09.04.18.06.29.12.6.24 1.31.78 1.43.65-.18 1.29-.39 1.94-.62.2-.07.41-.15.61-.22.08.03.17.07.26.1h.02c1.24.41 2.81.2 3.97-.44.54-.3.99-.7 1.28-1.18.03-.12.06-.25.11-.41 0-.02.01-.06.02-.09.01-.05.03-.12.04-.19.02-.05.03-.1.04-.15.02-.06.03-.13.04-.17v-.02c-.03.02-.07.03-.1.05h-.01c-.08-.13-.15-.33-.19-.52 0-.03-.01-.06-.02-.09-.02-.21 0-.41.12-.48Zm-6.86 1.82c0-.56.02-1.2.05-1.87.21.54.37 1.09.48 1.65-.19.07-.36.14-.53.22Z" style="fill:#34bcaf;stroke-width:0"/><path d="M51.22 95.59s-.02-.03-.03-.04c.21-.14-.07-.92-.62-.87.2-.07.13-.27-.05-.26-.55-.6-1.4-.97-2.3-1.16-.8-.16-1.82-.14-2.52.18-.43.2-.92.46-1.34.83-.34.29-.64.64-.85 1.08 0 .03.01.07.02.1h.58c-.68.5-.57 1.33-.53 2.18.02.51.13 1.03.28 1.49.5 1.58.87 3.02 2.58 3.01.28 0 .57-.04.86-.13-.18-.06-.39-.15-.5-.27.24-.01.51-.05.76-.12.1-.03.19-.07.28-.11.05-.02.1-.05.13-.08-.04-.05-.08-.12-.12-.17-.76.16-1.42-.77-1.69-1.74-.19-.69-.16-1.42.19-1.76-.03 0-.06 0-.1-.02.04 0 .07 0 .11.01.2.02.43.02.69 0 .58-.04.67-.53.14-.69 1.44-.1 2.61-.29 3.52-.99.06.43.11.89.13 1.35.06 1.08-.02 2.19-.32 3.12-.04.11-.08.22-.13.32.16-.03.32-.03.47-.02.22-.14.42-.33.55-.49-.23.07-.37-.08-.36-.27.77-1.42 1.28-3.14.17-4.49Z" style="fill:#09110e;stroke-width:0"/><ellipse cx="198.22" cy="180.16" rx="7.66" ry="4.43" style="fill:#1c1b1a;opacity:.14;stroke-width:0"/><path d="M192.49 177.91c-.02-.58.59-.63.93-1.23.01-.03.03-.06.05-.09.17-.31.48-.8.51-1.06s.09.1.09.1l.73.3c.68.26 1.37.31 2.05-.62.03.29.06.58.09.76.04.19.04.34.06.51-.06.07-.15.17-.27.28-.09.1-.21.21-.33.33-.07-.1-.24-.05-.34.03-.14.13-.17.3-.2.47-.73.66-1.59 1.38-2 1.56-.17 0-.34-.02-.51-.07l-.52-.25c-.17-.12-.29-.26-.3-.38 0-.04-.07-.41-.05-.45a.277.277 0 0 1 0-.18Z" style="fill:#00373f;stroke-width:0"/><path d="M195.66 138.15c0 .08-.01.17-.02.25.16-1.03.53-1.92.97-2.83 0-.03.01-.06.02-.09.05-.28.08-.64.15-.95-.05.04-.09.07-.14.1-.09-.19-.09-.38-.07-.56-.18.31-.31.66-.38.94-.29 1.03-.44 2.06-.53 3.13Z" style="fill:#bae5fa;stroke-width:0"/><path d="M197.62 134.16v-.03h-.02c-.18-.04-.35.04-.5.15-.11.08-.22.18-.33.26-.07.3-.1.67-.15.95h.02c.08.02.15.04.21.09.16-.38.35-.74.54-1.06.07-.13.15-.25.22-.36Z" style="fill:#3c1b12;stroke-width:0"/><path d="M197.1 135.79c.31-.18.62-.47.86-.76 0-.03-.02-.07-.02-.09-.08-.29-.17-.57-.25-.81h-.02s-.02.01-.04.04c-.07.11-.15.23-.22.36-.2.32-.38.68-.54 1.06.08.05.16.12.23.21Z" style="fill:#502310;stroke-width:0"/><path d="M200.09 128.45c-.09.02-.18.03-.28.03-.14.44-.21.81-.21.81.13.48.04.49-.1 1.04-.09.34-.02.64 0 1.03.04.63-.08.98-.03 1.45.27-.09.54-.2.77-.32.31-.27.46-.61.55-.87 0 0-.01 0-.02-.01.07-.19.12-.46.18-.74-.17.14-.36.27-.55.39.2-.97-.01-1.32-.06-1.79-.05-.4-.11-.71-.1-1.06-.05.02-.09.03-.14.04Z" style="fill:#f79e5e;stroke-width:0"/><path d="M200.24 132.49c-.23.12-.5.23-.77.32-.71.24-1.45.38-1.64.36-.03 0-.07-.01-.11-.02v.03c-.03.19-.04.38-.06.58 0 .05 0 .09-.01.15.1.69 2.54 1.05 3.22-.16.03-.32.05-.65.08-.97.01-.17.03-.34.04-.5 0-.03 0-.06.01-.09.01-.16.02-.32.04-.48-.08 0-.16-.02-.25-.09-.09.26-.24.6-.55.87Z" style="fill:#f8b4a9;stroke-width:0"/><path d="M200.95 130.86c-.06.28-.12.55-.18.74 0 0 .01.01.02.01.09.07.17.1.25.09.36-.05.51-.95.66-1.35.19-.5-.34-.66-.53-.48-.06.22-.13.61-.21.99Z" style="fill:#f9ae78;stroke-width:0"/><path d="M199.19 181.23c-.02-.64.62-.7.98-1.34.06-.11.39-.58.45-.72v-.02c.1.11.11.1.35.15.02 0 .05 0 .07.01.84.17 2.24.1 2.76-.35v.03c.02.09.04.18.06.25.04.22.05.39.06.57-.12.14-.33.36-.58.62-.07-.14-.25-.08-.34 0-.16.14-.18.34-.21.53-.77.74-1.7 1.54-2.13 1.74-.27.01-.56-.06-.81-.19-.32-.16-.58-.39-.61-.59 0-.05-.07-.45-.05-.5-.02-.07-.03-.14 0-.2Z" style="fill:#00373f;stroke-width:0"/><path d="M193.69 157.8c.02-.49.04-.98.05-1.45l.06-1.56c0-.33.02-.64.03-.96.01-.42.03-.83.04-1.23.01-.49.37-.11.47.54.08.09.17.18.27.26.45.42.98.76 1.49 1.06.15.09.3.17.44.24.39.21.8.42 1.21.58.47.2.96.35 1.47.43.04.01.08.01.11.02v-.12c.18.09.36.16.54.22.17.03.34.04.5 0h.06c-.01.04-.03.08-.05.13.81.03 2.18-.68 3.08-1.22.09-.06.18-.11.27-.16.03.35.07.7.09 1.04 0 .48-.02.99-.05 1.57-.01.27-.03.65-.04 1.14-.28 1.46-.46 2.59-.46 2.59l-.22 9.24c.08 1.48.45 3.34.68 5.72.05 1.46.3 2.91.3 2.91-.05.05-.12.11-.19.15-.01.02-.03.03-.05.04 0-.01 0-.02-.01-.04-.67.56-2.45.66-3.52.44-.03 0 .3 0 .27-.01-.31-.07.04-.42-.09-.56v.02a.12.12 0 0 1-.05-.05c-.03-.05-.06-.1-.06-.16v-.24c-.02-1.48-.61-4.59-.9-8.13-.23-2.85-.87-8.15-1.11-10.93-.04.21-.8 1.16-.84 1.4-.11.68-.55 6.48-.68 7.79-.26 2.62.31 5.72.15 6.63-.03.05-.06.09-.09.14-.86 1.21-1.72 1.15-2.57.8l-.19-.4.25-.12h-.37v-.01c-.05-1.53-.67-5.52-.53-10.05.08-2.51.18-5.2.26-7.72Z" style="fill:#007988;stroke-width:0"/><path d="M194.69 146.74c.59.12-1.18 5.38-1.07 5.56.07.12.88 1.04.98 1.12.45.42.98.76 1.49 1.06.15.09.3.17.44.24.39.21.8.42 1.21.58.47.2.96.35 1.47.43.04.01.47.06.66.13.17.03.53.08.5.13.81.03 2.18-.68 3.08-1.22.09-.06.18-.11.27-.16.03.35.07.7.09 1.04.03.36.05.72.06 1.04v.15c.05.06.11.12.18.16.01.02.03.03.06.04.12.08.26.13.4.16.01 0 .03.01.05.02.64.13 1.35-.08 1.84-.51.11-.1.2-.21.29-.32.02-.03.04-.06.05-.08-.01-.45-.02-.91-.02-1.38l-.03-2.53c-.04-1.93-.97-9.59-1.1-11.17 0-.16-.02-.33-.04-.48-.02-.16-.04-.31-.07-.46a8.7 8.7 0 0 0-.32-1.41c-.03-.09-.05-.17-.09-.26 0-.02-.02-.03-.02-.05-.04-.08-.07-.17-.12-.24l-.06-.15c-.05-.13-.1-.26-.17-.38-.02-.04-.04-.09-.07-.12-.05-.09-.1-.17-.15-.25-.04-.07-.09-.12-.13-.18l-.03-.03c-.81-1.23-1.34-2.37-2.4-3.45-.03-.04-.07-.08-.11-.12-.24-.5-.85-1.04-.86-.87-.03.32-.05.65-.08.97-.67 1.2-3.11.84-3.22.16-.01-.06 0-.1.01-.15.02-.19.03-.38.04-.58v-.03s-.08-.02-.13-.04c-.23-.09-.11-.59-.33-.77-.17-.15-.1-.03-.09-.19-.05-.49-.23-.08-.2-.61-.88-.34-1.53 1.57-1.86 1.94-.01.03-.03.07-.04.1-.15.39-.74 3.23-.95 4.15-.14.69-.35 1.38-.49 2.12-.02.1 1.57 7 1.08 6.91Z" style="fill:#34bcaf;stroke-width:0"/><path d="M204.36 158.41s.07-.08 0 0c.02-.28.03-.6.05-.89l.12.03c.55.13 1.25.29 1.63-.4.05.35.13.99-.06 2.22-.21.81-.52 1.22-.83 1.47-.25.2-.53-.15-.72-.05-.09-.9-.09-2.17-.19-2.39Z" style="fill:#f79e5e;stroke-width:0"/><path d="M204.11 157.52c.82.09 1.86.21 2.44-.38l-.06-.21c-.03-.08-.05-.15-.09-.22-.49.43-1.2.63-1.84.51-.01 0-.03-.01-.05-.02-.14-.03-.28-.08-.4-.16l-.02.04c0 .14 0 .29.02.44Z" style="fill:#bae5fa;stroke-width:0"/><path d="M197.69 133.42c.4.58 2.53.81 3.15-.3.03-.32.05.4.02.72-.67 1.2-3.11.84-3.22.16 0-.06 0-.1.01-.15l.03-.43Z" style="fill:#fff;stroke-width:0"/><path d="M206.45 129.72c-.07-.02-.14-.06-.22-.1.08.05.16.1.24.14-.01-.02-.02-.02-.02-.04Zm-1.89-.4v.37c0 .1-.02.19-.03.29-.05.44-.14.9-.2 1.26-.11.49-.29.89-.55 1.21-.28.36-.65.61-1.09.74.48 1.1 1.9 1.16 2.68.16.16-.21.29-.46.39-.74.37-1.15-.09-3.32-1.2-3.58v.29Z" style="fill:#731713;stroke-width:0"/><path d="M196.32 127.97c.11.08.21.15.32.21.11.07.24.13.36.19h.01c.46.23.95.39 1.45.48-.11-.19-.19-.4-.27-.62.85.35 1.76.51 2.64.71-.21.37-.31.84-.31 1.32-.01.49.07 1 .2 1.4.01.05.02.09.04.13.07.19.15.37.26.54.07.13.16.26.25.38.13.16.28.26.4.42.06.06.09.11.13.18.31 0 .61-.03.89-.12.44-.13.81-.39 1.09-.74.26-.32.44-.72.55-1.21.07-.36.16-.82.2-1.26l.03-.29v-.66c-.01-.05-.01-.1-.01-.15-.08-1.1-.38-2.34-1.01-3.22-.64-.89-1.58-1.38-2.57-1.64-.41-.12-.82-.2-1.23-.24-.05 0-.1-.01-.15 0-.81-.03-1.83.34-2.42.91-.23.24-.43.43-.58.63-.08.1-.14.21-.2.33-.17.23-.3.48-.39.76-.13.36-.19.76-.19 1.17.1.09.19.17.29.24.02.02.05.04.08.06.05.05.1.08.15.12Zm4.86 2.77s.04-.08.05-.13c0 .05 0 .09-.01.13h-.04Zm-.29-1.78c.11 0 .22 0 .31.01 0 .03 0 .05.01.08-.13-.03-.23-.06-.36-.09h.03Z" style="fill:#731713;stroke-width:0"/><path d="M201.23 130.61s-.02.09-.05.13h.04s.01-.08.01-.13Zm-.02-1.63c-.09 0-.2 0-.31-.01h-.03c.12.03.23.06.36.09-.01-.03-.01-.05-.01-.08Z" style="fill:#321915;stroke-width:0"/><path d="M200.19 128.99c0 .21-.02.46-.02.71.03.12.06.25.07.37v.1c.01.19 0 .37-.06.53-.15.49-.36.64-.39 1.21-.04.3 0 .65-.1.95v.02l-.03.16h.05c.14-.06.28-.14.41-.22h.01c.09-.06.17-.11.26-.16l.03.03c.19-.12.4-.2.6-.33-.11-.17-.19-.35-.26-.54-.01-.04-.02-.08-.04-.13-.13-.4-.21-.9-.2-1.4 0-.48.1-.95.31-1.31-.87-.2-1.79-.36-2.64-.72.08.21.15.43.27.62.5.11 1.01.15 1.51.13h.22Z" style="fill:#f8b4a9;stroke-width:0"/><path d="M197.82 133s.02.01.03.01a.881.881 0 0 0 .39.16c.38.12.78.09 1.16-.03.09-.02.17-.06.26-.1 0-.06.02-.12.03-.17v-.02c.09-.3.06-.65.1-.95.03-.56.24-.72.39-1.21.05-.17.07-.35.06-.53v-.1c0-.11-.04-.24-.07-.37 0-.24.02-.5.02-.71h-.22c-.49.01-1.01-.03-1.51-.13-.49-.1-.98-.26-1.45-.48H197a3.04 3.04 0 0 1-.36-.19c-.02.2-.07.41-.11.65-.01.04-.01.07-.02.11-.06.37-.05.74.01 1.09.01.06.02.12.04.18.07.38.18.75.3 1.11.1.28.19.56.3.81.02.06.06.13.09.19.07.14.15.27.25.38.09.11.2.22.33.3Z" style="fill:#facac1;stroke-width:0"/><ellipse cx="106.27" cy="101.59" rx="7.66" ry="4.43" style="fill:#1c1b1a;opacity:.14;stroke-width:0"/><path d="M113.72 99.5c.03-.76-.86-.82-1.35-1.6v-.01c-.02-.03-.05-.07-.07-.12-.24-.41-.69-1.05-.74-1.39h-.01l-.13.13-1.05.4c-.97.35-1.96.42-2.95-.79-.04.38-.08.76-.12 1l-.01-.01c-.05.25-.06.45-.09.67.08.08.21.22.38.37.13.13.3.27.48.43.1-.13.35-.06.49.04.2.16.25.4.29.62 1.05.86 2.29 1.8 2.88 2.02.24 0 .49-.03.74-.1l.74-.33c.25-.16.41-.34.44-.51.01-.06.09-.53.07-.59.03-.08.03-.16 0-.23Z" style="fill:#00373f;stroke-width:0"/><path d="M108.58 58.95c0 .08.02.17.02.25-.19-1.03-.62-1.92-1.13-2.82 0-.03-.01-.06-.02-.09-.06-.28-.1-.64-.18-.95.05.04.11.07.16.1.1-.19.1-.38.08-.56.2.31.36.66.44.93.34 1.03.52 2.06.62 3.13Z" style="fill:#bae5fa;stroke-width:0"/><path d="M106.31 54.97v-.03h.02c.21-.04.4.04.57.15.13.07.26.18.38.26.08.3.12.67.18.95h-.03c-.09.02-.17.05-.24.09-.19-.38-.4-.74-.63-1.06-.08-.13-.17-.25-.25-.36Z" style="fill:#3c1b12;stroke-width:0"/><path d="M106.92 56.6c-.36-.17-.71-.47-.98-.76 0-.03.02-.07.02-.09.09-.29.19-.57.28-.81h.03s.03.01.04.04c.08.11.17.23.25.36.23.32.44.68.63 1.06-.09.05-.18.12-.27.21Z" style="fill:#502310;stroke-width:0"/><path d="M106.08 53.98c-.22.02-1.07-.11-1.89-.35.06-.47-.08-.82-.04-1.45.01-.39.09-.69-.01-1.03-.16-.56-.26-.56-.12-1.04 0 0-.08-.36-.24-.81.74 0 1.66-1.09 2.29-1.33.45-.18.77.26 1.06-.1.12.43.19.74.19.74-.13.58-.03.59.15 1.27 0 .02 0 .04.01.07.08.39.02.73.01 1.19v.46c.03.53.12.9.06 1.39.02.16-.12.32-.31.47-.25.18-.6.35-.86.44-.05.02-.11.03-.16.04-.05.01-.09.03-.13.02Z" style="fill:#f9ae78;stroke-width:0"/><path d="M103.45 49.28c.1.02.21.03.32.03.17.44.24.81.24.81-.14.48-.04.49.12 1.04.1.34.02.64.01 1.03-.04.63.1.98.04 1.45a4.57 4.57 0 0 1-.88-.32 1.97 1.97 0 0 1-.63-.87s.02 0 .02-.01c-.08-.19-.14-.46-.21-.74.2.14.41.27.63.39-.24-.97 0-1.32.06-1.79.05-.4.13-.71.11-1.06.05.02.11.03.16.04Z" style="fill:#f79e5e;stroke-width:0"/><path d="M103.3 53.32c.26.12.57.23.88.32.82.24 1.67.37 1.89.35.03 0 .08-.01.13-.02l.02.03c.02.19.03.38.05.58 0 .05 0 .09.01.15-.11.69-2.91 1.06-3.69-.14-.03-.32-.06-.65-.1-.97-.02-.17-.03-.34-.05-.5 0-.03 0-.06-.01-.09-.02-.16-.03-.32-.05-.48.09 0 .18-.02.28-.09.1.26.28.6.63.87Z" style="fill:#f58d52;stroke-width:0"/><path d="M102.48 51.7c.07.28.14.55.21.74l-.02.01c-.1.07-.19.1-.28.09-.41-.05-.59-.95-.76-1.34-.22-.5.39-.66.61-.48.07.22.15.61.24.99Z" style="fill:#f9ae78;stroke-width:0"/><path d="M106.25 102.67c.02-.81-.91-.89-1.44-1.7-.09-.14-.57-.73-.66-.92 0 0 0-.02-.01-.02-.15.14-.16.13-.51.2-.03 0-.07.01-.1.01-1.23.23-3.27.14-4.04-.42 0 .02-.01.03-.01.04l-.08.31c-.05.28-.06.49-.09.72.18.18.48.46.86.79.1-.18.36-.1.5 0 .23.18.27.43.31.68 1.14.93 2.5 1.95 3.13 2.19a3 3 0 0 0 1.18-.24c.47-.2.84-.5.89-.76.01-.06.09-.58.07-.63.04-.09.04-.17 0-.25Z" style="fill:#00373f;stroke-width:0"/><path d="M106.15 45.28c-.55-.25-1.55-.41-1.84-.47a4.82 4.82 0 0 0-2 .16c-.52.15-1.01.41-1.4.75h-.01c-.43.36-.45.85-.69 1.35-.31.63-.41 1.3-.11 1.87.64 1.24.86 2.25 1.57 3.3l.03-.02c.13.21.22.4.29.62.17.11.28.08.42.18h.03c-.02-.16-.03-.32-.05-.48-.41-.05-.59-.95-.76-1.34-.22-.5.39-.66.61-.48.07.22.15.61.24.99.2.14.41.27.63.39-.24-.97 0-1.32.06-1.79.05-.4.13-.71.11-1.06.05.02.11.03.16.04.1.02.21.03.32.03.74 0 1.66-1.09 2.29-1.33.45-.18.77.26 1.06-.1.12.43.19.74.19.74-.13.58-.03.59.15 1.27 0 .02 0 .04.01.07.14-.91-.04-2.03-.11-2.41.1-.15.2-.32.29-.49.31-.58-.76-1.42-1.5-1.77Z" style="fill:#6d4640;stroke-width:0"/><path d="M110.94 78.6c-.02-.49-.05-.98-.07-1.45-.02-.54-.05-1.05-.07-1.56-.01-.33-.02-.64-.04-.96l-.06-1.23c-.02-.49-.42-.11-.53.54-.1.09-.2.18-.31.26-.51.42-1.12.77-1.7 1.07-.17.09-.34.17-.5.25-.45.22-.91.42-1.38.59-.54.2-1.1.36-1.68.44-.04.01-.09.01-.13.02v-.12c-.2.09-.41.17-.62.23-.19.03-.39.04-.57.01h-.07c.02.04.04.08.06.13-.93.03-2.5-.67-3.54-1.2-.11-.06-.21-.11-.31-.16-.04.35-.08.7-.1 1.04 0 .48.02.99.06 1.57.01.27.04.65.05 1.14.33 1.46.54 2.59.54 2.59l-.53 10.69c-.08 1.48.05 2.65.08 4.27-.05 1.46-.33 2.91-.33 2.91.06.05.13.11.21.15.02.02.04.03.05.03 0-.01 0-.02.01-.04.77.56 2.81.65 4.04.42.04 0 .07 0 .1-.01.35-.07.37-.06.51-.2 0 0 0 .02.01.02a.245.245 0 0 0 .12-.21v-.24c.03-2.67.8-10.65 1.39-16.9.04.21.09.43.14.68.13.68.66 6.47.82 7.78.32 2.62.5 3.91.68 4.81l.11.14c.99 1.21 1.98 1.14 2.95.79l1.05-.4.13-.12h.01v-.01c.08-2.38-.3-10.7-.62-17.77Z" style="fill:#00353f;stroke-width:0"/><path d="M113.01 60.61c-.16-.73-.41-1.42-.57-2.11-.25-.92-.45-1.88-.74-2.76-.14-.47-.3-1.02-.54-1.48a10.932 10.932 0 0 0-.67-2.08c0-.03-.03-.07-.04-.1-.38-.37-1.96-.81-2.97-.47.03.53.12.9.06 1.39.02.16-.12.32-.31.47-.25.18-.6.35-.86.44-.05.02-.11.03-.16.04l.02.03c.02.19.03.38.05.58.02.05.03.09.01.15-.11.69-2.91 1.06-3.69-.14-.03-.32-.06-.65-.1-.97-.02-.17-.71.37-.98.87-.04.04-.09.08-.13.12-1.22 1.09-2.61 2.24-3.53 3.47l-.03.03c-.05.05-.1.11-.15.18-.06.07-.11.16-.17.25-.03.04-.05.09-.07.12-.08.12-.13.25-.19.38l-.06.15c-.05.08-.09.16-.13.24 0 .02-.02.04-.02.05a7.678 7.678 0 0 0-.46 1.67c-.03.16-.05.3-.07.46-.02.16-.04.32-.05.48-.14 1.58-.37 9.24-.41 11.17-.02.86-.02 1.7-.03 2.53 0 .47 0 .93-.02 1.38.02.02.04.05.06.08.09.12.21.22.33.32.56.42 1.38.63 2.11.5.02 0 .04-.01.05-.02.17-.03.33-.08.46-.16.03 0 .05-.03.07-.04.08-.04.15-.1.21-.16v-.15c0-.33.03-.68.06-1.04.03-.34.06-.69.1-1.04.1.05.2.1.31.16 1.03.53 2.61 1.23 3.54 1.2-.03-.05.38-.1.58-.13.21-.06.71-.12.75-.13.58-.09 1.14-.24 1.68-.44.47-.17.93-.37 1.38-.59.16-.08.33-.16.5-.25.58-.3 1.19-.65 1.7-1.07.11-.08 1.04-1.01 1.12-1.13.13-.18 1.83-2.18 2.5-2.31 1.58-.27-.38-9.71-.47-10.17Z" style="fill:#b6e0db;stroke-width:0"/><path d="M98.71 79.27s-.09-.08 0 0c-.02-.28-.04-.6-.07-.89-.04.01-.09.02-.14.04-.63.13-1.43.3-1.87-.39-.06.35-.14.99.08 2.22.24.81.6 1.22.96 1.47.29.2.61-.16.82-.05.1-.9.09-2.17.2-2.39Z" style="fill:#f79e5e;stroke-width:0"/><path d="M98.99 78.37c-.94.1-2.14.23-2.8-.37.02-.07.04-.14.07-.21.03-.08.06-.15.1-.22.56.42 1.38.63 2.11.5.02 0 .04-.01.05-.02.17-.03.33-.08.46-.16l.03.04c0 .14 0 .29-.02.44Z" style="fill:#bae5fa;stroke-width:0"/><path d="M106.23 54.24c-.45.59-2.9.82-3.62-.29-.03-.32-.06.4-.02.72.78 1.2 3.58.83 3.69.14 0-.06 0-.1-.01-.15-.02-.14-.03-.28-.04-.43Z" style="fill:#fff;stroke-width:0"/><path d="M111.58 72.52s.08-.09 0 0c0-.28-.01-.6 0-.9.05 0 .09.02.14.02.64.08 1.45.18 1.83-.53.09.34.22.98.09 2.22-.18.83-.5 1.26-.84 1.54-.27.22-.62-.11-.82.02-.17-.89-.26-2.16-.39-2.37Z" style="fill:#f79e5e;stroke-width:0"/><path d="M111.23 71.65c.94.02 2.15.06 2.76-.59-.02-.07-.05-.13-.08-.2-.04-.07-.07-.14-.12-.21-.53.47-1.33.73-2.07.66-.02 0-.04 0-.06-.01-.17-.02-.33-.06-.47-.12l-.02.04c.02.14.03.29.06.43Z" style="fill:#bae5fa;stroke-width:0"/><ellipse cx="44.77" cy="94.7" rx="1.46" ry="1.34" style="fill:#09110e;stroke-width:0"/><path d="M175.21 129.16c-.1-.38-.17-.77-.19-1.14-.14-2.51 1.7-3.69 4.11-2.64 1.96.86 3.7 2.93 4.35 5.02.52-.13 1.17-.03 1.87.32 1.72.87 3.12 2.97 3.11 4.68 0 .27-.04.51-.1.73 1.41.93 2.49 2.73 2.49 4.26 0 1.67-1.32 2.37-2.94 1.56-.19-.1-.38-.21-.56-.33l-11.45-5.75c-.19-.06-.39-.14-.59-.24-1.77-.89-3.2-3.04-3.19-4.81 0-1.73 1.38-2.45 3.08-1.65Z" style="fill:#d2e1ea;stroke-width:0"/><path d="M174.37 129.55c-.1-.38-.17-.77-.19-1.14-.14-2.51 1.7-3.69 4.11-2.64 1.96.86 3.7 2.93 4.35 5.02.52-.13 1.17-.03 1.87.32 1.72.87 3.12 2.97 3.11 4.68 0 .27-.04.51-.1.73 1.41.93 2.49 2.73 2.49 4.26 0 1.67-1.32 2.37-2.94 1.56-.19-.1-.38-.21-.56-.33l-11.45-5.75c-.19-.06-.39-.14-.59-.24-1.77-.89-3.2-3.04-3.19-4.81 0-1.73 1.38-2.45 3.08-1.65Z" style="fill:#fff;stroke:#3b2c81;stroke-miterlimit:10;stroke-width:.25px"/><path d="M51.69 111.26s-.01.08 0 0c-.17.15-.37.3-.55.46.03.02.06.03.08.05.37.26.84.6.59 1.15.25-.14.71-.4 1.4-1.1.41-.51.52-.89.52-1.19 0-.24-.38-.24-.4-.4-.62.38-1.44.98-1.64 1.03Z" style="fill:#facac1;stroke-width:0"/><path d="M261.5 48.78a8.68 8.68 0 0 1-.26-1.58c-.2-3.45 2.34-5.08 5.66-3.63 2.7 1.18 5.09 4.03 5.99 6.91.72-.17 1.61-.04 2.57.44 2.37 1.19 4.29 4.08 4.29 6.45 0 .37-.05.71-.14 1.01 1.95 1.28 3.43 3.76 3.43 5.86 0 2.3-1.82 3.26-4.05 2.15-.27-.13-.52-.29-.77-.46l-15.76-7.91a6.58 6.58 0 0 1-.81-.33c-2.43-1.22-4.4-4.18-4.39-6.62 0-2.38 1.89-3.37 4.25-2.28Z" style="fill:#d1e0e8;stroke-width:0"/><path d="M260.34 49.32a8.68 8.68 0 0 1-.26-1.58c-.2-3.45 2.34-5.08 5.66-3.63 2.7 1.18 5.09 4.03 5.99 6.91.72-.17 1.61-.04 2.57.44 2.37 1.19 4.29 4.08 4.29 6.45 0 .37-.05.71-.14 1.01 1.95 1.28 3.43 3.76 3.43 5.86 0 2.3-1.82 3.26-4.05 2.15-.27-.13-.52-.29-.77-.46l-15.76-7.91a6.58 6.58 0 0 1-.81-.33c-2.43-1.22-4.4-4.18-4.39-6.62 0-2.38 1.89-3.37 4.25-2.28Z" style="fill:#fff;stroke:#3b2c81;stroke-miterlimit:10;stroke-width:.25px"/><circle cx="129.45" cy="129.15" r="6.4" style="fill:url(#c);stroke-width:0"/><path d="M82.17 141.3h-1.26v-.83h1.26v-1.46h.77v1.46h1.26v.83h-1.26v1.46h-.77v-1.46ZM65.72 58.11h-1.7v-1.12h1.7v-1.98h1.05v1.98h1.7v1.12h-1.7v1.98h-1.05v-1.98Zm63.2-41.25h-1.7v-1.12h1.7v-1.98h1.05v1.98h1.7v1.12h-1.7v1.98h-1.05v-1.98Z" style="fill:#34bcaf;stroke-width:0"/><path d="M177.7 157.19v3.53h.76v-3.53c0-.25-.17-.46-.38-.46s-.38.21-.38.46Zm0 15.41c0 .25.17.46.38.46s.38-.21.38-.46v-3.31h-.76v3.31Zm-7.78-7.7c0 .21.21.38.46.38h3.53v-.76h-3.53c-.25 0-.46.17-.46.38Zm15.87-.39h-3.31v.76h3.31c.25 0 .46-.17.46-.38s-.21-.38-.46-.38Zm-13.42-4.79 2.49 2.49.54-.54-2.49-2.49c-.18-.18-.45-.2-.59-.06s-.12.42.06.59Zm10.89 10.89c.18.18.45.2.59.06s.12-.42-.06-.59l-2.34-2.34-.54.54 2.34 2.34Zm-10.95.06c.15.15.42.12.59-.06l2.49-2.49-.54-.54-2.49 2.49c-.18.18-.2.45-.06.59Zm10.95-11.49-2.34 2.34.54.54 2.34-2.34c.18-.18.2-.45.06-.59s-.42-.12-.59.06ZM78.76 16.69v2.99h.65v-2.99c0-.22-.14-.39-.32-.39s-.32.17-.32.39Zm0 13.08c0 .22.14.39.32.39s.32-.17.32-.39v-2.81h-.65v2.81Zm-6.6-6.54c0 .18.17.32.39.32h2.99v-.65h-2.99c-.22 0-.39.14-.39.32Zm13.46-.33h-2.81v.65h2.81c.22 0 .39-.14.39-.32s-.17-.32-.39-.32Zm-11.39-4.07 2.12 2.12.46-.46-2.12-2.12c-.15-.15-.38-.17-.5-.05s-.11.35.05.5Zm9.25 9.25c.15.15.38.17.5.05s.11-.35-.05-.5l-1.99-1.99-.46.46 1.99 1.99Zm-9.29.05c.13.13.35.11.5-.05l2.12-2.12-.46-.46-2.12 2.12c-.15.15-.17.38-.05.5Zm9.29-9.75-1.99 1.99.46.46 1.99-1.99c.15-.15.17-.38.05-.5s-.35-.11-.5.05Z" style="fill:#006c7e;stroke-width:0"/><path d="M73.2 49.77h-1.05v-.69h1.05v-1.22h.64v1.22h1.05v.69h-1.05v1.22h-.64v-1.22Z" style="fill:#34bcaf;stroke-width:0"/><path d="M193.55 13.86c-.13-.12-.24-.25-.37-.39-.28-.32-.57-.65-1.02-.85a.233.233 0 0 0-.27.06c-.88.93-1.8 1.85-2.72 2.73-.25-.22-.48-.46-.72-.71-.37-.39-.75-.79-1.21-1.11a.24.24 0 0 0-.28 0c-.4.31-.73.7-1.04 1.07-.08.09-.16.19-.24.28a.23.23 0 0 0 0 .31c1.01 1.17 2.12 2.28 3.28 3.29.04.04.1.06.16.06s.12-.02.17-.07c.37-.37.76-.75 1.13-1.11 1.06-1.03 2.15-2.09 3.14-3.23.08-.1.08-.24-.02-.33Zm-3.46 3.22c-.32.31-.65.63-.98.96-1.04-.91-2.02-1.9-2.93-2.94.04-.04.07-.09.11-.13.27-.32.53-.63.84-.89.36.27.67.6.99.94.29.3.58.62.92.89.09.08.23.07.31-.01.94-.89 1.87-1.82 2.77-2.77.28.16.48.4.7.65.08.09.15.18.24.26-.94 1.06-1.97 2.07-2.97 3.04Z" style="fill:#006c7e;opacity:.5;stroke-width:0"/><path d="m221.11 128.09 5.16 5.16.6-.6-5.16-5.16c-.37-.37-.81-.54-.97-.37s0 .6.37.97Z" style="fill:#34bcaf;stroke-width:0"/><path d="m221.71 132.57 5.16-5.16-.6-.6-5.16 5.16c-.37.37-.54.81-.37.97s.6 0 .97-.37Zm-33.4-33.09 3.59 3.59.42-.42-3.59-3.59c-.26-.26-.56-.37-.68-.26s0 .42.26.68Z" style="fill:#34bcaf;stroke-width:0"/><path d="m188.73 102.6 3.59-3.59-.42-.42-3.59 3.59c-.26.26-.37.56-.26.68s.42 0 .68-.26Z" style="fill:#34bcaf;stroke-width:0"/><path d="M252.5 80.27c.12.07.26.11.39.11.12 0 .24-.03.35-.08l6.36-3.29c.25-.13.4-.38.41-.66 0-.28-.15-.54-.39-.67l-6.36-3.49a.768.768 0 0 0-.74.01c-.23.14-.37.38-.37.65v6.78c0 .26.14.51.36.64Zm.39-7.42 6.36 3.49-6.36 3.29v-6.78Z" style="fill:#006c7e;opacity:.6;stroke-width:0"/><path d="M281.66 79.79v7.29h.85v-7.29c0-.53-.19-.95-.43-.95s-.43.43-.43.95Z" style="fill:#94d4d3;stroke-width:0"/><path d="M278.92 83.39h7.29v-.85h-7.29c-.53 0-.95.19-.95.43s.43.43.95.43Zm-3.67 3.66v4.06h.48v-4.06c0-.29-.11-.53-.24-.53s-.24.24-.24.53Z" style="fill:#94d4d3;stroke-width:0"/><path d="M273.72 89.05h4.06v-.48h-4.06c-.29 0-.53.11-.53.24s.24.24.53.24Z" style="fill:#94d4d3;stroke-width:0"/><circle cx="200.11" cy="79.87" r="6.4" style="fill:url(#l);stroke-width:0"/><circle cx="107.7" cy="141.17" r="6.4" style="fill:url(#m);stroke-width:0"/><circle cx="96.58" cy="163.11" r="6.4" style="fill:url(#n);stroke-width:0"/><circle cx="88.61" cy="52.24" r="6.4" style="fill:url(#o);stroke-width:0"/><circle cx="211.75" cy="99.23" r="6.4" style="fill:url(#p);stroke-width:0"/><circle cx="159.79" cy="146.26" r="6.4" style="fill:url(#q);stroke-width:0"/><circle cx="83.48" cy="70.65" r="6.4" style="fill:url(#r);stroke-width:0"/><path d="M70.56 131.65a.503.503 0 0 0 .51.02l4.35-2.25a.512.512 0 0 0 .01-.91l-4.35-2.39a.542.542 0 0 0-.51.01.5.5 0 0 0-.25.44v4.64c0 .18.09.35.25.44Zm.27-5.08 4.35 2.39-4.35 2.25v-4.64Z" style="fill:#006c7e;opacity:.6;stroke-width:0"/><circle cx="204.55" cy="114.86" r="6.4" style="fill:url(#s);stroke-width:0"/></g></svg>