<svg xmlns="http://www.w3.org/2000/svg" id="Layer_1" viewBox="0 0 855.37 102.81"><defs><style>.cls-1{fill:#00c9b8}.cls-3{fill:#fcd73f}.cls-5{fill:#323031}</style></defs><path d="M123.99 32.61c0-1.9.5-3.35 1.5-4.35s2.45-1.5 4.35-1.5c.93 0 1.75.11 2.46.34.71.22 1.32.55 1.84.98.52.43.93.96 1.24 1.58.31.62.52 1.31.62 2.07l.41 2.64h.21c1-1.52 2.24-2.86 3.73-4.04.62-.52 1.34-1.02 2.15-1.5a17.6 17.6 0 0 1 2.72-1.29c1-.38 2.1-.68 3.29-.91 1.19-.22 2.49-.34 3.91-.34 3.97 0 7.33.79 10.1 2.38 2.76 1.59 4.92 3.8 6.47 6.63 1.14-1.66 2.54-3.16 4.19-4.5.73-.55 1.53-1.1 2.41-1.63.88-.53 1.86-1.02 2.95-1.45 1.09-.43 2.27-.78 3.55-1.04 1.28-.26 2.66-.39 4.14-.39 2.93 0 5.6.47 8 1.4 2.4.93 4.44 2.31 6.14 4.14 1.69 1.83 2.99 4.08 3.91 6.76.91 2.68 1.37 5.76 1.37 9.24v26.25c0 1.97-.58 3.5-1.73 4.58-1.16 1.09-2.93 1.63-5.31 1.63s-4.15-.54-5.31-1.63c-1.16-1.09-1.73-2.62-1.73-4.58v-24.6c0-2.1-.21-3.92-.62-5.44-.41-1.52-1.02-2.76-1.81-3.73a7.023 7.023 0 0 0-2.87-2.12c-1.12-.45-2.37-.67-3.75-.67-.9 0-1.73.11-2.51.34-.78.23-1.5.52-2.17.88-.67.36-1.29.79-1.86 1.27-.57.48-1.08.97-1.53 1.45a17.165 17.165 0 0 0-2.74 3.88c0 .38.03 1.02.08 1.92.05.9.08 1.88.08 2.95v23.87c0 1.97-.57 3.5-1.71 4.58s-2.9 1.63-5.28 1.63-4.15-.54-5.31-1.63c-1.16-1.09-1.73-2.62-1.73-4.58v-24.6c0-2.1-.22-3.92-.65-5.44-.43-1.52-1.04-2.76-1.81-3.73a6.832 6.832 0 0 0-2.87-2.12c-1.14-.45-2.4-.67-3.78-.67-.86 0-1.68.11-2.46.34-.78.23-1.49.51-2.15.85-.66.35-1.26.75-1.81 1.22s-1.05.92-1.5 1.37c-1.07 1.14-1.97 2.4-2.69 3.78v29c0 1.97-.58 3.5-1.73 4.58-1.16 1.09-2.93 1.63-5.31 1.63s-4.15-.54-5.31-1.63c-1.16-1.09-1.73-2.62-1.73-4.58V32.6Zm93.4.52c0-1.97.57-3.5 1.71-4.58s2.92-1.63 5.33-1.63 4.15.54 5.31 1.63c1.16 1.09 1.73 2.61 1.73 4.58v24.6c0 4.21.82 7.26 2.46 9.14 1.64 1.88 3.89 2.82 6.76 2.82.93 0 1.79-.1 2.59-.31.79-.21 1.54-.49 2.23-.85s1.32-.77 1.89-1.22c.57-.45 1.1-.91 1.58-1.4 1.07-1.1 1.98-2.36 2.74-3.78v-29c0-1.97.58-3.5 1.73-4.58 1.16-1.09 2.93-1.63 5.31-1.63s4.19.54 5.33 1.63 1.71 2.61 1.71 4.58v41.48c0 1.9-.5 3.35-1.5 4.35-1 1-2.45 1.5-4.35 1.5-.93 0-1.75-.11-2.46-.34a5.01 5.01 0 0 1-1.81-.98c-.5-.43-.91-.96-1.22-1.58-.31-.62-.54-1.33-.67-2.12l-.41-2.59h-.21c-1 1.52-2.26 2.87-3.78 4.04-.66.52-1.4 1.02-2.23 1.5s-1.76.92-2.8 1.29-2.17.68-3.39.91c-1.23.22-2.56.34-4.01.34-3 0-5.71-.47-8.1-1.4-2.4-.93-4.45-2.31-6.16-4.14-1.71-1.83-3.02-4.08-3.94-6.76-.92-2.67-1.37-5.76-1.37-9.24V33.14Zm59.13 4.66c-1.38 0-2.49-.45-3.34-1.35-.85-.9-1.27-2.21-1.27-3.94s.42-2.99 1.27-3.88c.85-.9 1.96-1.35 3.34-1.35h4.56l1.66-8.75c.38-1.97 1.1-3.42 2.15-4.35 1.05-.93 2.46-1.4 4.22-1.4s3.18.49 4.14 1.48c.97.98 1.45 2.41 1.45 4.27v8.75h8.75c1.38 0 2.49.45 3.34 1.35.85.9 1.27 2.19 1.27 3.88s-.42 3.04-1.27 3.94c-.85.9-1.96 1.35-3.34 1.35h-8.75V62.7c0 2.45.41 4.19 1.24 5.23s2.11 1.55 3.83 1.55c.62 0 1.17-.03 1.63-.1.47-.07.89-.16 1.27-.26s.73-.19 1.04-.26c.31-.07.64-.1.98-.1.55 0 1.06.1 1.53.31s.86.49 1.19.85c.33.36.59.8.78 1.32.19.52.29 1.09.29 1.71 0 .97-.16 1.79-.47 2.46-.31.67-.76 1.3-1.35 1.89-.35.35-.82.71-1.42 1.09-.6.38-1.35.72-2.23 1.04-.88.31-1.91.57-3.08.78-1.17.21-2.5.31-3.99.31-5.25 0-9.11-1.25-11.6-3.75s-3.73-6.33-3.73-11.47V37.8h-4.09Zm38.25-28.37c0-1.97.58-3.5 1.73-4.58 1.16-1.09 2.93-1.63 5.31-1.63s4.15.54 5.31 1.63c1.16 1.09 1.73 2.62 1.73 4.58v15.59c0 1.35-.03 2.65-.1 3.91a66.09 66.09 0 0 1-.36 4.06h.16c1-1.24 2.23-2.35 3.68-3.31.62-.41 1.32-.82 2.1-1.22s1.64-.76 2.59-1.09c.95-.33 1.98-.59 3.08-.78 1.1-.19 2.31-.28 3.62-.28 3.04 0 5.78.47 8.23 1.4 2.45.93 4.54 2.31 6.27 4.14 1.73 1.83 3.05 4.08 3.96 6.76.91 2.68 1.37 5.76 1.37 9.24v26.25c0 1.97-.58 3.5-1.73 4.58-1.16 1.09-2.93 1.63-5.31 1.63s-4.15-.54-5.31-1.63c-1.16-1.09-1.73-2.62-1.73-4.58v-24.6c0-2.1-.22-3.92-.65-5.44-.43-1.52-1.05-2.76-1.86-3.73-.81-.97-1.8-1.67-2.98-2.12-1.17-.45-2.5-.67-3.99-.67-.93 0-1.8.11-2.59.34-.79.23-1.55.51-2.25.85-.71.35-1.35.75-1.92 1.22-.57.47-1.08.92-1.53 1.37-1.1 1.14-2.02 2.4-2.74 3.78v29c0 1.97-.58 3.5-1.73 4.58-1.16 1.09-2.93 1.63-5.31 1.63s-4.15-.54-5.31-1.63c-1.16-1.09-1.73-2.62-1.73-4.58V9.42Zm71.55 47.12v.1c.21 2.14.69 4.04 1.45 5.7.76 1.66 1.77 3.06 3.03 4.19 1.26 1.14 2.77 2 4.53 2.59 1.76.59 3.73.88 5.9.88 1.79 0 3.34-.12 4.63-.36s2.42-.51 3.39-.8c.97-.29 1.82-.56 2.56-.8s1.44-.36 2.1-.36 1.24.12 1.76.36.96.56 1.32.96c.36.4.64.85.83 1.37.19.52.28 1.07.28 1.66 0 .86-.14 1.61-.41 2.25-.28.64-.73 1.27-1.35 1.89-.52.52-1.28 1.06-2.28 1.63-1 .57-2.24 1.09-3.7 1.55-1.47.47-3.18.85-5.13 1.17-1.95.31-4.12.47-6.5.47-4.11 0-7.8-.6-11.08-1.79-3.28-1.19-6.06-2.9-8.34-5.13-2.28-2.23-4.02-4.92-5.23-8.08-1.21-3.16-1.81-6.71-1.81-10.64 0-4.59.65-8.69 1.94-12.3 1.29-3.61 3.1-6.65 5.41-9.14s5.08-4.38 8.31-5.7c3.23-1.31 6.77-1.97 10.64-1.97 3.31 0 6.32.52 9.01 1.55 2.69 1.04 4.99 2.53 6.89 4.48 1.9 1.95 3.37 4.32 4.4 7.12 1.04 2.8 1.55 5.97 1.55 9.53 0 2.59-.6 4.5-1.79 5.75-1.19 1.24-2.89 1.86-5.1 1.86h-27.24Zm21.02-9.01c-.45-3.87-1.49-6.71-3.13-8.54-1.64-1.83-3.96-2.74-6.96-2.74-1.24 0-2.43.22-3.57.65s-2.18 1.1-3.13 2.02c-.95.92-1.77 2.08-2.46 3.5s-1.23 3.12-1.6 5.13h20.87Zm22.62-14.92c0-1.9.5-3.35 1.5-4.35s2.45-1.5 4.35-1.5c.93 0 1.75.11 2.46.34.71.22 1.31.55 1.81.98.5.43.91.97 1.22 1.6.31.64.54 1.35.67 2.15l.67 3.78h.16c.66-1.35 1.42-2.6 2.28-3.75.86-1.16 1.83-2.15 2.9-2.98 1.07-.83 2.22-1.48 3.44-1.94 1.22-.47 2.51-.7 3.86-.7 1.97 0 3.49.54 4.56 1.6 1.07 1.07 1.61 2.73 1.61 4.97 0 2.62-.5 4.65-1.5 6.08-1 1.43-2.19 2.15-3.57 2.15-.38 0-.73-.04-1.04-.13-.31-.09-.61-.17-.91-.26-.29-.09-.6-.17-.91-.26-.31-.09-.67-.13-1.09-.13-.83 0-1.65.22-2.46.65a10 10 0 0 0-2.28 1.68c-.71.69-1.37 1.48-1.99 2.36-.62.88-1.17 1.79-1.66 2.72v26.41c0 1.97-.58 3.5-1.73 4.58-1.16 1.09-2.93 1.63-5.31 1.63s-4.15-.54-5.31-1.63c-1.16-1.09-1.73-2.62-1.73-4.58V32.6Zm36.86-23.19c0-1.97.58-3.5 1.73-4.58 1.16-1.09 2.93-1.63 5.31-1.63s4.15.54 5.31 1.63c1.16 1.09 1.73 2.62 1.73 4.58v15.59c0 1.35-.03 2.65-.1 3.91a66.09 66.09 0 0 1-.36 4.06h.16c.97-1.24 2.17-2.35 3.62-3.31a20.956 20.956 0 0 1 4.66-2.31c.93-.33 1.96-.59 3.08-.78 1.12-.19 2.32-.28 3.6-.28 3.24 0 6.19.54 8.83 1.63 2.64 1.09 4.91 2.71 6.81 4.87 1.9 2.16 3.37 4.85 4.4 8.08 1.04 3.23 1.55 7 1.55 11.31s-.66 8.57-1.97 12.14c-1.31 3.57-3.22 6.59-5.72 9.06-2.5 2.47-5.58 4.35-9.24 5.64s-7.84 1.94-12.53 1.94c-2.73 0-5.15-.16-7.28-.47-2.12-.31-3.96-.71-5.51-1.19-1.55-.48-2.83-.99-3.83-1.53-1-.53-1.73-1.04-2.17-1.53-.35-.34-.65-.7-.91-1.06-.26-.36-.48-.77-.65-1.22-.17-.45-.3-.96-.39-1.53-.09-.57-.13-1.23-.13-1.99V9.42ZM480.9 68.4c.55.35 1.23.66 2.02.93.69.24 1.53.46 2.51.65.98.19 2.15.28 3.5.28 2.07 0 3.96-.35 5.67-1.06 1.71-.71 3.17-1.77 4.38-3.18 1.21-1.42 2.15-3.19 2.82-5.33.67-2.14 1.01-4.64 1.01-7.51s-.26-5.24-.78-7.22c-.52-1.98-1.24-3.6-2.17-4.84-.93-1.24-2.06-2.15-3.39-2.72-1.33-.57-2.81-.85-4.43-.85-.93 0-1.8.11-2.61.34-.81.23-1.57.51-2.28.85-.71.35-1.36.75-1.94 1.22-.59.47-1.11.92-1.55 1.37-1.1 1.14-2.02 2.4-2.74 3.78v23.3Zm42.35-13.88c0-4.42.64-8.38 1.92-11.88 1.28-3.5 3.11-6.47 5.51-8.91 2.4-2.43 5.31-4.29 8.73-5.57 3.42-1.28 7.27-1.92 11.55-1.92 3.97 0 7.57.63 10.8 1.89 3.23 1.26 6 3.05 8.31 5.36 2.31 2.31 4.1 5.1 5.36 8.36 1.26 3.26 1.89 6.88 1.89 10.85 0 4.42-.64 8.38-1.92 11.88-1.28 3.5-3.11 6.47-5.49 8.91s-5.28 4.29-8.7 5.57-7.27 1.92-11.55 1.92c-3.97 0-7.58-.63-10.82-1.89-3.25-1.26-6.02-3.05-8.34-5.36-2.31-2.31-4.1-5.09-5.36-8.34-1.26-3.24-1.89-6.87-1.89-10.87Zm14.34-1.04c0 2.76.34 5.18 1.01 7.25.67 2.07 1.59 3.81 2.74 5.2 1.16 1.4 2.51 2.45 4.06 3.16 1.55.71 3.23 1.06 5.02 1.06s3.41-.34 4.94-1.04c1.54-.69 2.87-1.72 4.01-3.08 1.14-1.36 2.03-3.07 2.67-5.13.64-2.05.96-4.46.96-7.22s-.34-5.13-1.01-7.2c-.67-2.07-1.59-3.81-2.74-5.2-1.16-1.4-2.51-2.45-4.06-3.16-1.55-.71-3.21-1.06-4.97-1.06s-3.46.35-5 1.04c-1.54.69-2.87 1.72-4.01 3.08s-2.03 3.07-2.67 5.13c-.64 2.05-.96 4.45-.96 7.17Zm78.5-7.18c0-1.65-.19-3.06-.57-4.23-.38-1.17-.99-2.12-1.84-2.86-.85-.74-1.97-1.29-3.37-1.65-1.4-.36-3.1-.54-5.1-.54-2.14 0-3.96.16-5.46.47s-2.8.67-3.91 1.06c-1.11.4-2.06.75-2.87 1.06-.81.31-1.58.47-2.3.47-1.24 0-2.27-.4-3.08-1.19-.81-.79-1.22-1.95-1.22-3.47 0-.79.12-1.48.36-2.07.24-.59.66-1.17 1.24-1.76.55-.55 1.44-1.14 2.67-1.76 1.22-.62 2.71-1.19 4.45-1.71 1.74-.52 3.74-.95 5.98-1.29 2.24-.34 4.68-.52 7.3-.52 7.21 0 12.63 1.56 16.26 4.69 3.62 3.12 5.44 7.67 5.44 13.64v16.93c0 2.35.09 4.25.29 5.7.19 1.45.39 2.66.6 3.62.21.97.41 1.77.6 2.41.19.64.28 1.32.28 2.05s-.14 1.4-.41 2.02c-.28.62-.67 1.17-1.19 1.63-.52.47-1.17.83-1.94 1.09s-1.67.39-2.67.39c-1.07 0-2.03-.16-2.87-.49a6.95 6.95 0 0 1-2.23-1.37 7.79 7.79 0 0 1-1.6-2.1c-.43-.81-.79-1.7-1.06-2.67h-.16c-1.07 1.35-2.37 2.54-3.88 3.57-1.31.9-2.96 1.71-4.95 2.43-1.99.73-4.32 1.09-7.02 1.09-2.87 0-5.43-.41-7.69-1.22-2.26-.81-4.18-1.94-5.75-3.37a14.48 14.48 0 0 1-3.6-5.11c-.83-1.97-1.24-4.11-1.24-6.43 0-2.49.55-4.69 1.66-6.59 1.1-1.9 2.66-3.48 4.66-4.75 2-1.26 4.42-2.21 7.25-2.85 2.83-.64 5.99-.96 9.48-.96 1.45 0 2.75.05 3.91.16 1.16.1 2.15.21 2.98.31.97.14 1.83.29 2.59.47v-4.28Zm0 13.35c-.69-.17-1.45-.33-2.28-.47-.72-.14-1.57-.26-2.54-.36-.97-.1-2.05-.16-3.26-.16-3.45 0-6.02.48-7.69 1.45-1.67.97-2.51 2.38-2.51 4.25 0 .9.17 1.73.52 2.49.34.76.85 1.42 1.5 1.97.66.55 1.47.99 2.43 1.32.97.33 2.09.49 3.37.49 1.66 0 3.13-.29 4.43-.88 1.29-.59 2.39-1.23 3.29-1.92 1.04-.83 1.95-1.76 2.74-2.8v-5.39Zm26.24-27.04c0-1.9.5-3.35 1.5-4.35 1-1 2.45-1.5 4.35-1.5.93 0 1.75.11 2.46.34.71.22 1.31.55 1.81.98.5.43.91.97 1.22 1.6.31.64.53 1.35.67 2.15l.67 3.78h.16c.66-1.35 1.42-2.6 2.28-3.75.86-1.16 1.83-2.15 2.9-2.98 1.07-.83 2.22-1.48 3.44-1.94 1.22-.47 2.51-.7 3.86-.7 1.97 0 3.49.54 4.56 1.6 1.07 1.07 1.61 2.73 1.61 4.97 0 2.62-.5 4.65-1.5 6.08-1 1.43-2.19 2.15-3.57 2.15-.38 0-.73-.04-1.04-.13-.31-.09-.61-.17-.91-.26-.29-.09-.6-.17-.91-.26-.31-.09-.67-.13-1.09-.13-.83 0-1.65.22-2.46.65a10 10 0 0 0-2.28 1.68c-.71.69-1.37 1.48-1.99 2.36-.62.88-1.17 1.79-1.66 2.72v26.41c0 1.97-.58 3.5-1.73 4.58-1.16 1.09-2.93 1.63-5.31 1.63s-4.15-.54-5.31-1.63c-1.16-1.09-1.74-2.62-1.74-4.58V32.6Zm69.38-23.19c0-1.97.58-3.5 1.73-4.58 1.16-1.09 2.93-1.63 5.31-1.63s4.15.54 5.31 1.63c1.16 1.09 1.73 2.62 1.73 4.58v65.19c0 1.9-.5 3.35-1.5 4.35s-2.45 1.5-4.35 1.5c-.93 0-1.75-.11-2.46-.34a5.01 5.01 0 0 1-1.81-.98c-.5-.43-.91-.96-1.22-1.58-.31-.62-.54-1.33-.67-2.12l-.47-2.59h-.16a17.643 17.643 0 0 1-3.83 4.04c-1.31 1-2.98 1.92-5 2.77-2.02.85-4.45 1.27-7.28 1.27-3.25 0-6.2-.54-8.85-1.63a18.04 18.04 0 0 1-6.83-4.87c-1.9-2.16-3.37-4.85-4.4-8.08-1.04-3.23-1.55-7-1.55-11.31s.66-8.57 1.97-12.14c1.31-3.57 3.22-6.59 5.72-9.06 2.5-2.47 5.58-4.35 9.24-5.64s7.85-1.94 12.58-1.94c1 0 1.92.04 2.74.13.83.09 1.54.18 2.12.28.69.14 1.33.28 1.92.41l.16-.05c-.1-1.76-.16-3.62-.16-5.59V9.43Zm0 29.31c-.59-.31-1.28-.59-2.07-.83-.69-.21-1.54-.4-2.54-.57-1-.17-2.16-.26-3.47-.26-2.07 0-3.95.35-5.64 1.06-1.69.71-3.15 1.77-4.38 3.18-1.23 1.42-2.17 3.18-2.85 5.28-.67 2.11-1.01 4.57-1.01 7.4s.26 5.29.78 7.28c.52 1.99 1.25 3.6 2.2 4.84s2.09 2.15 3.42 2.72c1.33.57 2.8.85 4.43.85a10.375 10.375 0 0 0 4.86-1.16c.69-.36 1.32-.77 1.89-1.22.57-.45 1.1-.91 1.58-1.4 1.1-1.1 2.04-2.36 2.8-3.78V38.71Zm41.58 28.63c0-2.42.35-4.6 1.07-6.53s1.72-3.59 3.02-4.94c1.3-1.36 2.86-2.4 4.67-3.12 1.81-.72 3.81-1.08 6.01-1.08.85 0 1.61.06 2.3.18.68.12 1.29.27 1.81.44.53.18.97.37 1.33.6.36.22.64.44.84.66.33.31.58.66.73 1.04s.24.84.24 1.4a2.803 2.803 0 0 1-.66 1.84c-.2.23-.45.41-.75.54-.29.13-.62.19-.97.19-.37 0-.71-.06-1.01-.17s-.64-.24-1-.37c-.36-.14-.78-.27-1.26-.39s-1.06-.18-1.74-.18c-.96 0-1.87.19-2.71.58-.85.39-1.59.96-2.21 1.72-.63.76-1.12 1.7-1.48 2.84-.36 1.14-.54 2.45-.54 3.95 0 1.37.18 2.57.55 3.63s.88 1.94 1.52 2.66c.65.72 1.42 1.27 2.33 1.65.9.38 1.89.57 2.96.57.72 0 1.32-.06 1.81-.17s.91-.23 1.27-.36c.36-.13.68-.25.97-.36.29-.11.58-.17.87-.17.33 0 .64.06.91.19.28.13.51.3.69.53.18.22.33.48.43.76.1.29.15.59.15.9 0 .48-.08.9-.25 1.27s-.41.72-.72 1.05c-.28.28-.64.55-1.09.82-.45.27-1 .5-1.63.71-.64.2-1.37.37-2.2.5-.83.13-1.75.19-2.77.19-2.05 0-3.9-.32-5.57-.96-1.66-.64-3.08-1.55-4.25-2.73s-2.08-2.61-2.71-4.28-.96-3.54-.96-5.61Zm24.5-.58c0-2.36.34-4.48 1.02-6.35.68-1.87 1.67-3.46 2.95-4.76 1.28-1.3 2.84-2.29 4.67-2.98 1.83-.68 3.89-1.02 6.17-1.02 2.12 0 4.05.34 5.77 1.01 1.73.67 3.21 1.63 4.44 2.87 1.24 1.24 2.19 2.73 2.87 4.47.67 1.74 1.01 3.68 1.01 5.8 0 2.36-.34 4.48-1.02 6.35-.68 1.87-1.66 3.46-2.93 4.76s-2.82 2.29-4.65 2.98c-1.83.68-3.89 1.02-6.17 1.02-2.12 0-4.05-.34-5.79-1.01-1.74-.67-3.22-1.63-4.46-2.87-1.24-1.24-2.19-2.72-2.87-4.46-.67-1.73-1.01-3.67-1.01-5.81Zm7.67-.55c0 1.48.18 2.77.54 3.88.36 1.11.85 2.04 1.47 2.78.62.75 1.34 1.31 2.17 1.69.83.38 1.73.57 2.69.57s1.82-.18 2.64-.55c.82-.37 1.54-.92 2.15-1.65.61-.73 1.08-1.64 1.43-2.74s.51-2.39.51-3.86-.18-2.74-.54-3.85c-.36-1.11-.85-2.04-1.47-2.78s-1.34-1.31-2.17-1.69c-.83-.38-1.72-.57-2.66-.57s-1.85.18-2.67.55-1.54.92-2.15 1.65c-.61.73-1.08 1.64-1.43 2.74-.34 1.1-.51 2.38-.51 3.83Zm26.25-11.16c0-1.02.27-1.79.8-2.33.54-.54 1.31-.8 2.33-.8.5 0 .94.06 1.32.18.38.12.71.3.98.53.28.23.5.51.67.84.17.33.28.7.33 1.11l.22 1.41h.11c.54-.81 1.2-1.53 1.99-2.16.33-.28.71-.54 1.15-.8.43-.26.92-.49 1.45-.69.54-.2 1.12-.36 1.76-.48s1.33-.18 2.09-.18c2.12 0 3.92.42 5.4 1.27 1.48.85 2.63 2.03 3.46 3.54.61-.89 1.36-1.69 2.24-2.41.39-.29.82-.59 1.29-.87s1-.54 1.58-.78c.58-.23 1.21-.42 1.9-.55.68-.14 1.42-.21 2.22-.21 1.57 0 2.99.25 4.28.75 1.28.5 2.38 1.24 3.28 2.22.9.98 1.6 2.18 2.09 3.61.49 1.43.73 3.08.73 4.94v14.04c0 1.05-.31 1.87-.93 2.45-.62.58-1.56.87-2.84.87s-2.22-.29-2.84-.87-.93-1.4-.93-2.45V64.1c0-1.13-.11-2.1-.33-2.91-.22-.81-.54-1.48-.97-1.99-.42-.52-.94-.9-1.54-1.14-.6-.24-1.27-.36-2.01-.36-.48 0-.93.06-1.34.18-.42.12-.8.28-1.16.47-.36.19-.69.42-1 .68-.3.26-.58.52-.82.78-.57.61-1.06 1.3-1.47 2.08 0 .2.01.54.04 1.02s.04 1.01.04 1.58v12.77c0 1.05-.3 1.87-.91 2.45-.61.58-1.55.87-2.83.87s-2.22-.29-2.84-.87-.93-1.4-.93-2.45V64.11c0-1.13-.12-2.1-.35-2.91-.23-.81-.55-1.48-.97-1.99-.42-.52-.93-.9-1.54-1.14a5.46 5.46 0 0 0-2.02-.36c-.46 0-.9.06-1.32.18-.42.12-.8.27-1.15.46-.35.19-.67.4-.97.65-.3.25-.56.49-.8.73a9.28 9.28 0 0 0-1.44 2.02v15.51c0 1.05-.31 1.87-.93 2.45-.62.58-1.56.87-2.84.87s-2.22-.29-2.84-.87c-.62-.58-.93-1.4-.93-2.45V55.08Z" class="cls-5"/><circle cx="739.6" cy="74.29" r="6.29" class="cls-5"/><rect width="26.72" height="102.43" x="7.78" class="cls-1" rx="13.36" ry="13.36"/><rect width="26.72" height="102.43" x="74.7" y=".39" class="cls-1" rx="13.36" ry="13.36"/><rect width="26.72" height="102.43" x="24.32" y="-3.77" class="cls-3" rx="13.36" ry="13.36" transform="rotate(-26.31 37.687 47.457)"/><rect width="26.72" height="102.43" x="58.16" y="-3.77" class="cls-3" rx="13.36" ry="13.36" transform="rotate(-153.69 71.52 47.448)"/><path d="M68.07 81.74c-.05-1.9-.31-3.41-.85-4.88-.48-1.31-1.12-2.54-1.74-3.78-.87-1.75-1.71-3.51-2.57-5.26-1.62-3.28-3.26-6.57-4.89-9.85-1.06-2.14-2.13-4.27-3.19-6.41-.05-.11-.04-.27-.23-.24-.13.02-.13.14-.17.24-.68 1.41-1.35 2.82-2.05 4.22-1.23 2.46-2.49 4.9-3.71 7.37-1.44 2.89-2.88 5.78-4.27 8.69-1.19 2.49-2.54 4.91-3.01 7.71-.31 1.82-.13 3.56.3 5.29.36 1.44 1.02 2.78 1.84 4.03.95 1.45 2.09 2.72 3.55 3.67 1.74 1.13 3.6 1.92 5.68 2.26 2.24.37 4.37.07 6.42-.69 2.35-.87 4.33-2.32 5.91-4.33 1.94-2.47 2.84-5.28 2.98-8.04Zm6.62-10.56c.1-.12.14-.16.17-.21 1.44-2.92 2.89-5.84 4.33-8.76 1.02-2.06 2.02-4.13 3.04-6.19.92-1.86 1.88-3.7 2.79-5.56.7-1.43 1.29-2.92 2.06-4.32 1.12-2.04 2.08-4.15 3.14-6.21.89-1.72 1.7-3.48 2.56-5.21 1.16-2.35 2.35-4.69 3.51-7.03 1.15-2.33 2.23-4.68 3.46-6.98 1.09-2.04 1.83-4.19 1.85-6.54.02-1.8-.19-3.55-.83-5.26-.92-2.46-2.4-4.47-4.47-6.03-1.73-1.3-3.67-2.17-5.83-2.55-2.87-.51-5.6-.13-8.21 1.08-2.62 1.21-4.61 3.11-5.97 5.67-.66 1.24-1.17 2.54-1.41 3.92-.28 1.62-.18 3.27-.18 4.91V71.2ZM34.5 58.71V15.83c0-1.64.1-3.29-.18-4.91-.24-1.37-.75-2.67-1.41-3.92-1.37-2.56-3.36-4.46-5.97-5.67C24.33.13 21.6-.26 18.73.26c-2.17.39-4.1 1.25-5.83 2.55-2.07 1.56-3.55 3.57-4.47 6.03-.64 1.72-.85 3.46-.83 5.26.02 2.35.76 4.5 1.85 6.54 1.22 2.29 2.31 4.65 3.46 6.98 1.16 2.35 2.34 4.69 3.51 7.03.86 1.73 1.67 3.49 2.56 5.21 1.06 2.06 2.02 4.18 3.14 6.21.76 1.4 1.36 2.89 2.06 4.32.91 1.86 1.87 3.7 2.79 5.56 1.02 2.06 2.03 4.13 3.04 6.19 1.44 2.92 2.88 5.84 4.33 8.76.03.05.07.09.17.21V58.7Z" style="fill:#00b206"/><path d="M0 33.18h7.78v8.4H0zm0 15.53h7.78v8.4H0zm0 15.52h7.78v8.4H0zm0 15.52h7.78v8.4H0z" style="fill:#fe5e54"/></svg>